<?xml version="1.0" encoding="UTF-8" standalone="no"?>
<svg
   xmlns:dc="http://purl.org/dc/elements/1.1/"
   xmlns:cc="http://creativecommons.org/ns#"
   xmlns:rdf="http://www.w3.org/1999/02/22-rdf-syntax-ns#"
   xmlns:svg="http://www.w3.org/2000/svg"
   xmlns="http://www.w3.org/2000/svg"
   version="1.1"
   id="svg2"
   viewBox="0 0 1000 500"
   height="500"
   width="1000">
  <defs
     id="defs4" />
  <metadata
     id="metadata7">
    <rdf:RDF>
      <cc:Work
         rdf:about="">
        <dc:format>image/svg+xml</dc:format>
        <dc:type
           rdf:resource="http://purl.org/dc/dcmitype/StillImage" />
        <dc:title></dc:title>
      </cc:Work>
    </rdf:RDF>
  </metadata>
  <g
     transform="translate(0,-552.36218)"
     id="layer1">
    <path
       style="fill:#040404"
       d="m 76.114735,991.38673 c -1.181623,-0.73135 -2.77103,-1.20884 -3.674457,-1.10384 -1.605882,0.18661 -5.835638,-1.57007 -6.499942,-2.69951 -0.197341,-0.33552 -1.452543,-0.88469 -2.789325,-1.22037 -1.353034,-0.33976 -3.06367,-1.33632 -3.858736,-2.24797 -0.909335,-1.04266 -2.12723,-1.69658 -3.352179,-1.79985 -1.058044,-0.0891 -2.768271,-0.79082 -3.800354,-1.55913 -1.032085,-0.76832 -2.233934,-1.42818 -2.670766,-1.46632 -0.436832,-0.0381 -1.844219,-0.80626 -3.127527,-1.70689 -1.283207,-0.90062 -3.318347,-2.09935 -4.522446,-2.66386 -4.564045,-2.13967 -6.880561,-6.13959 -6.880561,-11.88042 0,-4.24545 1.104548,-7.04897 3.650519,-9.26579 1.551398,-1.35077 2.574998,-1.63256 5.907962,-1.62623 2.640717,0.006 4.181586,0.26297 4.46664,0.74765 0.538835,0.91611 8.6145,1.64868 11.550798,1.04778 1.298036,-0.26564 3.585189,-0.0991 5.938112,0.43251 3.208987,0.72493 4.180361,0.70947 6.016148,-0.0957 1.204088,-0.52816 3.455897,-1.46711 5.004023,-2.08656 1.548116,-0.61944 3.303517,-1.34458 3.900896,-1.61141 0.597388,-0.26683 2.093634,-0.40238 3.325011,-0.3012 1.231378,0.10116 2.853686,-0.0943 3.60513,-0.43455 1.957291,-0.88603 10.049247,-8.5194 12.026809,-11.34522 0.92072,-1.31566 2.59018,-3.0156 3.70991,-3.77765 1.95196,-1.32847 2.59989,-2.79122 3.22089,-7.27143 0.13959,-1.00703 0.95337,-2.50369 1.8084,-3.32591 0.85503,-0.82221 1.5546,-1.93763 1.5546,-2.47873 0,-0.5411 0.44372,-1.31561 0.98605,-1.72115 1.32858,-0.99346 0.64665,-4.70436 -1.27634,-6.94572 -1.63513,-1.90583 -3.46272,-5.43621 -3.46272,-6.68898 0,-1.11127 -2.17809,-5.51929 -3.59712,-7.27986 -2.72617,-3.38233 -5.089199,-7.59618 -5.496748,-9.80199 -0.357683,-1.93604 -0.195205,-2.62865 0.859794,-3.66494 1.345287,-1.32147 3.204584,-7.76608 3.220804,-11.16384 0.0102,-2.14529 1.64366,-5.74696 2.57175,-5.6707 0.32689,0.0269 2.90993,-1.95419 5.74008,-4.40231 2.83015,-2.44814 5.91738,-4.72065 6.86052,-5.05001 0.94314,-0.32937 2.49127,-1.62655 3.44027,-2.88263 0.949,-1.25608 2.97179,-3.13772 4.49508,-4.1814 1.5233,-1.04369 5.38678,-4.1455 8.58551,-6.89292 3.19874,-2.74742 6.33279,-4.95282 6.96457,-4.90091 1.91684,0.15749 6.47147,-1.97057 9.82586,-4.59092 2.9686,-2.31901 3.22345,-2.75285 3.97843,-6.77296 0.44364,-2.3624 0.59482,-4.65539 0.33593,-5.09555 -0.81073,-1.3784 -0.23673,-11.17052 0.80196,-13.68114 0.71642,-1.73161 0.90739,-3.77192 0.70526,-7.53458 -0.3686,-6.86175 -1.68539,-9.71393 -5.34859,-11.58513 -3.80158,-1.94191 -5.25888,-1.92452 -7.35145,0.0878 -1.11515,1.07234 -2.4295,1.67689 -3.46134,1.59211 -1.07371,-0.0882 -2.51349,0.61897 -4.06073,1.99449 -1.31845,1.17213 -3.40234,2.57722 -4.63084,3.12241 -1.22851,0.54517 -3.07809,1.70391 -4.11016,2.57497 -1.03209,0.87105 -3.70611,2.65895 -5.94228,3.97309 -2.23618,1.31412 -5.47315,3.33294 -7.19329,4.48626 -1.72012,1.15331 -3.35706,2.07929 -3.63763,2.05771 -0.28056,-0.022 -2.63621,0.76842 -5.23476,1.75551 -2.84279,1.07987 -6.983109,2.00101 -10.394822,2.31264 -5.146603,0.47009 -6.049384,0.39647 -9.777295,-0.7967 -2.258923,-0.72333 -4.670094,-1.35629 -5.358139,-1.40655 -0.688057,-0.0499 -3.784299,-0.71775 -6.880531,-1.48328 -4.153244,-1.02686 -5.902983,-1.74905 -6.672314,-2.75388 -0.573524,-0.74911 -1.919004,-1.60925 -2.989938,-1.91143 -1.070933,-0.30218 -2.572053,-1.3893 -3.335743,-2.4158 -1.414337,-1.90111 -7.042354,-5.54312 -8.787228,-5.68649 -1.005919,-0.0826 -4.399593,-4.33675 -6.14089,-7.69783 -1.020535,-1.97005 -2.131828,-6.0089 -1.898184,-6.89879 0.06848,-0.26266 0.24223,-1.37429 0.385013,-2.47036 0.142783,-1.0961 0.843717,-3.30525 1.557528,-4.90926 0.713812,-1.60399 1.299253,-3.52622 1.300888,-4.27163 0,-1.61654 3.215426,-4.99714 6.624431,-6.97302 1.348721,-0.78171 2.97524,-2.44156 3.614543,-3.68854 2.44499,-4.76912 3.206839,-5.91853 5.221029,-7.87605 1.142314,-1.11023 2.774812,-2.70291 3.627769,-3.53928 0.852947,-0.83636 1.550815,-1.78551 1.550815,-2.10918 0,-0.96151 2.675854,-2.88504 4.675193,-3.36074 1.408062,-0.33502 1.962288,-0.93231 2.279334,-2.45645 0.435187,-2.09204 4.583289,-6.55146 5.986834,-6.43613 0.441605,0.0363 1.186978,-0.82168 1.656383,-1.90657 0.809836,-1.87165 4.880917,-5.68785 5.972117,-5.5982 0.280629,0.0231 1.467107,-1.33722 2.636618,-3.02284 1.169511,-1.68562 3.252291,-4.68111 4.628393,-6.65662 1.376102,-1.97553 4.542724,-5.4868 7.036916,-7.80284 3.76891,-3.49969 4.53489,-4.55615 4.53489,-6.25459 0,-1.25068 0.48643,-2.44389 1.25365,-3.07517 1.5197,-1.25044 2.6748,-5.11612 2.1574,-7.22007 -0.20765,-0.84444 -1.21076,-2.21982 -2.22915,-3.05642 l -1.85159,-1.52107 -2.60575,1.85384 c -3.005662,2.13837 -4.320583,2.85322 -7.358108,4.00027 -1.204098,0.45469 -3.628105,1.3788 -5.386696,2.05357 -1.75859,0.67478 -4.291878,1.39604 -5.629529,1.60277 -1.337642,0.20675 -2.896192,0.53025 -3.46345,0.71891 -0.567248,0.18864 -1.19027,0.0728 -1.384514,-0.25743 -0.194234,-0.33024 -3.572087,-0.77509 -7.506342,-0.98857 -5.717417,-0.31022 -7.306754,-0.58575 -7.918236,-1.37282 -0.420785,-0.54158 -1.22317,-1.03585 -1.783089,-1.09838 -1.011091,-0.11293 -2.690145,-1.07031 -7.347401,-4.18931 -1.33523,-0.89423 -3.835105,-2.56813 -5.555143,-3.71973 -1.72014,-1.1516 -4.042381,-2.17828 -5.16042,-2.28145 -1.709716,-0.15784 -2.032893,-0.42082 -2.032893,-1.65445 0,-1.46215 -1.715542,-3.67817 -2.924341,-3.77748 -1.67333,-0.13749 -4.646423,-2.58304 -7.810437,-6.42457 -4.856764,-5.89677 -6.354197,-9.17187 -6.314233,-13.81003 0.03169,-3.63043 0.116617,-3.81243 2.754677,-5.87063 1.497432,-1.1682 3.256513,-2.08091 3.909103,-2.02821 0.65259,0.053 2.341454,1.13414 3.753032,2.40324 1.411475,1.26908 3.692322,2.78325 5.068434,3.36477 1.376113,0.58154 3.205716,1.58579 4.065787,2.23171 2.175369,1.63366 6.090706,3.53168 7.712114,3.73856 8.434615,1.07617 14.022669,0.75476 20.748223,-1.19336 2.408186,-0.69756 5.785906,-1.55239 7.506036,-1.89962 1.72013,-0.34723 4.014478,-0.9788 5.098555,-1.40348 1.084066,-0.42471 2.237981,-0.75024 2.564256,-0.72343 0.326274,0.0267 1.831852,-0.68879 3.345738,-1.59023 1.737782,-1.03476 3.559588,-1.57703 4.94177,-1.47097 2.818373,0.21631 9.695487,-2.45912 12.510067,-4.86677 2.31231,-1.97801 3.15516,-2.28568 10.63354,-3.88181 2.58021,-0.55068 6.03252,-1.70365 7.67181,-2.56217 1.99514,-1.04487 3.8244,-1.49158 5.53302,-1.35119 1.40386,0.11534 3.44034,-0.17975 4.52548,-0.65575 3.67842,-1.61352 4.05039,-1.70921 7.27731,-1.87215 2.64337,-0.13347 3.5238,-0.51367 4.88743,-2.11063 0.91479,-1.0713 2.44075,-2.05471 3.39101,-2.18534 0.95025,-0.13064 1.88833,-0.48414 2.08458,-0.78559 0.19627,-0.30142 0.96015,-0.49849 1.69753,-0.4379 0.73737,0.0606 2.19851,-0.62309 3.24696,-1.51929 1.04846,-0.8962 3.17293,-1.95801 4.72107,-2.3596 7.45261,-1.93321 10.405,-3.32203 13.84392,-6.51222 1.93773,-1.79758 4.3194,-3.61601 5.29258,-4.04093 2.66527,-1.16377 15.49253,-0.49836 17.95313,0.93132 1.03604,0.60199 2.21953,1.12209 2.62993,1.15581 0.41042,0.0337 1.76059,1.12984 3.00041,2.43578 1.23982,1.30597 2.51517,2.39593 2.83413,2.42213 0.31895,0.0262 0.93032,0.49866 1.3586,1.04988 0.42827,0.55123 1.20925,1.03762 1.7355,1.08086 2.55299,0.20976 12.96432,10.4995 13.46044,13.30325 0.38783,2.19168 -0.81742,6.03257 -2.40137,7.65267 -1.60388,1.6405 -7.54928,4.35255 -9.23759,4.21384 -1.57102,-0.12908 -6.08418,2.21745 -10.08097,5.2414 -1.35202,1.02293 -2.96037,1.81862 -3.5741,1.76819 -0.61373,-0.0504 -1.77921,0.83001 -2.58996,1.95654 -2.05071,2.84939 -9.03984,8.45432 -11.87714,9.52488 -1.4323,0.54042 -2.61561,1.54208 -3.01055,2.5484 -0.35789,0.91191 -4.55831,5.19915 -9.33426,9.52719 -4.77595,4.32806 -9.15348,8.54778 -9.72781,9.37715 -0.57436,0.82939 -1.40912,1.47799 -1.85502,1.44135 -0.44592,-0.0366 -2.54884,1.83129 -4.67317,4.15094 -4.07903,4.4541 -7.09022,6.67137 -8.9353,6.57945 -0.61314,-0.0306 -1.31692,0.47427 -1.56396,1.12182 -0.24706,0.64754 -2.02254,2.68309 -3.94551,4.52346 -1.92299,1.84036 -5.6649,5.70123 -8.31538,8.5797 -2.65049,2.87847 -5.73306,5.72143 -6.85016,6.31769 -3.67503,1.96161 -7.18583,4.82893 -7.55058,6.16667 -0.3318,1.21695 -7.43633,8.13063 -17.57393,17.10189 -2.31221,2.0462 -5.31745,5.08698 -6.678323,6.7573 -1.360842,1.67032 -5.340417,5.39864 -8.843473,8.28515 -8.00649,6.59732 -8.238367,7.01096 -5.408956,9.64844 2.084263,1.94286 2.338921,2.01953 6.64899,2.00187 3.090846,-0.0127 5.420313,-0.44982 7.506037,-1.40853 1.663374,-0.76459 3.868745,-1.74003 4.900825,-2.16764 1.03207,-0.42759 2.5284,-1.31306 3.32515,-1.9677 0.91405,-0.75099 3.07547,-1.33069 5.85683,-1.5708 3.16446,-0.27318 5.04994,-0.8361 6.68289,-1.99515 1.25108,-0.88803 3.68209,-2.14583 5.40222,-2.79514 1.72013,-0.64931 3.61495,-1.57299 4.2107,-2.05261 0.79539,-0.64036 1.8263,-0.70912 3.8802,-0.25884 3.6457,0.79924 6.92746,-0.63255 9.94174,-4.33747 1.44384,-1.77466 3.04939,-2.94616 4.60241,-3.35815 1.31177,-0.34801 3.47892,-1.24743 4.81588,-1.99872 3.65498,-2.05392 13.24413,-6.07012 18.39981,-7.70635 2.51215,-0.79726 4.7102,-1.66864 4.88456,-1.93641 0.17434,-0.26777 0.93872,-0.43577 1.69863,-0.37334 0.7599,0.0625 2.46582,-0.53412 3.79093,-1.32568 1.76312,-1.05321 3.24794,-1.38295 5.53607,-1.22947 2.75402,0.18482 3.32297,0.45704 4.77281,2.28437 0.90532,1.14103 2.34975,2.34026 3.2098,2.66493 1.96447,0.74159 5.69042,3.37839 6.80993,4.81928 0.46711,0.60123 1.1748,1.11987 1.57264,1.15255 1.13613,0.0933 8.50601,8.42856 8.50601,9.62015 0,3.0309 -1.66122,6.80655 -3.61102,8.20722 -2.06927,1.4865 -7.11903,5.39908 -13.37404,10.36228 -1.83908,1.45927 -3.95408,3.11508 -4.70003,3.67959 -0.81469,0.61656 -1.65756,2.37532 -2.11086,4.40465 -0.79305,3.55029 -1.97265,14.87177 -1.93857,18.60581 0.0111,1.205 -0.0305,4.57929 -0.0922,7.49845 -0.34682,16.40625 0.44325,21.65406 3.54653,23.55669 0.72922,0.4471 3.2851,2.75843 5.67974,5.13631 2.39463,2.37789 4.59875,4.34354 4.89802,4.36813 0.29927,0.0245 2.02835,1.15183 3.84239,2.50496 1.81403,1.35315 3.52637,2.479 3.80518,2.50191 0.27882,0.0229 2.5706,2.32228 5.09287,5.10972 2.52227,2.78743 4.86185,5.09073 5.19905,5.11843 0.33723,0.0277 1.71399,1.87229 3.05951,4.09906 2.66096,4.40385 2.69721,6.07213 0.20219,9.30449 -0.62428,0.80878 -1.59214,2.59152 -2.15079,3.96161 -1.25459,3.07693 -22.08086,22.36301 -31.37036,29.05042 -3.40758,2.45307 -6.73714,5.10409 -7.39903,5.89116 -1.03403,1.2296 -5.31384,3.25798 -8.6844,4.11589 -1.05484,0.2685 -1.88949,2.92542 -1.23928,3.94496 0.82695,1.29662 4.36762,2.94193 8.70859,4.04674 3.76711,0.95878 4.98945,1.05058 6.88054,0.51679 4.63107,-1.30721 26.93282,0.15286 28.74319,1.88179 1.40766,1.34435 5.40695,2.37257 6.83607,1.75756 0.61766,-0.26582 1.94311,-0.80058 2.94545,-1.1884 1.19385,-0.46191 2.23392,-1.6422 3.01537,-3.42186 2.30681,-5.25358 3.32025,-6.81442 6.22425,-9.58623 4.57848,-4.37009 7.71374,-3.48623 14.72484,4.1511 2.14186,2.33318 4.74552,4.91822 5.78589,5.74451 1.04039,0.8263 1.89161,1.8667 1.89161,2.31201 0,0.44531 0.84441,1.9416 1.8765,3.32511 1.03207,1.3835 1.87651,2.88543 1.87651,3.33765 0,0.80812 5.02356,5.04806 6.0843,5.13522 1.02059,0.0839 9.13122,6.39086 12.6276,9.81949 3.95593,3.87925 3.79762,3.73375 10.00081,9.19284 3.60664,3.17402 4.89934,4.77641 6.07408,7.52926 0.8208,1.9234 1.49237,3.91572 1.49237,4.42737 0,2.09296 -1.66598,5.89929 -3.44606,7.87329 -1.73793,1.92728 -2.23211,2.10097 -5.94881,2.09087 -5.03729,-0.0137 -8.75238,-1.28335 -11.51419,-3.93517 -1.17015,-1.12355 -2.36274,-1.99287 -2.65018,-1.93181 -1.13998,0.24219 -4.53129,-1.71718 -5.18743,-2.99709 -0.38279,-0.7467 -1.07383,-1.38868 -1.53563,-1.42662 -0.46181,-0.0379 -1.19007,-0.51999 -1.61834,-1.07121 -0.42828,-0.55123 -1.20964,-1.03766 -1.73637,-1.08094 -0.52672,-0.0432 -2.39222,-0.87252 -4.14555,-1.84274 -1.79203,-0.99167 -5.10504,-2.11814 -7.56639,-2.57269 -2.40819,-0.44474 -5.33865,-1.28077 -6.51215,-1.85785 -1.17349,-0.57709 -2.58087,-0.95097 -3.12752,-0.83086 -1.78195,0.39155 -6.5492,-0.13571 -10.06367,-1.11303 -6.34928,-1.76564 -17.85236,-2.43484 -23.45634,-1.36456 -2.75222,0.52563 -7.25584,0.92742 -10.00805,0.89288 -2.75221,-0.0345 -5.86716,0.25068 -6.92211,0.63385 -1.05494,0.38318 -3.59094,0.67436 -5.63555,0.64706 -2.04462,-0.0273 -5.12214,0.39638 -6.83896,0.94151 -3.88329,1.23303 -8.48377,1.97249 -10.99037,1.76653 -1.04975,-0.0862 -2.48293,0.10338 -3.18481,0.42131 -0.96251,0.43604 -2.39436,0.22293 -5.82553,-0.86701 l -4.54936,-1.44515 -2.48747,2.2831 c -1.36813,1.2557 -3.16138,2.39121 -3.98503,2.52333 -3.05709,0.49044 -8.10277,2.1177 -9.16139,2.95463 -1.49722,1.18368 -4.87118,2.32448 -8.52688,2.88309 -1.68037,0.25676 -4.16746,0.99519 -5.52687,1.64098 -1.35941,0.64575 -3.33367,1.58082 -4.38724,2.0779 -6.4694,3.05227 -12.25249,6.33557 -14.00708,7.95239 -1.11401,1.02654 -2.44501,1.83199 -2.95775,1.78985 -0.51275,-0.0421 -1.736054,0.5337 -2.718455,1.27962 -0.982422,0.74592 -3.466925,2.06036 -5.521159,2.92097 -4.856539,2.03464 -13.307293,1.99002 -16.664652,-0.088 z m 61.602935,-94.626 c 2.91731,-0.0375 4.37543,-0.33958 4.62021,-0.95738 0.19672,-0.49647 0.98783,-1.09048 1.75804,-1.32002 0.92312,-0.27513 1.53544,-1.12632 1.79674,-2.49769 0.24621,-1.2922 1.36168,-2.93571 2.94438,-4.33816 1.40142,-1.24178 2.97872,-3.04373 3.50512,-4.00433 0.97795,-1.78465 2.6317,-9.71656 2.671,-12.81107 0.0264,-2.08433 -0.77151,-2.21998 -5.71524,-0.97147 -4.98244,1.2583 -5.93608,1.77472 -9.53357,5.16263 -1.74994,1.64801 -4.3076,3.64112 -5.6837,4.42913 -5.63814,3.22868 -5.52929,3.05508 -5.91608,9.43542 -0.30825,5.08475 -0.20956,5.96524 0.78978,7.04669 0.76011,0.82257 1.70363,1.17652 2.82142,1.05842 0.92365,-0.0976 3.59752,-0.20207 5.9419,-0.23217 z m 100.154,-106.22196 c -0.9184,-1.27954 -2.02034,-2.35526 -2.44877,-2.39046 -1.16334,-0.0955 -4.26188,-5.14378 -5.21657,-8.49895 -1.59988,-5.62265 -1.63884,-11.54503 -0.10613,-16.13128 0.76345,-2.28438 2.01994,-5.22741 2.79225,-6.54006 2.47265,-4.2027 2.45101,-5.17363 -0.28191,-12.65048 -1.38339,-3.78474 -2.51523,-7.40781 -2.51523,-8.05131 0,-0.64351 -0.45625,-2.08978 -1.01389,-3.21393 -1.12815,-2.2743 -0.92562,-7.12831 0.41531,-9.95392 1.57187,-3.31224 7.34539,-4.05347 11.1376,-1.42991 1.1521,0.79706 3.32425,1.96765 4.82701,2.60132 3.37191,1.42184 11.17018,9.81064 12.2298,13.15592 0.39158,1.23627 2.01293,3.64008 3.60301,5.34179 1.59008,1.70175 3.96141,4.60213 5.26961,6.44535 1.30821,1.84322 3.32945,4.46754 4.49163,5.83184 3.28899,3.86096 4.70162,6.79198 4.70162,9.75524 0,1.47112 -0.2013,2.85952 -0.44734,3.08533 -0.24603,0.22583 -0.73862,1.20514 -1.09463,2.17627 -0.76037,2.0741 -7.21541,8.43128 -9.62552,9.47956 -0.91883,0.39965 -3.13696,2.18165 -4.92916,3.96002 -1.79221,1.77837 -3.70559,3.19666 -4.25195,3.15177 -0.54636,-0.0449 -2.52068,1.23733 -4.38737,2.84939 -2.49148,2.15164 -4.10322,3.00994 -6.06121,3.22778 -4.55117,0.50633 -5.31501,0.26912 -7.08816,-2.20128 z"
       id="path4149" />
    <path
       style="fill:#040404"
       d="m 450.44602,935.66648 c -6.84676,-2.82149 -8.18487,-3.75092 -11.34496,-7.88003 -2.71126,-3.54262 -3.02654,-3.76204 -5.79389,-4.03197 -2.17281,-0.21197 -3.63972,-0.83259 -5.69546,-2.40978 -3.08983,-2.37056 -4.03616,-4.09386 -4.93542,-8.98768 -0.56148,-3.05557 -0.47138,-3.62935 1.04484,-6.65489 2.40001,-4.78905 3.96454,-5.86782 8.36302,-5.76649 3.49845,0.0806 3.72375,-0.018 5.50132,-2.40878 1.01943,-1.37106 1.86,-2.79388 1.86794,-3.16183 0.008,-0.36796 0.88441,-1.85148 1.9477,-3.29673 1.0633,-1.44523 1.93798,-2.84598 1.94374,-3.1128 0.006,-0.2668 0.73269,-1.09354 1.61542,-1.83717 0.88271,-0.74363 2.54227,-2.70174 3.68791,-4.35136 1.14562,-1.64962 4.03469,-5.3394 6.42011,-8.19949 2.38543,-2.86011 4.34826,-5.71513 4.36186,-6.34448 0.0136,-0.62936 0.64757,-2.1154 1.40884,-3.30233 1.99915,-3.11695 2.52361,-9.65569 1.04895,-13.0775 -0.71142,-1.65076 -1.59751,-2.69557 -2.44877,-2.88736 -0.73366,-0.16527 -3.70622,0.67475 -6.60564,1.86677 -3.94989,1.62389 -6.05478,2.11589 -8.39479,1.96226 -4.83556,-0.31747 -10.13145,-1.50032 -12.12234,-2.70752 -2.63664,-1.59876 -5.80584,-1.68654 -7.26487,-0.2012 -2.75748,2.80722 -7.16234,3.17999 -11.1479,0.94341 -2.80883,-1.57619 -3.70708,-3.78601 -4.22203,-10.38667 -0.32469,-4.16178 -0.27679,-4.34647 1.64118,-6.3295 1.58382,-1.63753 1.98773,-2.60285 2.03663,-4.86735 0.0402,-1.86294 0.60996,-3.70846 1.67328,-5.42026 0.88675,-1.42755 1.64434,-3.29787 1.68356,-4.15626 0.11792,-2.58349 2.15315,-5.6114 4.50061,-6.69604 1.21624,-0.56197 2.7842,-1.48161 3.4844,-2.04366 1.91782,-1.53942 8.84077,-3.85408 12.91606,-4.3184 1.44662,-0.16482 3.81551,-1.53342 6.95001,-4.01529 9.29139,-7.35683 10.84267,-8.88501 10.8823,-10.72042 0.0378,-1.74971 3.0925,-7.86577 6.1546,-12.32254 0.91853,-1.33689 1.67726,-2.76446 1.68606,-3.17238 0.0208,-0.9638 17.83916,-16.64381 22.10951,-19.45622 1.80604,-1.18944 3.45347,-2.65123 3.66093,-3.24844 0.20748,-0.5972 1.53062,-1.6944 2.94034,-2.43821 2.77103,-1.46211 4.69994,-3.94809 5.28676,-6.81359 0.20339,-0.99319 1.18004,-3.71351 2.17032,-6.0452 0.99031,-2.33166 2.19692,-5.19396 2.6814,-6.36068 1.06609,-2.56735 1.26442,-6.43095 0.41853,-8.15291 -0.65306,-1.32937 -3.33507,-1.93827 -4.02405,-0.91357 -0.21967,0.32671 -0.85242,0.55709 -1.4061,0.51193 -0.55369,-0.0451 -1.45894,0.28277 -2.0117,0.7287 -1.5094,1.21768 -8.24855,4.07206 -9.42515,3.99202 -0.56625,-0.0396 -1.74393,0.42312 -2.61702,1.02586 -0.87308,0.60274 -1.84642,1.08104 -2.16296,1.06288 -0.31652,-0.0191 -1.02759,0.32208 -1.58007,0.75603 -0.55252,0.43397 -2.56324,1.27828 -4.4683,1.87623 -1.90506,0.59797 -4.31475,1.39149 -5.35487,1.76336 -1.0401,0.37188 -3.14944,1.04382 -4.68743,1.4932 -1.53799,0.44937 -3.53514,1.27672 -4.43809,1.83853 -0.90297,0.56181 -4.38605,2.11495 -7.74022,3.45145 -3.35417,1.33646 -6.43719,2.8015 -6.85119,3.25561 -0.41399,0.45411 -1.23813,0.78608 -1.83138,0.73769 -0.59328,-0.0484 -2.25734,0.65955 -3.69797,1.57316 -1.44061,0.9136 -4.39981,2.38837 -6.57602,3.27724 -4.87206,1.98998 -6.41036,2.71467 -7.55971,3.56129 -0.49161,0.36213 -2.08424,0.7517 -3.53918,0.86572 -1.48019,0.116 -4.10497,1.09468 -5.95924,2.22193 -4.54336,2.76207 -9.76932,5.18027 -12.78062,5.91398 -1.38339,0.33707 -3.27873,1.10729 -4.21186,1.71161 -1.21676,0.78798 -2.65557,1.0119 -5.08717,0.79168 -3.25149,-0.2944 -8.16759,-1.76916 -9.45884,-2.83735 -0.338,-0.2796 -2.01508,-0.82445 -3.72687,-1.21076 -1.71179,-0.38632 -3.52636,-1.08179 -4.03239,-1.54546 -0.50602,-0.46366 -1.33752,-1.06284 -1.84774,-1.33149 -0.51026,-0.26865 -2.03636,-1.28784 -3.39136,-2.26489 -1.35501,-0.97704 -2.88114,-1.99522 -3.39141,-2.26264 -0.51025,-0.26741 -1.78309,-1.21115 -2.8285,-2.0972 -1.04543,-0.88606 -2.2619,-1.64045 -2.7033,-1.67645 -1.38055,-0.11258 -10.38234,-11.03398 -10.94881,-13.28364 -0.402,-1.5965 -0.20308,-2.99635 0.8362,-5.88456 1.73283,-4.81565 3.28249,-6.43199 4.99182,-5.20666 0.66915,0.47967 1.63327,0.9061 2.14248,0.94763 1.65482,0.13495 6.13376,3.16752 9.67467,6.55043 5.37484,5.13501 11.45278,6.59586 16.9975,4.0854 1.72462,-0.78086 4.35939,-1.40192 5.85504,-1.38015 1.49565,0.0218 3.62434,-0.32472 4.7304,-0.76996 1.10607,-0.44527 3.99461,-1.42314 6.41901,-2.17302 2.42438,-0.7499 4.67987,-1.57258 5.01222,-1.82818 0.33234,-0.25559 1.33481,-0.40515 2.22771,-0.33233 0.89289,0.0729 1.89582,-0.0976 2.22871,-0.37885 0.3329,-0.28117 1.87595,-0.69803 3.42899,-0.92637 3.26688,-0.48028 7.99484,-1.69848 9.58378,-2.46929 0.6037,-0.29288 1.41558,-0.50656 1.80418,-0.47487 0.38859,0.0317 1.7319,-0.74538 2.98513,-1.72683 1.25322,-0.98145 3.56915,-2.22939 5.14648,-2.77324 5.67458,-1.95647 8.1523,-3.02812 8.36754,-3.61905 0.12044,-0.33069 1.30178,-0.64737 2.62518,-0.70373 1.32341,-0.0564 2.92507,-0.33566 3.55927,-0.62063 0.63419,-0.28498 1.86218,-0.46035 2.72885,-0.38966 1.45603,0.11873 15.22604,-5.3695 17.29395,-6.89276 1.44813,-1.0667 5.27844,-1.89908 7.82895,-1.70133 1.60455,0.1242 2.70072,-0.20158 3.4625,-1.02963 1.77689,-1.93149 4.5428,-2.87952 6.65573,-2.28129 1.51356,0.42853 2.25263,0.22645 3.68817,-1.00871 2.65007,-2.28002 2.34977,-5.27663 -0.89374,-8.91877 -0.75876,-0.85202 -1.82298,-2.63064 -2.36497,-3.95249 -3.39353,-8.27665 -6.95313,-13.96733 -9.50528,-15.19594 -1.12636,-0.54226 -3.16045,-1.60639 -4.52019,-2.36478 -1.35972,-0.75838 -2.94754,-1.56281 -3.52846,-1.78759 -1.10723,-0.42845 -3.51763,-5.21556 -3.47168,-6.89483 0.0149,-0.53717 -0.83159,-1.76761 -1.88067,-2.73429 -1.46928,-1.35388 -1.96444,-2.40175 -2.1558,-4.56203 -0.21517,-2.42929 -0.0244,-2.99205 1.42626,-4.2069 1.50969,-1.2643 2.1665,-1.35419 6.6669,-0.91239 3.64618,0.35792 5.70586,0.89864 7.63901,2.00533 1.48788,0.85179 3.88934,1.61659 5.48454,1.74668 1.99725,0.16287 3.50904,0.75013 5.10425,1.98276 1.24658,0.96324 2.49459,1.76994 2.77338,1.79267 0.27877,0.0228 1.72112,1.08412 3.20517,2.35862 1.48406,1.2745 3.75354,2.60134 5.04326,2.94851 2.28006,0.61378 9.32785,5.19541 11.92461,7.75199 1.52641,1.50279 2.63668,5.22366 2.56796,8.60613 -0.0608,3.01929 1.74886,5.50637 5.16055,7.0903 3.5851,1.66444 14.53918,1.49715 17.53254,-0.26775 1.6117,-0.95027 3.67127,-1.26301 9.03893,-1.37249 3.82339,-0.078 7.49682,-0.3868 8.16316,-0.68623 0.66633,-0.29944 1.89011,-0.48909 2.71949,-0.42146 0.82937,0.0677 3.3824,-0.71108 5.67341,-1.73045 2.291,-1.01939 4.5101,-1.82532 4.93133,-1.79097 0.42124,0.0344 1.21755,-0.27484 1.76957,-0.68711 1.48545,-1.10936 8.39535,-2.24374 10.13621,-1.66404 0.83045,0.27652 2.20204,1.03915 3.04794,1.69474 0.84592,0.65555 2.25218,1.42386 3.12506,1.7073 0.87288,0.28347 2.8177,1.46495 4.32182,2.62553 1.50413,1.16059 3.02376,2.13885 3.37698,2.17392 0.3532,0.0355 2.35205,1.97314 4.44188,4.30678 3.75145,4.1891 3.79872,4.28755 3.72395,7.75001 -0.0712,3.29822 -0.22744,3.62959 -2.62401,5.56526 -1.40155,1.13202 -2.92536,2.02745 -3.38628,1.98987 -0.46095,-0.0376 -1.35363,0.44806 -1.98389,1.07918 -0.63025,0.63113 -2.08798,1.24733 -3.23947,1.36933 -1.15148,0.122 -3.59277,0.91058 -5.42512,1.75237 -1.83232,0.84181 -3.91056,1.7407 -4.61829,1.99754 -0.70774,0.25683 -1.66823,0.88534 -2.1344,1.3967 -1.54667,1.69655 -9.20854,6.36884 -13.20651,8.05345 -2.43898,1.02772 -4.91294,2.71026 -6.49568,4.41773 -1.40601,1.5168 -4.05684,3.5778 -5.89073,4.58001 -1.83391,1.0022 -4.13386,2.85489 -5.11102,4.11712 -0.97715,1.26224 -2.41099,2.4871 -3.18629,2.72195 -0.77532,0.23486 -2.12866,1.13654 -3.00745,2.00374 -0.87881,0.86722 -3.4507,2.65484 -5.71532,3.97249 -2.26463,1.31765 -5.55938,3.99295 -7.32167,5.9451 -1.76229,1.95212 -4.11908,4.11042 -5.2373,4.79619 -2.54913,1.56329 -13.10448,10.17763 -18.76189,15.31179 -2.352,2.13447 -4.57041,3.85687 -4.92981,3.82756 -0.35939,-0.0293 -3.16547,2.02087 -6.23574,4.55595 -3.07025,2.53509 -6.61314,5.05411 -7.87307,5.59782 -1.25995,0.54369 -3.49122,2.24181 -4.95836,3.77357 -1.46715,1.53177 -3.62242,3.41211 -4.78949,4.1785 -1.16706,0.76642 -3.92026,3.15911 -6.11822,5.31709 l -3.99628,3.92362 1.46044,1.72534 c 1.35399,1.59954 1.73423,1.71819 5.21558,1.6275 2.06533,-0.0539 5.02188,-0.1026 6.57013,-0.10846 3.91405,-0.0148 7.07074,-0.42672 7.93769,-1.03578 0.40326,-0.28329 1.46059,-0.27155 2.34964,0.0261 2.11981,0.7097 4.10052,-0.40143 8.94461,-5.01771 l 3.85633,-3.67493 4.35205,0.11637 c 3.72089,0.0995 4.75476,0.37335 7.12858,1.88788 1.52708,0.97433 3.21158,2.20191 3.74335,2.72795 0.53177,0.52605 1.13483,0.97015 1.34016,0.9869 0.20531,0.0167 2.46439,1.61082 5.02016,3.54241 2.55579,1.93158 4.89702,3.53236 5.20275,3.55729 1.04425,0.0851 3.58469,5.03676 3.87176,7.54644 0.15759,1.37777 0.46966,3.31892 0.6935,4.31365 0.80146,3.56189 -1.28446,7.54429 -8.15559,15.5705 -2.13562,2.49464 -3.88836,4.78652 -3.89498,5.0931 -0.007,0.30658 -0.69375,0.9438 -1.52696,1.41606 -0.83321,0.47226 -3.47358,3.46155 -5.86749,6.64288 -4.27562,5.68192 -12.03853,13.30183 -14.62024,14.35087 -0.72139,0.29312 -2.13193,1.99553 -3.13449,3.78311 -1.00258,1.7876 -3.85608,5.42796 -6.34114,8.08971 -4.71918,5.05476 -5.03153,5.98001 -3.02942,8.97396 1.23727,1.85019 14.63376,4.07542 17.51964,2.91011 4.83371,-1.95185 6.51213,-1.83376 15.76811,1.10942 0.73893,0.23498 2.46078,1.96584 3.82633,3.84637 2.07986,2.86424 2.47289,3.87826 2.4217,6.24828 -0.0541,2.50305 -0.35745,3.07416 -2.63235,4.95494 -1.41418,1.16919 -3.90983,2.68468 -5.54586,3.36777 -1.63605,0.68308 -4.50131,2.45681 -6.36724,3.94165 -1.86592,1.48484 -3.75101,2.67049 -4.18909,2.63477 -0.43807,-0.0357 -2.09323,0.80677 -3.67815,1.87222 -1.5849,1.06543 -3.97398,2.2896 -5.30909,2.72032 -1.36744,0.44118 -3.25115,1.79928 -4.3138,3.11012 -1.03749,1.27984 -2.37348,2.44135 -2.96884,2.58114 -0.59537,0.13978 -2.32371,1.12639 -3.84077,2.19247 -1.51705,1.06609 -3.26853,1.89946 -3.89218,1.85194 -1.52788,-0.11684 -3.40837,0.76929 -6.33101,2.98188 -1.34101,1.01521 -4.04379,2.3464 -6.00615,2.95817 -1.96238,0.61177 -4.14779,1.57398 -4.85648,2.13825 -0.70869,0.56424 -2.32896,1.07021 -3.60064,1.12437 -1.27164,0.0542 -2.95528,0.49136 -3.74141,0.97157 -1.91425,1.16933 -4.2973,0.81164 -9.85722,-1.4796 z m 137.07444,7.2446 c -1.54692,-0.79103 -5.13306,-5.40683 -5.10784,-6.57443 0.01,-0.44976 -0.3569,-1.47281 -0.81469,-2.27344 -0.45779,-0.80062 -0.96401,-2.97662 -1.12495,-4.83557 -0.16093,-1.85893 -0.60316,-3.79076 -0.98271,-4.29294 -0.37955,-0.50218 -0.74516,-3.64735 -0.81245,-6.98924 -0.12354,-6.13518 -0.64305,-7.7936 -2.49665,-7.97018 -0.55879,-0.0522 -1.70652,-0.7045 -2.55053,-1.44727 -0.84403,-0.74276 -1.83511,-1.38126 -2.20241,-1.41887 -0.36732,-0.0366 -1.7532,-1.07333 -3.0798,-2.30156 -4.66144,-4.31582 -9.40628,-7.52246 -12.78382,-8.63946 -1.95212,-0.64561 -7.18919,-5.71774 -7.16285,-6.93728 0.009,-0.43291 -0.38533,-1.62756 -0.87707,-2.65479 -1.17654,-2.45777 -1.06956,-4.46664 0.39416,-7.40209 1.86008,-3.73041 3.34953,-4.58977 7.50668,-4.33108 3.20572,0.19951 3.94169,0.50228 6.67595,2.74642 1.98062,1.62558 4.10141,2.75543 5.96589,3.17833 2.47768,0.56199 3.11966,1.03023 4.4733,3.2627 1.47883,2.43891 1.7747,2.62238 4.60064,2.85283 3.26597,0.26634 6.55544,2.00936 11.40435,6.04295 1.53425,1.27627 5.23099,4.31662 8.21505,6.75635 2.984,2.43973 6.42988,5.57223 7.65733,6.96115 1.22751,1.3889 3.61297,3.45203 5.30095,4.58471 3.38737,2.273 8.32847,7.96084 9.26897,10.66967 0.86546,2.49279 0.62396,7.69978 -0.44484,9.59178 -0.50254,0.88965 -1.58548,2.15863 -2.40654,2.81995 -1.77757,1.43185 -8.50683,4.56148 -9.61384,4.4712 -0.42833,-0.0349 -2.47019,0.82072 -4.53742,1.90145 -5.35452,2.79928 -11.498,3.74585 -14.46486,2.22871 z"
       id="path4149-0" />
    <path
       style="fill:#040404"
       d="m 779.66156,960.33711 c -1.34913,-0.3846 -2.75652,-0.95173 -3.1275,-1.26016 -0.37099,-0.30852 -1.42202,-0.77697 -2.33563,-1.04102 -3.18306,-0.92016 -11.54141,-7.57181 -12.97738,-10.3275 -0.37748,-0.72444 -0.68629,-1.80608 -0.68629,-2.40378 0,-0.5976 -1.22435,-2.32165 -2.72087,-3.83124 -2.31193,-2.33222 -2.78631,-3.24175 -3.1566,-6.05206 -0.47639,-3.61484 0.1707,-5.03864 2.24217,-4.93382 0.66855,0.0338 1.75504,-0.19992 2.41438,-0.51948 0.92556,-0.44844 1.92618,-0.17561 4.3889,1.19695 3.30028,1.83942 5.28194,2.12878 12.78234,1.86678 2.06416,-0.0721 5.72334,-0.0974 8.13153,-0.0564 2.40819,0.0411 5.22295,-0.21424 6.25504,-0.56705 1.03207,-0.35292 3.15066,-0.74611 4.7079,-0.87377 1.55725,-0.12765 3.57243,-0.57913 4.47822,-1.00324 0.90579,-0.42401 3.07942,-0.89557 4.83032,-1.04777 1.75092,-0.1522 3.34113,-0.52388 3.53384,-0.82586 0.19272,-0.30208 0.78383,-0.52728 1.31356,-0.50047 0.97509,0.0493 4.06295,-1.00126 7.30544,-2.48557 0.97609,-0.44682 4.49454,-0.99239 7.81877,-1.21235 3.32424,-0.21996 6.67744,-0.75948 7.45149,-1.19895 2.19152,-1.24396 1.80308,-3.71923 -1.14736,-7.31076 -2.19301,-2.66952 -2.87067,-3.11632 -4.88042,-3.21802 -1.28359,-0.0649 -2.88012,-0.55908 -3.54797,-1.09797 -0.66779,-0.5389 -2.05897,-1.03151 -3.09155,-1.0947 -2.71455,-0.16601 -9.27427,-6.19648 -10.69704,-9.83386 -1.2946,-3.30986 -4.33078,-5.95858 -6.98398,-6.09283 -1.40406,-0.0711 -2.32073,-0.62888 -3.38121,-2.05785 -0.80027,-1.0783 -2.12271,-2.84512 -2.9388,-3.92647 -1.20786,-1.60047 -1.75849,-3.80738 -2.96114,-11.86776 -1.79738,-12.047 -1.83841,-14.61713 -0.30224,-18.93366 0.65728,-1.84694 1.39224,-4.68022 1.63312,-6.2962 0.4034,-2.70564 0.32126,-2.98933 -1.03871,-3.58625 -0.81221,-0.35651 -2.30347,-1.56279 -3.3139,-2.68065 -1.01044,-1.11777 -2.06354,-2.04381 -2.3402,-2.05781 -0.48527,-0.0245 -3.26113,-2.1834 -8.17632,-6.35871 -1.29011,-1.09593 -2.34564,-2.50369 -2.34564,-3.12827 0,-0.62469 -0.27572,-1.66491 -0.61268,-2.31166 -0.33703,-0.64675 -0.74741,-2.4082 -0.91205,-3.91437 -0.16463,-1.50628 -1.29628,-5.67827 -2.51483,-9.27116 -1.67565,-4.94096 -2.2171,-7.55913 -2.2221,-10.74601 -0.007,-3.97462 -0.12853,-4.33798 -2.15654,-6.41093 -2.36966,-2.42217 -3.87086,-7.5738 -3.24305,-11.12887 0.88221,-4.99531 1.2557,-6.03883 2.35159,-6.56986 1.81288,-0.8785 7.22392,0.37971 9.81789,2.28296 1.26858,0.93077 3.77084,2.44066 5.56052,3.35529 2.78606,1.42382 3.59558,1.58722 5.62952,1.13629 3.91522,-0.86802 12.25562,-4.28698 12.81123,-5.25166 0.28493,-0.49475 1.40664,-1.04975 2.4927,-1.23332 1.08607,-0.18357 4.72811,-1.99268 8.09344,-4.02024 3.36527,-2.02756 6.80666,-3.91318 7.64741,-4.1903 0.84079,-0.27711 2.47473,-1.26125 3.63103,-2.18697 3.07536,-2.46206 5.03268,-3.48359 7.85901,-4.10163 1.3838,-0.30259 3.51269,-1.17609 4.7308,-1.94108 1.90084,-1.19375 5.42649,-2.1563 14.54739,-3.97162 1.0402,-0.20703 2.50725,-0.67492 3.26017,-1.03978 1.97078,-0.95499 15.11565,-0.0512 16.72401,1.14985 0.67859,0.50677 1.70912,0.94544 2.29002,0.97484 0.58091,0.0294 1.8012,0.9765 2.71175,2.10465 0.91047,1.12817 3.24222,2.95477 5.1816,4.05913 1.93936,1.10433 4.88924,3.21814 6.55526,4.69735 8.32982,7.39561 9.55644,15.07947 3.60447,22.57857 -0.91881,1.15759 -2.02257,2.74827 -2.45292,3.53484 -1.60935,2.94165 -11.58943,12.82571 -13.7523,13.61998 -1.20809,0.44363 -4.03687,2.63028 -6.28611,4.8592 -4.7597,4.71667 -13.77326,12.06663 -16.18325,13.19649 -0.91706,0.42999 -2.2799,1.58301 -3.0285,2.56239 -1.74941,2.28871 -8.87246,7.02009 -10.84278,7.20227 -1.3863,0.12813 -1.94807,0.83538 -3.74795,4.71841 -0.23375,0.5042 -1.28597,1.29529 -2.33837,1.75809 -1.05236,0.46278 -3.18282,2.46605 -4.73438,4.4517 -1.55149,1.98566 -3.69078,4.07475 -4.75389,4.64247 -1.06309,0.56771 -1.93292,1.39482 -1.93292,1.83808 0,0.44328 -0.56501,1.28876 -1.25564,1.8788 -0.69061,0.59005 -1.70024,1.91957 -2.24354,2.95451 -1.01801,1.93916 -2.75585,7.77657 -2.75585,9.25693 0,1.46002 2.90396,2.95538 6.81072,3.50722 3.05015,0.43083 4.23929,0.31271 6.13926,-0.60928 1.29597,-0.62902 2.94392,-1.11399 3.66205,-1.07765 0.91613,0.0463 1.71227,-0.72712 2.66765,-2.59188 0.74905,-1.46189 1.36191,-3.0205 1.36191,-3.46347 0,-0.44306 0.61337,-2.45666 1.36304,-4.47471 1.3856,-3.73014 3.75739,-5.8878 6.33464,-5.7627 0.62144,0.0314 1.88809,-0.73499 2.81477,-1.70025 1.94687,-2.02799 5.47427,-2.84866 11.11476,-2.58592 3.21319,0.14933 4.01808,0.4198 5.20961,1.74849 0.861,0.95996 2.45478,1.7811 4.09642,2.11028 2.37997,0.47734 3.37534,1.28435 8.7078,7.05997 7.45832,8.07809 7.60568,8.84392 2.90034,15.0751 -1.781,2.35854 -3.90239,4.41653 -4.94228,4.79462 -2.10889,0.76684 -4.13983,2.7129 -4.6787,4.48315 -0.2063,0.67761 -0.65334,3.90986 -0.99342,7.18291 -0.3401,3.27302 -1.04811,6.95771 -1.57333,8.18818 -1.06361,2.49164 -1.29754,9.48067 -0.33884,10.12167 0.33896,0.22667 4.36032,0.65789 8.93649,0.95825 7.38975,0.48526 8.52748,0.41726 10.17369,-0.60331 5.71471,-3.5446 6.8944,-3.87931 11.16327,-3.16789 2.02576,0.33769 4.57594,1.18577 5.66707,1.88477 1.60798,1.03016 2.39123,1.17477 4.13295,0.76341 2.90783,-0.68684 5.16057,-0.51378 6.93343,0.53239 3.68465,2.17448 6.84813,4.67685 7.79002,6.16194 0.56432,0.88985 1.41125,1.63732 1.88213,1.66115 0.80046,0.0405 12.78891,10.61694 14.57221,12.85597 1.60712,2.01785 1.51566,6.37948 -0.20834,9.93653 -1.64659,3.39712 -2.93619,4.81304 -4.94173,5.42557 -1.11728,0.34125 -7.60117,-1.52322 -8.85837,-2.54729 -1.71569,-1.39752 -11.56648,-3.70947 -16.97076,-3.98295 -3.18243,-0.16104 -5.93771,-0.54555 -6.12286,-0.85449 -0.65434,-1.09188 -6.83543,-1.58364 -8.75241,-0.69629 -1.16419,0.5388 -2.72801,0.67593 -4.33148,0.37964 -1.88033,-0.34729 -3.23998,-0.13023 -5.42274,0.8653 -2.63049,1.19987 -3.6423,1.28083 -10.42681,0.83488 -5.59956,-0.36816 -7.77856,-0.28771 -8.55375,0.31551 -0.80729,0.6284 -2.40418,0.64907 -7.1343,0.0925 -5.13243,-0.60375 -6.73585,-0.55028 -10.15998,0.33909 -2.23617,0.58082 -5.38614,0.99143 -7,0.91231 -1.6138,-0.0817 -3.08892,0.0988 -3.27794,0.39514 -0.1891,0.29633 -1.12052,0.69329 -2.06985,0.88216 -0.94927,0.18878 -3.08617,0.95625 -4.74857,1.70552 -1.6624,0.74917 -3.93767,1.31584 -5.05613,1.25925 -1.11846,-0.0566 -2.23491,0.0881 -2.48092,0.32172 -0.43335,0.41142 -2.1872,0.85925 -10.08199,2.5744 -2.06416,0.44849 -4.06288,1.04511 -4.44163,1.32593 -0.37874,0.2807 -2.0676,0.62287 -3.75302,0.76019 -1.68541,0.13742 -3.76808,0.68329 -4.62815,1.21315 -1.81027,1.11524 -10.06929,2.6931 -12.8228,2.44981 -1.03208,-0.091 -2.98041,-0.48054 -4.32956,-0.86514 z m 34.28607,-125.01029 c 5.1754,-4.60253 10.70028,-8.85296 14.30405,-11.00434 2.87456,-1.71609 6.09052,-4.95351 6.1061,-6.14693 0.0175,-1.32354 5.5741,-6.86287 9.96006,-9.92862 6.18986,-4.32671 8.16581,-6.29427 8.16581,-8.13117 0,-0.94346 0.3815,-3.18754 0.84774,-4.98687 1.04629,-4.03778 0.65341,-11.0434 -0.65113,-11.61 -0.49322,-0.21425 -1.69336,0.33336 -2.66703,1.2169 -0.97365,0.88352 -2.29384,1.50659 -2.93379,1.3846 -2.69666,-0.51411 -12.62671,5.19178 -18.49023,10.62459 -1.27309,1.17953 -2.60016,2.13014 -2.94913,2.11249 -0.69593,-0.0353 -10.05658,8.91873 -10.05939,9.62229 0,0.23982 -2.50214,2.82417 -5.55822,5.74312 -5.98626,5.71767 -6.6257,6.91114 -7.29955,13.6247 -0.36868,3.67234 -0.26097,4.37862 0.90198,5.9159 0.72627,0.96008 1.32055,2.04136 1.32055,2.40286 0,0.82174 2.52309,3.68028 3.28239,3.7187 0.30925,0.0157 2.88313,-2.0356 5.71979,-4.55822 z m -95.80713,0.79165 c -2.22917,-0.31304 -3.32336,-1.00709 -6.56777,-4.16583 -2.47274,-2.40751 -4.91983,-4.164 -6.70772,-4.81477 -1.54811,-0.56362 -3.18255,-1.54616 -3.63209,-2.18337 -0.44956,-0.63733 -1.11103,-1.17366 -1.46993,-1.19182 -1.22644,-0.062 -11.17873,-11.08886 -12.14939,-13.46106 -0.53269,-1.30183 -1.5911,-3.41978 -2.35202,-4.70653 -2.00762,-3.39497 -3.63767,-8.55161 -3.89282,-12.31469 -0.21699,-3.20101 -1.57282,-5.36092 -2.89439,-4.611 -1.48638,0.8434 -4.7901,-4.85339 -5.64991,-9.74233 -0.87702,-4.98722 -0.66084,-6.48206 1.56026,-10.78755 2.04996,-3.97367 2.15053,-4.05924 6.11784,-5.20499 3.54417,-1.02356 4.18544,-1.04964 5.28463,-0.21493 1.2131,0.9212 3.90983,2.81998 9.14435,6.43856 1.3928,0.96283 3.57468,3.18247 4.8487,4.93252 1.27397,1.75008 2.79844,3.2992 3.3878,3.44253 0.58928,0.1433 2.6849,-0.39648 4.65692,-1.19949 1.97202,-0.80302 4.85716,-1.54587 6.4114,-1.65078 5.89399,-0.39778 15.49808,-3.82232 19.26718,-6.87014 1.13003,-0.91381 2.53741,-1.63732 3.12751,-1.6078 0.5901,0.0295 2.80044,-1.61788 4.91195,-3.66085 2.11144,-2.04295 4.92621,-4.20978 6.25503,-4.81516 2.75721,-1.25621 11.27118,-6.98661 11.58812,-7.79955 0.32833,-0.84216 7.23032,-4.72451 8.30268,-4.67025 0.84536,0.0428 4.94966,-1.78481 15.61355,-6.95243 1.6854,-0.81672 3.37839,-1.46905 3.76226,-1.44963 0.38394,0.0195 1.75548,-0.47794 3.04802,-1.10527 1.37723,-0.66847 2.93241,-0.96492 3.7572,-0.71618 1.13922,0.34358 1.82159,-0.11651 3.58301,-2.41588 3.50601,-4.57672 4.03405,-5.79299 4.04344,-9.31387 0.008,-3.04737 -0.17978,-3.50341 -2.18039,-5.292 -1.20409,-1.07649 -3.17442,-2.85422 -4.37851,-3.9505 -1.2041,-1.09628 -2.67784,-2.35755 -3.27495,-2.80282 -0.83211,-0.62048 -1.12434,-1.87887 -1.251,-5.38664 -0.15294,-4.23492 -0.0481,-4.6624 1.39844,-5.71972 0.97115,-0.70966 2.03782,-0.97155 2.81476,-0.69104 4.26274,1.53902 8.44428,1.12528 8.44428,-0.83553 0,-0.4618 0.42222,-1.16869 0.93826,-1.57084 0.59767,-0.46577 0.93825,-1.83085 0.93825,-3.76027 0,-1.66599 0.40621,-4.21462 0.90267,-5.66365 0.49646,-1.449 1.096,-4.10496 1.33232,-5.90214 0.38556,-2.93239 0.25114,-3.53415 -1.31025,-5.86623 -1.72833,-2.58146 -1.73732,-2.64767 -1.3659,-10.01681 0.37193,-7.37816 0.0682,-9.5667 -1.86032,-13.41029 -0.72088,-1.43664 -0.75141,-2.68567 -0.17138,-7.01487 0.70419,-5.25594 0.70087,-5.28088 -1.56307,-11.88387 -2.41,-7.02889 -2.44791,-8.87718 -0.27297,-13.30581 0.82836,-1.68678 1.12547,-1.79433 4.62991,-1.67624 5.57979,0.18805 8.08319,1.77524 15.3023,9.70174 8.26921,9.07952 8.47256,9.9249 7.20879,29.96914 -0.5961,9.45493 -0.59817,9.95404 -0.0775,19.07391 0.76606,13.41617 2.03476,20.08856 4.21595,22.17291 0.68849,0.65791 1.17701,1.96137 1.17701,3.14046 0,2.91167 1.1782,3.71579 4.40918,3.00926 4.88973,-1.06922 9.27543,-3.3168 10.63728,-5.45133 0.71589,-1.12216 1.94037,-2.36598 2.72106,-2.76407 6.67744,-3.40502 12.61471,-8.81377 14.48514,-13.19573 1.53912,-3.60568 1.8732,-9.29036 0.65853,-11.20559 -1.28896,-2.03251 -2.88906,-2.16045 -5.18472,-0.41452 -3.13533,2.38451 -4.96461,3.21657 -8.08919,3.67923 -1.68379,0.24933 -3.95837,0.77229 -5.05463,1.16212 -2.97319,1.05727 -7.51071,-0.71268 -9.47692,-3.69665 -2.86974,-4.35527 -0.69794,-11.34017 4.72724,-15.20359 2.51452,-1.79069 7.06931,-2.22295 9.34938,-0.88728 1.48252,0.86842 1.69636,0.80916 3.08041,-0.85318 2.59704,-3.11924 8.01064,-8.03681 9.8279,-8.92736 2.73188,-1.33877 7.23895,-1.37922 10.36578,-0.0931 3.45909,1.42286 7.98454,1.66398 10.34743,0.55138 2.66371,-1.2543 7.57967,-1.29026 11.57261,-0.0847 1.9198,0.57963 5.74237,1.64692 8.49459,2.37175 6.0311,1.58836 6.7229,1.91747 10.32079,4.90991 1.54812,1.28758 5.06795,3.97199 7.82185,5.96535 6.34328,4.59151 9.06672,7.99296 9.06672,11.32404 0,4.1196 -3.79824,9.94862 -6.39695,9.8171 -0.63739,-0.0323 -2.26239,0.44849 -3.6111,1.06829 -1.3487,0.61979 -2.9453,1.10196 -3.54803,1.07145 -1.41263,-0.0715 -6.46,4.61146 -6.46,5.99356 0,1.69284 3.94604,4.88581 7.75867,6.27795 3.29402,1.2028 3.59294,1.22167 4.67738,0.29519 2.18138,-1.86376 13.20261,-0.67027 16.30992,1.76619 0.87501,0.6861 3.11744,1.6114 4.98319,2.05624 3.51978,0.83919 8.1166,3.62561 10.66013,6.46185 0.80865,0.90166 3.56105,2.80557 6.11642,4.23089 7.41264,4.13457 7.62413,4.28705 8.5824,6.18859 0.51629,1.02463 1.9403,2.29048 3.28176,2.91735 1.30329,0.60904 3.07335,2.15248 3.93342,3.42982 0.86006,1.27736 2.33781,3.37393 3.28388,4.65905 0.94608,1.2851 1.72013,2.571 1.72013,2.85754 0,0.28652 -0.69205,1.99897 -1.53792,3.80544 -1.66302,3.55151 -6.20399,7.61985 -8.38211,7.50963 -0.69587,-0.0352 -1.42909,0.1929 -1.62944,0.50691 -0.20034,0.314 -1.60728,0.69444 -3.12663,0.84538 -1.51929,0.15097 -3.24524,0.78357 -3.8354,1.40582 -0.5901,0.62226 -1.6248,1.10343 -2.29929,1.0693 -0.67448,-0.0342 -2.27632,1.0335 -3.55967,2.37251 -1.28334,1.33902 -2.93224,2.73333 -3.66412,3.09847 -0.73197,0.36515 -3.66044,1.95183 -6.5078,3.52597 -5.08059,2.80871 -6.70389,3.39414 -11.14546,4.01947 -1.49658,0.21071 -2.9916,1.13518 -4.60764,2.84923 -1.59746,1.69428 -2.90977,2.51115 -3.94968,2.45853 -0.8565,-0.0433 -2.58295,0.68159 -3.83658,1.61096 -3.9628,2.93787 -7.34284,4.25785 -8.76699,3.42362 -2.04069,-1.19543 -3.13013,-0.94587 -5.43855,1.2457 -1.20408,1.14314 -2.68015,2.05362 -3.28019,2.02326 -0.60005,-0.0304 -1.74704,0.37111 -2.54887,0.89217 -2.36246,1.53514 -7.93593,1.21571 -11.95054,-0.68502 -1.88908,-0.89436 -3.68734,-2.03945 -3.99615,-2.54464 -0.30881,-0.50517 -0.37229,-2.17043 -0.14112,-3.70057 0.34378,-2.27471 1.06637,-3.41094 3.96232,-6.23048 4.90844,-4.77887 10.08786,-8.35568 15.49426,-10.70001 1.37611,-0.59671 3.76866,-2.12171 5.31677,-3.38891 1.54812,-1.26719 3.90014,-3.05382 5.22677,-3.97029 1.32662,-0.91646 2.78812,-2.54735 3.24773,-3.62422 0.45969,-1.07685 1.30354,-2.3225 1.87533,-2.76806 1.69823,-1.32349 2.22672,-3.57744 1.77674,-7.57749 -0.26778,-2.3808 -0.85188,-4.22052 -1.58409,-4.98983 -1.35347,-1.42193 -4.45033,-1.75796 -5.46008,-0.59241 -0.44874,0.51799 -2.83953,0.84063 -6.65553,0.89818 -3.27539,0.0494 -6.49904,0.35331 -7.16357,0.67537 -0.6793,0.32916 -4.65387,0.3688 -9.07717,0.0906 -7.25928,-0.45658 -7.97954,-0.39718 -9.29798,0.77532 -0.92142,0.81903 -2.23823,1.22935 -3.70666,1.15504 -1.37868,-0.0698 -3.15911,0.43836 -4.51113,1.28746 -1.5099,0.9482 -3.57563,1.47851 -6.3755,1.63667 -2.27802,0.12868 -5.82261,0.80759 -7.87688,1.50871 -2.05428,0.7011 -6.16434,1.62733 -9.13354,2.05829 -3.44321,0.49974 -6.00545,1.25443 -7.07437,2.08364 -1.03689,0.80436 -2.98784,1.3976 -5.11662,1.55585 -1.8924,0.14066 -3.79461,0.66425 -4.22708,1.1635 -0.98229,1.13384 -5.81587,3.362 -9.75972,4.49893 -1.64438,0.47403 -4.37946,1.46104 -6.07801,2.19334 -1.69848,0.7323 -3.58181,1.30648 -4.18517,1.27595 -0.60336,-0.0305 -1.25469,0.19161 -1.44741,0.49364 -0.19272,0.30206 -1.7815,0.67359 -3.53065,0.82565 -2.07023,0.17997 -3.87119,0.82382 -5.15971,1.84461 -2.26339,1.79311 -5.43682,3.18359 -8.41451,3.68691 -1.12836,0.19073 -2.48564,0.98723 -3.01606,1.77001 -0.66409,0.97988 -2.36233,1.76387 -5.45199,2.51686 -2.46806,0.60151 -4.90964,1.32536 -5.42569,1.60854 -0.51604,0.28318 -2.13484,1.05641 -3.59739,1.71828 -1.46255,0.66186 -3.43288,2.06708 -4.37851,3.12271 -0.94565,1.05562 -2.98603,2.39747 -4.53415,2.9819 -1.54812,0.58441 -5.01246,2.64759 -7.69856,4.58482 -2.68609,1.93725 -5.84277,4.05131 -7.01489,4.69791 -1.17207,0.64661 -4.0839,2.96218 -6.47076,5.14571 -2.38686,2.18352 -4.81193,3.94615 -5.38902,3.91695 -2.13672,-0.10813 -20.96497,18.15024 -20.96497,20.3304 0,0.48503 -0.88008,2.22503 -1.95571,3.8667 -2.83089,4.32058 -2.97145,6.68319 -0.61067,10.26576 3.46841,5.26356 3.39173,10.85325 -0.20029,14.59306 -1.15136,1.19867 -2.47755,2.11081 -2.94725,2.02693 -0.46962,-0.084 -2.05752,-0.3215 -3.5287,-0.52801 z m 50.24513,-98.92011 c -0.60505,-0.69918 -1.9186,-1.49242 -2.91903,-1.76278 -1.01124,-0.27328 -2.52772,-1.45667 -3.41513,-2.66501 -0.98791,-1.34527 -2.667,-2.59255 -4.40641,-3.27322 -3.18631,-1.24693 -6.35561,-3.84764 -7.53724,-6.18499 -0.43986,-0.87008 -0.98417,-3.05093 -1.2096,-4.84633 -0.22549,-1.79538 -0.75204,-3.70387 -1.17019,-4.24108 -1.5742,-2.02252 -4.70734,-8.25418 -4.70734,-9.36265 0,-0.63436 -1.33702,-2.57855 -2.97114,-4.32042 -2.95738,-3.1524 -2.97077,-3.18572 -2.88626,-7.20801 0.0708,-3.36997 0.37055,-4.40113 1.80564,-6.20995 1.66527,-2.09903 1.8239,-2.15284 4.91914,-1.6686 7.25728,1.13536 12.62333,2.47998 14.12197,3.53864 0.87553,0.61849 2.15361,1.46204 2.84017,1.87458 1.7626,1.05906 2.79211,3.40933 2.80288,6.39851 0.0118,3.35695 1.09712,6.42896 2.57701,7.29586 0.65183,0.38185 1.18519,1.21615 1.18519,1.85398 0,2.28406 2.05227,3.73842 7.19328,5.09759 6.64253,1.75615 8.36866,2.51155 10.8117,4.73138 1.13002,1.02683 2.45716,1.88733 2.9491,1.91222 1.4555,0.0736 2.24356,2.35981 1.80309,5.2306 -0.3257,2.12259 -1.05316,3.24984 -3.60741,5.58968 -1.75973,1.61199 -3.6221,3.76485 -4.13862,4.78413 -0.71021,1.40142 -1.49008,1.9149 -3.19889,2.10617 -1.24282,0.13914 -3.03957,0.82698 -3.99278,1.52855 -2.17211,1.59867 -5.37407,1.5057 -6.84913,-0.19885 z"
       id="path4149-7" />
  </g>
</svg>
