<svg xmlns="http://www.w3.org/2000/svg" xmlns:xlink="http://www.w3.org/1999/xlink" viewBox="0 0 162.12 72.62" height="274.469" width="612.737" xmlns:v="https://vecta.io/nano"><defs><linearGradient id="A" x1="160.583" y1="611.773" x2="160.697" y2="626.741" xlink:href="#H"><stop offset="0" stop-color="#88180e"/><stop offset="1" stop-color="#520d06" stop-opacity=".976"/></linearGradient><linearGradient id="B" x1="173.604" y1="609.109" x2="174.512" y2="632.014" xlink:href="#H"><stop offset="0" stop-color="#88180e"/><stop offset="1" stop-color="#520d06" stop-opacity=".976"/></linearGradient><linearGradient id="C" x1="199.625" y1="619.366" x2="201.976" y2="609.268" xlink:href="#H"><stop offset="0" stop-color="#88180e"/><stop offset="1" stop-color="#b01f12" stop-opacity=".992"/></linearGradient><linearGradient id="D" x1="194.973" y1="598.55" x2="182.625" y2="645.696" xlink:href="#H"><stop offset="0" stop-color="#9a271d"/><stop offset="1" stop-color="#862219" stop-opacity=".992"/></linearGradient><linearGradient id="E" x1="193.496" y1="616.9" x2="200.072" y2="581.063" xlink:href="#H"><stop offset="0" stop-color="#d83b30" stop-opacity=".992"/><stop offset=".423" stop-color="#b92319" stop-opacity=".373"/><stop offset="1" stop-color="#e76459" stop-opacity="0"/></linearGradient><linearGradient id="F" x1="206.299" y1="583.709" x2="206.299" y2="592.629" xlink:href="#H"><stop offset="0" stop-color="#ffb4ad"/><stop offset="1" stop-color="#ffb4ad" stop-opacity="0"/></linearGradient><filter id="G" x="0" width="1" y="0" height="1" color-interpolation-filters="sRGB"><feGaussianBlur stdDeviation=".004"/></filter><linearGradient id="H" gradientUnits="userSpaceOnUse"/></defs><g transform="translate(-100.879 -574.906)" opacity=".992" filter="url(#G)"><g transform="translate(534.967 402.829)"><image xlink:href="../../../../../Pictures/Phone/IMAG1296.jpg" y="-729.703" x="566.607" width="1422.4" height="1066.8" preserveAspectRatio="none"/></g><path d="M100.88 574.906H263v72.62H100.88z" opacity=".992" fill="#ffc5c1" fill-opacity=".992"/><path d="M101.75 592.553c.62.384 1.156-1 1.588-1.134.518-.173 1.056-.094 1.588-.227.358-.1.575-.514.907-.68.65-.326 2.176.18 2.72.454.272.136.748-.363 1.02-.227.334.167 1.533-.624 1.758-.68 1.062-.266 1.152 1.346 2.21 1.134.773-.155.77-.71 1.36-.907.143-.048.307.037.454 0 .075-.02 1.27-.62 1.36-.68.178-.12.262-.358.454-.454.734-.367 3.095.264 3.855.454.29.073 6.504.176 7.03 0 .463-.154.745-.486 1.134-.68.29-.146.843-.08 1.134-.227.468-.234.868-.743 1.36-.907.556-.185 1.27-.046 1.814-.227.75-.25 1.32-.894 2.04-1.134.6-.2 1.454.235 2.04 0 .253-.1.422-.367.68-.454.215-.072.457.037.68 0 .7-.117.745-.526 1.36-.68.147-.037.318.068.454 0 .19-.096.276-.335.454-.454.222-.148 1.005-.276 1.36-.454.704-.352 2.974.176 3.855 0l.907-.227c.35-.07.797.112 1.134 0 .4-.133.978-.585 1.36-.68.664-.166 1.39.1 2.04-.227 2.437-1.22 2.937-1.36 5.67-1.36.466 0 1.828-.22 2.268 0 .507.253 1.02.17 1.588.454 1.038.52-.962-.094.68.454.692.23 2.228.165 2.948.454.253.1.437.332.68.454.068.034.15 0 .227 0 .15.076.318.125.454.227.17.128.262.358.454.454.638.32 1.24.393 1.814.68.218.11.69-.073.907 0 .1.034.13.18.227.227.544.272 1.46-.194 2.04 0 .1.034.13.18.227.227.364.182.97-.13 1.36 0 1.643.548-.358-.065.68.454.505.253 5.266 0 6.35 0 .698 0 1.588-.17 2.268 0 .844.21 2.306.516 3.175.227.648-.216 2.394-.176 2.495-.227.597-.298.887-.052 1.588-.227.175-.044.895-.406 1.134-.454.647-.13 1.65.247 2.268 0 .298-.12.376-.58.68-.68.215-.072.478.1.68 0 .45-.225.392-.055.907-.227.1-.034.125-.193.227-.227.287-.096.62.096.907 0 0 0 .454-.454.454-.454.518-.26 1.888 0 2.495 0 2.043 0 4.572.286 6.577 0 .673.123 1.2-.35 1.814-.454.224-.037.458.044.68 0 .4-.08.8-.566 1.134-.68.215-.072.46.055.68 0 .104-.026.13-.18.227-.227.237-.12.48-.013.907-.227.38-.2 2.83 0 3.402 0 .15 0 .328-.084.454 0 .178.12.276.335.454.454.24.16 2.376.112 2.72.227.807.27 1.647.284 2.495.454l.68.227c.076.076.125.193.227.227.9.3 1.815.227 2.72.454.572.143 1.234-.116 1.814 0 1.56.312 3.152.227 4.763.227.5 0 1.36-.15 1.814 0 .463.154.745.486 1.134.68.348.174 1.052.248 1.36.454.178.12.283.325.454.454.323.242.803.288 1.134.454.184.092 5.07.093 5.443 0 2.292-.573-.164.082.907-.454.677-.34 1.344-.087 2.04-.227.166-.033.3-.186.454-.227.423-.106 5.647-.16 6.123 0 .203.068.276.335.454.454.068.045 1.2.186 1.36.227.685.17 1.166.648 1.814.907.453.18 1.11-.12 1.588 0 .767.192 2.142.496 2.948.227a4.1 4.1 0 0 1 2.721 0c.953.317 1.787-.247 2.72.454.373 16.137 11.36 51.366 2.268 64.18-35.1 21.492-172 1.913-175.532-2.72-.097-10.5-2.375-52.028 6.123-56.016.378-.19.86-.338.454-.454-.18-.052-1.17.2 2.495.454.075.005-.15 0-.227 0z" fill="url(#F)"/><path d="M98.155 641.848c.167-.04 1.09-45.45 1.09-45.45.175-.467 2.4-.146 2.878-.385.257-.128.385-.513.64-.64.172-.086 1.173-.073 1.283 0 .126.084.195.237.32.32.09.06.225-.048.32 0 .255.127.75.27.962.48.038.038 0 .107 0 .16.053.053.097.118.16.16.327.218.886.323 1.123.48.126.084.185.253.32.32.255.128 1.61.104 1.924 0 .202-.067.405-.242.64-.32.324-.108.82.15 1.123 0 .33-.166.574-.512.962-.64.31-.104.478.056.802-.16.308-.206.487-.484.802-.64.172-.086.456.062.64 0 .36-.12 1.217-.207 1.443-.32.135-.068.19-.243.32-.32.454-.272 1.12-.16 1.604-.32.37-.123.753-.198 1.123-.32.22-.074.366-.266.64-.32.426-.085.872.045 1.283-.16.068-.034.107-.107.16-.16.16-.107.302-.25.48-.32.1-.04.22.034.32 0 .072-.024.086-.146.16-.16.537-.107.78-.034 1.283-.16.073-.018.093-.127.16-.16.197-.1.444-.062.64-.16 0 0 .32-.32.32-.32.59-.197 1.62 0 2.245 0 .99 0 1.927 0 2.887-.16.932-.155 1.96.185 2.887 0 .117-.024.207-.123.32-.16.276-.092.683.056.962 0s.52-.264.802-.32c.2-.042.44.068.64 0 .072-.024.09-.136.16-.16.692-.23 1.547.108 2.405-.32.012-.006 2.65-.04 2.726 0 .068.034.093.127.16.16.308.154 1.366 0 1.764 0 .57 0 1.232.106 1.764-.16.203-.1.278-.38.48-.48.128-.064.353.064.48 0l.64-.32c.257-.128.706.128.962 0 .135-.068.195-.237.32-.32.09-.06.214 0 .32 0 .39 0 1.416-.174 1.764 0 .47.235.92.627 1.443.802 1.118.373 2.25.483 3.368.802.192.055 1.246.09 1.604.16.257.05.545-.05.802 0l1.604.32c.368.074 1.15-.196 1.443 0 .126.084.185.253.32.32.314.157 1.218.064 1.604.16.116.03.214.107.32.16.16.053.315.127.48.16.2.042.443-.08.64 0 .792.317.15.346.962.48.88.147 2.624.1 3.528 0 1.407-.14 2.653-.726 3.85-1.443.32-.193.638-.64.962-.802.048-.024.123.038.16 0 .334-.334.102-.977.802-1.443.32-.213.893-.737 1.283-.802.316-.053.658.1.962 0 .072-.024.093-.127.16-.16 0 0 .32 0 .32 0 1.62-.405-.116.058.64-.32.143-.072.324.03.48 0 .166-.033.315-.127.48-.16 1.065-.213 2.175.206 3.207.32.425.047.858-.047 1.283 0 .542.06 1.062.26 1.604.32.372.04.768-.118 1.123 0 .15.05.575.443.802.48.47.078.97-.06 1.443 0 1.755.22 3.52.16 5.292.16.335 0 .815.102 1.123 0 .672-.224 1.386-.53 1.924-.962.5-.4.865-.994 1.443-1.283.156-.078.486-.082.64-.16.397.09.402-.362.64-.48.674-.337 3.122-.502 3.85-.32.116.03.236.076.32.16.12.12.067.34.16.48.43.645 1.366 1.334 2.085 1.604.775.29 1.814.154 2.566.32.28.062.52.26.802.32 1.283.275 2.706.22 4.01.32.43.033.854.12 1.283.16.16.014.327-.044.48 0 .23.066.4.263.64.32.677.17 1.392.045 2.085.16.32.053.647.082.962.16.073.018.087.142.16.16.505.126 1.25 0 1.764 0h4.01c.37 0 .944-.113 1.283 0 .332.11 1.387.745 1.604.962.363.364.45 1.026.962 1.283.502.25.95.555 1.443.802.743.372 2.254.863 3.047.962.265.033.546-.077.802 0 .3.1.51.37.802.48 1.012.39 2.163.503 3.207.802.78.223.537.254 1.604.64.6.218 1.16.12 1.764.32.723.24 1.5.65 2.245.802.42.084.87.144 1.283.32.177.076.302.25.48.32.48.193 1.3.042 1.764.32.23.138.412.344.64.48.236.14 1.297.19 1.604.32.177.076.302.25.48.32.2.08.434-.052.64 0 1.047.262-.606.086.802.32.264.044.543-.065.802 0 .44.1.258.225.64.48.183.122.428.107.64.16.47.118 1.13 0 1.604 0 .948 0 2.116.186 3.047 0 .32-.064.647-.082.962-.16.073-.018.087-.142.16-.16.457-.114 3.217-.094 3.688 0 .4.08.762.3 1.123.48 1.4.7-.68-.28.64.16.13.043.674.676 1.14 1.216.267.3 1.39 37.887 1.507 38.006" fill="url(#E)"/><path d="M100.563 601.19l4.1.317c1.533.245 2.032.703 2.46.703.32 0 .814-.077 1.123 0 .3-.097.298.26.48.32.1.034.225-.048.32 0 .203.1.278.38.48.48.197.1.444.062.64.16.255.128.542.377.802.48.69.276 1.377.304 2.085.48.35.088.776-.1 1.123 0 .23.066.415.245.64.32 2.128.71-.347-.237 1.443.16.28.062.523.25.802.32.156.04.323-.027.48 0 .556.093 1.076.466 1.604.64.386.34.87.037 1.283.16 1.027.308 1.21.652 2.405.802.566.07 1.194 0 1.764 0h4.65c1.206 0 2.658.198 3.85 0 .118-.02.204-.137.32-.16.157-.03.332.06.48 0 .14-.056.195-.237.32-.32.145-.097.83.017.962 0 .887-.11 1.697-.307 2.566-.48.308-.062.654.062.962 0 .422-.084.62-.344.962-.48.205-.082.437-.078.64-.16.368-.147.77-.892 1.123-.962.2-.042.436.06.64 0 .345-.1.803-.482 1.123-.64.197-.1.458-.038.64-.16.326-.217.602-.46.962-.64.197-.1.452-.047.64-.16.23-.138.402-.362.64-.48.278-.14.902-.13 1.283-.32.13-.064.347.054.48 0 .222-.09.415-.245.64-.32.434-.145.997.11 1.443 0 .073-.018.09-.136.16-.16.16-.053.802-.053.962 0 .072.024.087.142.16.16.288.072 1.183.033 1.443 0 .753-.094 1.5-.375 2.245-.48.212-.03.436.06.64 0 .185-.053.304-.245.48-.32.503-.216 1.105-.232 1.604-.48.627-.313 2.968-1.966 3.368-2.566.156-.234.295-.683.48-.962.254-.38.98-.693 1.123-1.123.034-.1-.048-.225 0-.32.368-.736 1.47-1.303 2.085-1.764.754-.565 1.335-1.362 2.085-1.924.26-.195.318-.076.48-.32.066-.1.076-.236.16-.32.118-.118 1.093-.066 1.283-.16.068-.034.09-.136.16-.16.152-.05.348.09.48 0 .126-.084.185-.253.32-.32.723-.36.887.727 1.123.962.084.085.236.076.32.16.34.34.312.475.802.802.572.382 1.522.657 2.245.802.618.124 1.303-.104 1.924 0 .917.153 1.814.476 2.726.64.568.103 1.198-.113 1.764 0 .552.1.947.714 1.443.962.474.237 1.08.537 1.604.64.608.122 1.33.123 1.924.32.34.113.62.378.962.48.733.22 1.505.288 2.245.48.49.128.95.367 1.443.48.208.048.43-.02.64 0 1.3.13.692.183 2.085.48l3.688.64c1.397.38.21.356 1.924.64.264.044.54-.048.802 0 .333.06.634.24.962.32 1.305.326.772-.045 2.245.48.338.12.63.348.962.48.75.3 1.03.065 1.924.32.345.098.622.368.962.48.308.103.65.07.962.16.44.125.842.363 1.283.48 1.402.374 2.91.304 4.33.48 1.353.17 2.025.52 3.368.64.694.063 1.404.01 2.085.16.304.068.51.375.802.48.754.274 1.3.1 2.085.16 1.212.093.74.185 1.924.48.733.183 1.517.118 2.245.32 1.375.55 1.45.643 2.726.962l3.85.802 2.566.802c.42.087.86-.065 1.283 0 .285.044.524.245.802.32.314.086.648.075.962.16.278.076.523.25.802.32.156.04.327-.046.48 0 .4.117.733.364 1.123.48.64.192 1.73 0 2.405 0l5.452.16c.75.068 1.67-.184 2.405 0 .073.018.093.127.16.16.19.096.443-.08.64 0 .14.056.185.253.32.32.003.003 1.008.283 1.123.32.446.15.845.477 1.283.64.83.31 2.034.148 2.726.32.348.087.622.368.962.48.54.18 1.075.094 1.604.32.177.076.304.245.48.32.405.174.87.17 1.283.32.383.14.736.352 1.123.48.962.32-.08-.16.48 0l3.047.962c.37.092 1.63.173 1.924.32.135.068.195.237.32.32.2.126.735.085.962.16.183.06.298.26.48.32.1.034.217-.026.32 0 .402.1.755.52 1.123.64.1.034.22-.04.32 0 .416.166.74.6 1.122.802.99.495 1.92 1.278 2.566 2.245.456.684 1.02 1.64 1.764 2.085.803.482 1.927.242 2.726.64.192.096.29.385.48.48.137.07.335.207.48.16.675-.213 1.113 17.99 1.166 28.356.022 4.303-156.246.784-182.446 1.872-4.388.182-4.62-13.716-.376-26.462 2.576-12.746.8-23.498 2.067-23.39z" fill="url(#D)"/><path d="M157.408 602.09c.532-.28 1.172-.676 1.523-1.203.14-.2.03-.14.16-.4.07-.14.24-.317.32-.48.05-.1.173-.15.24-.24.114-.152.182-.343.32-.48.07-.07.338-.13.4-.16.245-.123.42-.475.64-.64.276-.207.674-.445.882-.722.127-.17.253-.413.4-.56.313-.313.043.02.24-.08.12-.06.146-.226.24-.32.042-.042.118-.038.16-.08s.047-.11.08-.16c.082-.123.238-.197.32-.32.062-.093.11-.244.16-.32.042-.063.12-.096.16-.16.057-.095.18-.58.24-.64.068-.068.172-.092.24-.16.06-.06.046-.244.16-.32.375-.25 1.2-.983 1.443-1.363.17-.253.597-.947.882-1.042.05-.017.113.024.16 0 .128-.064.2-.24.32-.32.1-.066.22-.094.32-.16.278-.185.444-.537.722-.722.254-.17.47-.276.722-.4.218-.11.13.26.16.32.056.112.284.32.4.32.23 0 .708-.094.882.08.032.032 0 .132 0 .32 0 .135-.14.28-.08.4.093.186.248.2.4.24.092.03.11.19.16.24.038.038.13-.044.16 0 .015.023.055.294.16.32.228.057.413.023.64.16.54.324-.573.017.32.24.15.038.33-.038.48 0 .394.098.796.093 1.203.16.267.044.457-.052.722.08.024.012-.012.056 0 .08a1.03 1.03 0 0 0 .241.241c.064.032.176-.032.24 0 .112.056.533.2.64.24.333.095.862 0 1.203 0 .313 0 .57.108.882.16.175.03.382 0 .56 0 .387 0 1.72-.09 2.085 0 .3.075.407.325.64.48s.474.277.722.4c.1.05.14.2.24.24.163.082.524.06.722.16.124.062.19.278.32.32.05.017.1-.017.16 0 .127.042.198.188.32.24.296.127.588.123.882.24.11.044.204.134.32.16.385.086.82-.016 1.203.08l.722.16c.18.06.318.186.48.24.077.026.244-.038.32 0 .153.077.29.112.48.16.1.023.24-.04.32 0 .122.06.2.18.32.24.278.14 1.634-.124 2.005 0l.56.16c.105.02.225-.048.32 0 .068.034.097.118.16.16.077.05.228.098.32.16.12.08.192.257.32.32.24.12.616.14.882.24l.64.24c.035.014.043.07.08.08.104.026.225-.048.32 0 .156.078.202.322.32.4.044.03.113-.024.16 0 .362.18.632.58.962.802.23.152-.406-.243.24.08.12.06.214.25.32.32.234.156.528.264.802.4.208.104.44.55.56.64.068.05.18.02.24.08s.042.165.08.24c.075.15.294.134.4.24s.16.32.32.4c.2.1.5.35.64.56.04.06-.05.384 0 .4.076.025.163-.02.24 0 .236.06.41.33.56.48 0 0 .32.16.32.16.09.068.14.2.24.24.305.152.43.167.722.4.164.13.132.355.32.48l.64.4c.102.04.222.03.32.08.213.106.61.545.802.64.096.048.217-.026.32 0 .037.01.054.053.08.08.054.027.102.066.16.08.052.013.113-.024.16 0 .32.16 0 .16.32.24.115.03.475.037.56.08.14.07.23.173.4.24.05.02.1-.017.16 0a1.69 1.69 0 0 1 .481.241c.374.28.528.735.722 1.123.012.024 0 .053 0 .08.027.053.047.11.08.16.1.15.32.24.4.4s.212.32.32.48c.1.148.32.242.4.4.034.07.046.172.08.24.067.134.094.027.16.16.085.17-.01.74-.08.882-.043.086-.134.148-.16.24-.03.103.02.216 0 .32-.018.093-.2.15-.24.24-.04.12.04.28 0 .4-.147.442-.3 1.485-.08 1.924.143.287.334.47.4.802.02.105-.06.232 0 .32.174.26.378.478.56.722.13.172.118.398.24.56.233.31.83.778.962 1.042.032.064-.032.176 0 .24.1.198.08-.028.08.16" fill="#862219" fill-opacity=".992"/><path d="M118.778 639.204c0-.214-.464-5.905-.397-6.108.048-.143.23-.2.32-.32.248-.33.277-.782.48-1.123.078-.13.253-.186.32-.32.196-.392.22-.88.32-1.283.097-.388.24-.322.48-.64.28-.374.248-.894.48-1.283.117-.194.38-.278.48-.48.308-.617-.992.8.16-.64.3-.376.44-.18.64-.48.45-.677-.076-.065.64-.962.354-.442.193-1.25.32-1.764.05-.2.418-.644.48-.802.104-.26.07-.535.16-.802.053-.16.267-.32.32-.48.034-.1-.048-.225 0-.32.1-.203.426-.26.48-.48.088-.352.045-.776.16-1.123.1-.33.48-.638.64-.962.135-.27.048-1.106.16-1.443.005-.015 1.08-2.202 1.123-2.245.298-.298.684-.43.962-.802a8.03 8.03 0 0 1 1.604-1.604c.513-.385 1.077-.61 1.604-.962.414-.276.68-.9 1.123-1.123s.862-.068 1.283-.32c.13-.078.2-.23.32-.32.675-.506 2.647-.976 3.528-1.123.813-.135.17-.164.962-.48.368-.147 1.053-.19 1.443-.32.215-.072.3-.345.48-.48.653-.49 1.404-.83 2.085-1.283.478-.32.97-.807 1.443-1.123.557-.372 1.363-.267 1.924-.64.256-.17.285-.445.48-.64.246-.246.667-.445.962-.64.213-.142.33-.49.48-.64.44-.44.923-.743 1.283-1.283.192-.288.177-.675.32-.962.34-.677-.018.356.32-.32.288-.575.408-.918.802-1.443.228-.304.196-.678.48-.962.162-.162 1.197 0 1.443 0 .587 0 .903-.2 1.283 0 .373.186.96.88 1.443 1.123.32.16 1.01.436 1.283.64.35.263.33.485.802.64.152.05.326-.04.48 0 .22.055.3.345.48.48.298.223.627.153.962.32.64.32.316.48 1.283.802.05.017.107 0 .16 0 .16.107.304.245.48.32.662.284 1.418.154 2.085.32.116.03.204.137.32.16.504.1 1.11-.14 1.604 0 .185.053.31.235.48.32.35.175 1.942 0 2.405 0h10.905c.435.217 1.08.376 1.604.48.105.02.22-.04.32 0 .525.2 1.01.542 1.604.64.174.03 1.9.15 1.924.16.18.072.31.235.48.32.374.187 1.605-.068 2.085 0 .27.038.532.122.802.16.212.03.44-.068.64 0 .072.024.087.142.16.16.5.125 1.094-.085 1.604 0 .824.137 1.564.58 2.405.64 1.257.1 2.64-.082 3.85.32.28.093 1.477.708 1.604.962a2.19 2.19 0 0 0 1.283 1.123c.24.08.56-.08.802 0 .072.024.09.136.16.16.446.15 2.225-.01 2.566.16.172.086.31.235.48.32.52.26 2.762-.24 3.368-.48.408-.163.6-.46.962-.64.147-.074 2.45-.058 2.566 0 .603.302.812.967 1.443 1.283 0 0 .962.32.962.32.272.163.5.496.802.64.15.076.336.073.48.16.13.078.18.266.32.32.57.22 1.182.3 1.764.48.275.086.52.27.802.32.316.057.643-.035.962 0 .168.02.313.14.48.16.265.033.536-.03.802 0l3.047.48 3.047.64c.277.08.52.268.802.32 1.13.212 2.244.196 3.368.32.168.02.313.14.48.16.265.033.543-.065.802 0 .187.047.302.25.48.32.248.1.537-.038.802 0l1.924.32c.514.103 1.1-.103 1.604 0 .117.024.204.137.32.16.746.15 1.687-.24 2.405 0 .227.076.415.245.64.32.727.242 1.72.23 2.405.64.13.078.185.253.32.32.922.46 2.026.668 2.887 1.283.185.132.287.364.48.48.092.055.217-.026.32 0 .412.103.56.507.962.64l1.764.64c.497.2 1.233.393 1.764.48.158.027.327-.044.48 0 .23.066.41.267.64.32.898.1 1.428.116 2.245.32.864.216 1.71.557 2.566.802.418.12.284.213.64.48.28.2.478.16.802.32.315.157.648.484.962.64.364.182.835.193 1.123.48.038.038-.043.128 0 .16.19.143.436.198.64.32.26.156.405.453.64.64.325.26.416.09.802.32.57.343 1.07.882 1.604 1.283.41.308.402.04.962.32.086.043 1.416.907 1.443.962.236.472.082 13.453.614 13.985" fill="url(#C)"/><path d="M135.666 639.148c.745-.22.815-7.396 1.86-7.657l3.1-.682c.747-.125.585-.373 1.123-.64.15-.076.34-.067.48-.16.19-.126.292-.355.48-.48.293-.195.877-.198 1.123-.32.135-.068.185-.253.32-.32.23-.115 1.418-.25 1.764-.32.166-.033 1.533-.526 1.764-.64.068-.034.086-.146.16-.16.9-.182 2.13 0 3.047 0l3.85-.16c.59 0 1.956.18 2.405 0 .18-.072.302-.25.48-.32.1-.04.214 0 .32 0 .267-.053.55-.053.802-.16.14-.06.18-.265.32-.32.2-.08.45.096.64 0 .31-.155.517-.612.802-.802.116-.078.53.042.64 0 .336-.126.65-.303.962-.48.44-.252.67-.896 1.123-1.123.096-.048.225.048.32 0 .203-.1.266-.41.48-.48.233-.078 2.233-.058 2.405 0 .23.076.907.685 1.123.64.734-.147.55-1.062 1.123-1.443.133-.09.33.05.48 0 .753-.25.19-.49.802-.64.766-.192 1.65.028 2.405-.16.302-.076.663-.542.962-.64.1-.034.22.034.32 0 .2-.066.44-.43.64-.48.207-.052.464.12.64 0 .3-.193.624-.557.962-.64.577-.144.98-.056 1.604-.16.284-.047.523-.25.802-.32.852-.213 2.018.072 2.887 0 1.048-.087 1-.167 1.924-.32l1.123-.16c.16-.016.33.05.48 0 .183-.06.302-.25.48-.32.302-.12.658-.046.962-.16l.64-.32c.053 0 .1.017.16 0 .316-.105.635-.427.962-.48.21-.035.432.042.64 0 .074-.015.093-.127.16-.16.197-.098.437-.078.64-.16.29-.116.506-.383.802-.48.177-.06 1.527-.22 1.764-.32.14-.06.185-.253.32-.32.096-.048.215.018.32 0 2.39-.4-.784.06 1.123-.32.73-.146 1.363-.12 2.085-.48.306-.153.56-.4.802-.64.092-.092.093-.405.32-.48.1-.034.22.034.32 0 .47-.157.902-.667 1.443-.802.145-.036.894-.133.962-.16.14-.056.195-.237.32-.32.25-.166.683-.114.962-.16 1.408-.235-.245-.06.802-.32.56-.14 1.6-.082 2.085.16.3.15.732-.045.962-.16.344-.172 1.572.01 1.604 0 .143-.048.185-.253.32-.32.096-.048.225.048.32 0 .285-.142.517-.34.802-.48.096-.048.225.048.32 0 .068-.034.09-.136.16-.16 1.163-.388 1.15.575 1.604.802.885.442 2.004-.134 2.887.16.3.1.72.76.802.802.374.187.924-.02 1.283.16.135.068.195.237.32.32.21.14 1.185 0 1.443 0h3.368c.4 0 1.04-.08 1.443 0 .078.016.956.476.962.48.096.072.065.25.16.32.31.233 1.4.38 1.604.48.135.068.195.237.32.32.243.162 1.478.12 1.764.16.167.024.315.127.48.16.92.184 2.096 0 3.047 0 .728 0 1.382-.015 2.085.16.293.073.684-.11.962 0 .108.043.602.448.802.48.564.094 1.066.052 1.604.32.28.14.503.392.802.48.256.077.538-.044.802 0 .075.012.09.136.16.16.734.245-.166-.42.802.16.272.163.5.496.802.64.15.076.336.073.48.16l.32.32c0 .053-.033.12 0 .16.283.354.794.54.962.962.082.205.078.437.16.64.175.44 1.19 1.096 1.283 1.283.304.61-1.127-.807.32.64.038.038.11-.02.16 0a4.5 4.5 0 0 1 .641.321c.518.31.756 1.145 1.123 1.604l1.123 1.443c.398.455-1.285 1.098-.985 1.623.11.19.062.444.16.64.196.393-1.378.676-1.033.923.138.098-1.73 1.03-1.588 1.124.315.2.464.633.802.802.096.048.214 0 .32 0l.48.32c.458.344.417 1 .962 1.283.388.194 1.94 1.3 2.245 1.604.3.3.618 1.075.802 1.443.072.143-.04.326 0 .48.08.315.264.745.48.962" fill="url(#B)"/><path d="M122.37 629.085c.333-1.268.878-4.152 1.588-5.216 0 0 .227-.227.227-.227.123-.245.2-.682.34-.907.08-.12.303-.304.34-.454.073-.29.04-.616.113-.907.08-.325.4-.477.454-.794.022-.11-.02-.228 0-.34.166-.995.042.173.227-.567l.567-2.04c.055-.092.167-.138.227-.227.066-.1.047-.24.113-.34.174-.262.506-.42.68-.68.256-.385.576-.69.907-1.02.173-.173.42-.257.567-.454 1.015-1.353 2.218-.874 3.63-1.814.292-.195.588-1.8.907-1.928.28-.112.166-.26.567-.34.4-.082.835.024 1.247-.113.268-.09.525-.25.794-.34.108-.036.23.03.34 0 .196-.056.37-.177.567-.227.1-.028.235.042.34 0 .567-.227 0-.17.34-.34.333-.166.576-.144.907-.227.104-.026.13-.18.227-.227.06-.03.5-.16.567-.227.096-.096.118-.258.227-.34.06-.045.16.034.227 0 .405-.202.933-.85 1.36-1.134.207-.138.48-.19.68-.34.128-.096.203-.258.34-.34.444-.267.905-.453 1.36-.68.28.063.285-.256.454-.34.416-.208.747-.422 1.134-.68.234-.156.656-.215.907-.34.096-.048.14-.163.227-.227.057-.25.233-.06.34-.113.143-.072.212-.244.34-.34.297-.223.698-.292 1.02-.454.048-.024.076-.076.113-.113.113-.076.214-.176.34-.227.07-.028.166.045.227 0 .15-.113.207-.32.34-.454.154-.154.456-.118.567-.34.048-.097.065-.243.113-.34.126-.253.48-.415.567-.68.024-.072-.034-.16 0-.227.095-.2.354-.368.454-.567.075-.15-.053-.407 0-.567.146-.437.232-.685.567-1.02l.454-.454c-.038-.038-.167.113-.113.113.084 0 .145-.093.227-.113.042-.01.968 1.683 1.02 1.7.662.22 1.35.976 1.928 1.36.243.162.553.196.794.34.092.055.138.167.227.227.408.272.505.168.907.34.323.138.46.274.794.34.254.05.54-.05.794 0 .083.017.147.087.227.113.46.153 1.106-.07 1.588 0 .154.022.3.09.454.113.296.042.612-.05.907 0l.567.113c.076.038.145.093.227.113.4.1.848.014 1.247.113.205.05.32.392.567.454.183.046.38-.024.567 0 1.098.137-.214.113.567.113.458 0 1.273-.143 1.7 0 .08.027.144.097.227.113.516.103 1.065-.017 1.588.113.164.04.3.186.454.227.426.106.927-.072 1.36 0 .636.106.254.092.794.227.458.115 1.214-.05 1.7.113.13.043.214.176.34.227.567.227 0-.113.34 0 .08.027.145.093.227.113.356.09.774-.072 1.134 0 .448.1 1.606.258 2.04.113.34-.113.113-.227.34-.34.197-.098 1.335-.07 1.474 0l.907.454c.224.112.358.428.567.567.14.094.302.15.454.227.386.193 1.344-.118 1.814 0 .104.026.125.193.227.227.34.114.7.01 1.02.113.205-.068.21.184.34.227.398.133.95-.082 1.36 0 .12.024.56.28.68.34.1.05.233-.036.34 0a2424.82 2424.82 0 0 0 .227.227c.16.323.003.644.454.794.274.09 1.71.01 1.814.113s.4 2.05.113 2.495c-.02.032-.08-.017-.113 0-.403.202-.807.003-1.247.113-.313.078-.522.43-.794.567-.107.053-.247.04-.34.113-.148.118-.17.37-.34.454-.205.102-.6.204-.794.34-.044.03-.105.28-.227.34-.23.114-.37.078-.567.227-.28.2-.514.47-.794.68-.257.193-.655.1-.907.227l-1.474.794c-.587.294-.6 1.063-.907 1.36-.06.06-.174.047-.227.113-.275.344-.465.913-.907 1.134-.418.21-.303.17-.68.454-.19.142-.514.174-.68.34-.075.075-.16.364-.34.454-.237.12-.547.29-.794.454-.463.31-.78.823-1.247 1.134-.17.114-.272.363-.454.454-.2.105-.47.122-.68.227-.134.067-.215.257-.34.34-.688.46.355-.326-.567.227-.092.055-.138.167-.227.227-.295.196-.676.225-1.02.34-.036.012-.41.886-.68 1.02-.034.017-.076 0-.113 0-.113.038-.238.052-.34.113-.304.182-.582.664-.907.794-.105.042-.23-.028-.34 0-.104.026-.13.18-.227.227-.068.034-.16-.034-.227 0-.324.162-.276.64-.454.907-.043.065-.7.266-.794.34-.066.053-.066.156-.113.227s-.566.49-.68.567c-.42.28-1.016.148-1.474.454-.07.047-.038.19-.113.227-.237.118-.53-.03-.794 0-.192.02-.377.082-.567.113-.423.07-.957-.135-1.36 0-.05.017-.066.1-.113.113a9.43 9.43 0 0 1-1.361.454c-.9.178-.25-.22-1.134.113-.128.048-.214.176-.34.227-.14.056-.304-.025-.454 0-.272.045-1.018.12-1.247.227-.016.007-1.976 1.07-2.04 1.134-.053.053.024.155 0 .227-.1.304-.578.292-.794.454-.112.084-.493.535-.567.567-.14.06-.31-.043-.454 0-.608.182-.872.593-1.474.794-.41.136-.944.018-1.36.227-.338.17-.57.51-.907.68-.238.12-.87 0-1.134 0-.454 0-.923.12-1.36 0-.53-.145-1.04-.385-1.588-.454-1.25-.156.558.263-1.134-.113-.41-.09-.445-.17-.907-.113-.307.038-.65.17-.907.34-.09.06-.13.18-.227.227-.738.37-.165-.1-.907.113-.13.037-.21.184-.34.227-.364.12-1.66-.008-1.814 0-.38.02-1.43.204-1.928.113-.913-.166-.804-.56-1.588-.794-.806-.242-1.536-.227-2.38-.227-.287 0-.7-.092-.907.113" fill="url(#A)"/><path d="M97.607 675.176c-.084 1.06 1.282-52.81 1.95-51.503.66 1.288 2.218 3.394 3.18 3.875.5.25 1.426.07 1.924.32.345.172.596.52.962.64 1.588.53 4.095.49 5.773.32 1.928-.193 3.468-.64 5.452-.64 1.94 0 4.46-.39 6.414 0 .234.047.406.28.64.32 1.637.273 5.717.207 7.377 0 .335-.042.63-.265.962-.32 1.15-.192 4.58-.238 5.773 0 .763.153 1.473.545 2.245.64.955.12 1.927-.074 2.887 0 .44.034.844.277 1.283.32 2.39.24 1.362-.33 3.528.32.55.165 1.042.517 1.604.64 1.62.36.975-.475 2.566.32.27.135.4.474.64.64.52.348 4.565 1.07 5.132 1.283 3.18 1.192 4.31 1.362 7.697 1.604 4.263.305 8.702.163 12.83-.962 3.417-.932.477-.283 4.17-1.924.797-.354 2.388.117 3.207 0 1.593-.228 3.793-.736 5.452-.32 2.477.62 3.488 3.622 6.094 4.5.5.163 1.404 0 1.924 0 4.022 0 7.923-.086 11.867-.962 1.066-.237 2.138-1.247 3.207-1.604.373-.124.943-.15 1.283-.32.345-.172.593-.53.962-.64l2.245-.32c.107-.107.177-.273.32-.32.196-.065 5.188-.132 5.452 0 .752.376 1.164 1.013 2.245 1.283.853.213 9.2.036 9.3 0 1.08-.43 2.108-.917 3.207-1.283.517-.172 1.097-.118 1.604-.32 4.52-2.26-1.8.784 2.566-.962.14-.056.172-.29.32-.32.42-.084.86.07 1.283 0 .236-.04.415-.245.64-.32.544-.18 1.327 0 1.924 0 .27 0 1.926.16 2.245 0 .27-.135.4-.474.64-.64.38-.254 1.188.208 1.604 0 .135-.068.185-.253.32-.32.708-.354 3.56 0 4.5 0 1.675 0 2.785-.32 4.5-.32h2.245c.214 0 .64.214.64 0s-.855 0-.64 0c.428 0 1.283.428 1.283 0 0-.107-.428 0-.32 0 .747 0 2.158-.243 2.887 0 .287.096.428.855.64.64.107-.107 1.87 47.574 1.764 47.467" fill="#390a05" fill-opacity=".984"/></g></svg>