<svg xmlns="http://www.w3.org/2000/svg" viewBox="0 0 315.593 51.637" height="195.163" width="1192.792" xmlns:v="https://vecta.io/nano"><path d="M27 49.424c-.208-.056-.446-.14-.53-.187l-.415-.212c-1.065-.51-1.608-.855-1.76-1.115-.033-.057-.094-.104-.136-.104s-.31-.254-.6-.564c-.695-.748-1.018-1.48-.943-2.137.028-.243.1-.543.158-.666s.108-.28.108-.348c.001-.142.805-.578 1.064-.578.175 0 .613-.133.833-.252.068-.037.247-.092.4-.124.218-.045.384-.186.778-.662.276-.333.526-.588.557-.567s.067.01.08-.025c.03-.075.49-.434.556-.434.025 0 .17-.132.324-.292s.363-.35.467-.42a1.42 1.42 0 0 0 .34-.387c.083-.142.317-.354.52-.47a2.54 2.54 0 0 0 .619-.538l.444-.558c.106-.128.192-.267.192-.3s.026-.077.058-.077.09-.083.132-.185.168-.234.282-.293c.157-.082.208-.167.208-.35 0-.134.025-.244.057-.244s.114-.14.185-.3l.283-.675c.196-.464.195-.496-.037-.77-.162-.19-.253-.226-.585-.226a6.01 6.01 0 0 0-.884.091c-.813.15-2.73.126-3.512-.044l-.793-.193c-.062-.025-.18-.06-.258-.076a.61.61 0 0 1-.227-.1c-.045-.038-.198-.094-.34-.123-.33-.068-1.522-.796-1.574-.96-.022-.068-.128-.254-.236-.413-.18-.264-.196-.357-.197-1.085 0-.642.025-.827.132-.956.073-.088.132-.22.132-.29 0-.264.41-.514 1.173-.715.414-.11.888-.262 1.054-.34l.49-.203c.104-.034.274-.145.378-.247s.332-.27.506-.375c.183-.11.327-.26.34-.356s.155-.247.322-.35.426-.3.58-.44.304-.257.332-.257.168-.11.3-.248.306-.248.365-.248.134-.05.167-.11.17-.195.3-.3.278-.3.324-.412.192-.3.325-.376c.41-.265 1.185-1.124 1.617-1.795.227-.352.437-.64.467-.64.056 0 .537-.71.537-.795 0-.026.063-.145.14-.266.173-.272.32-.707.363-1.086a5.96 5.96 0 0 1 .116-.619c.045-.182.09-.633.1-1.004s.04-.714.07-.765.177-.16.33-.247c.26-.144.325-.148.91-.046.346.06.686.162.754.226.162.15.646.39.785.39.1 0 .36.25.36.362 0 .033.1.197.222.365.305.418.684 1.23.684 1.464 0 .26.116.32.32.166.25-.19.488-.158.863.12.185.136.358.248.384.248s.136.09.242.198c.23.236.748.545.913.545.065 0 .16.046.213.103.16.174 1.092.108 1.346-.095.307-.245.987-.417 1.27-.322.125.042.567.154.982.248.462.105.843.243.982.355a1.41 1.41 0 0 0 .429.236c.11.03.253.108.316.176s.167.124.232.124c.137 0 .877.778 1.033 1.086.058.115.226.41.374.655.296.49.6 1.247.6 1.492 0 .463-.523 1.357-.838 1.433-.243.058-.44.216-1.007.813-.21.22-.62.58-.91.795s-.61.5-.712.61-.21.216-.242.216c-.155 0-.76.54-1.173 1.047-.328.403-.602.642-.96.843-.276.154-.6.4-.718.548s-.284.292-.368.322c-.215.075-.267.358-.085.465.08.047.18.063.22.035s.15.008.242.08a.74.74 0 0 0 .385.129c.252 0 .73.228.73.348 0 .045.052.06.116.033s.134.003.157.07.138.14.257.17c.386.093.795.496 1.1 1.086l.348.71c.094.25.9 1.387 1.006 1.435.06.025.1.096.1.157s.045.14.1.177.214.252.354.48l.307.454c.03.023.18.3.338.62s.36.67.45.784c.426.528 1.162 1.954 1.28 2.48.026.115.167.375.314.578.297.4.858 1.635.858 1.874 0 .084.042.2.092.254.056.06.092.338.092.7 0 .678-.097.885-.696 1.49-.618.625-.95.813-1.514.857-.418.033-.577.007-.876-.142-.2-.1-.488-.203-.64-.23-.274-.048-1-.433-1.223-.648-.065-.063-.297-.152-.514-.197s-.47-.138-.56-.207c-.185-.142-.55-.167-.62-.042-.026.046-.1.083-.163.083s-.214.076-.334.17-.43.205-.69.25-.542.11-.625.15c-.693.322-.944.46-.944.52 0 .038-.1.068-.222.068s-.243.037-.27.083-.274.083-.552.083-.617.035-.754.078c-.192.06-1.88.183-2.658.194-.555.007-2.02-.137-2.096-.207-.054-.05-.12-.065-.146-.035s-.13-.005-.23-.077-.202-.11-.226-.084-.087.007-.14-.042-.26-.088-.46-.086-.583-.036-.853-.083l-.674-.1a1.93 1.93 0 0 0-.997.342c-.16.15-1.78.524-2.238.515a3.72 3.72 0 0 1-.736-.109zm6.483-4.878c.214-.068.508-.14.654-.16l.283-.046a10.28 10.28 0 0 1 1.521.034c.04.027.092.016.115-.025.044-.078.743.15.787.257.04.096.283.074.596-.054l.436-.175c.083-.032.355-.053.604-.045.306.01.502-.027.604-.112.083-.07.208-.127.277-.128s.34-.128.604-.28c1.095-.637 1.276-.778 1.373-1.07.028-.084.117-.17.198-.195a.32.32 0 0 0 .194-.199c.025-.086.077-.156.116-.156.1 0 .09-.942.001-1.32-.038-.16-.087-.523-.1-.808s-.062-.555-.087-.6-.046-.54-.048-1.102c-.002-1-.005-1.025-.227-1.32-.124-.164-.27-.298-.324-.298s-.205-.107-.333-.238-.276-.262-.33-.29a9.23 9.23 0 0 1-.398-.251c-.432-.285-.8-.458-.946-.458-.074 0-.22.11-.326.248s-.216.248-.248.248c-.098 0-.656.428-.934.715l-.603.573c-.187.165-.422.435-.524.6-.223.362-.37.505-1.27 1.23-1.002.808-2.477 2.257-3.466 3.404l-.868.92-.406.384.147.302c.1.226.183.292.29.26a.57.57 0 0 1 .313.029c.093.038.483.09.866.11s.718.063.742.1c.073.08.314.055.725-.075zm2.71-11.527c.073-.095.132-.28.132-.413s.046-.26.102-.284.105-.148.108-.277c.006-.22.317-.666.465-.666.035 0 .26-.27.502-.598l.5-.646c.034-.026.197-.335.362-.688s.368-.735.45-.85.152-.256.152-.31.068-.167.15-.25.15-.195.15-.25.086-.163.19-.238.174-.167.153-.204c-.043-.076.237-.374.418-.443.066-.025.197-.226.29-.446s.218-.442.28-.494c.073-.062.094-.166.062-.306-.043-.185-.242-.32-.638-.43-.333-.092-1.435-.696-1.435-.787 0-.052-.05-.073-.113-.047-.067.028-.113.001-.113-.068 0-.064-.104-.197-.232-.296s-.265-.26-.306-.356l-.218-.465c-.08-.16-.145-.387-.147-.506s-.046-.255-.098-.302c-.073-.066-.096.001-.102.3-.01.476-.302 1.205-.653 1.634-.144.176-.29.413-.32.526-.102.366-.394.943-.6 1.185-.1.13-.185.253-.166.274s-.005.12-.052.218c-.125.258-1.2 1.707-1.266 1.707-.03 0-.077.108-.104.24s-.114.304-.195.384-.147.177-.147.216c0 .08-.28.452-.69.915-.712.806-.82.968-.818 1.238.003.394.212.642.6.698.175.026.336.078.358.116.05.1.7.404.835.404.057 0 .104.035.104.077s.062.1.138.125.22.13.318.233c.38.39 1.343.47 1.602.133zM3.44 24.836c-.026-.046-.25-.083-.498-.083s-.573-.056-.722-.124a1.36 1.36 0 0 0-.415-.124c-.08 0-.164-.056-.188-.124s-.09-.124-.15-.124-.105-.037-.105-.083-.066-.155-.147-.243c-.263-.288-.274-.69-.034-1.223.118-.26.325-.613.462-.783s.248-.36.248-.424c0-.12.557-.71.668-.71.035 0 .196-.13.358-.288l.484-.474c.104-.102.4-.263.68-.358s.6-.24.755-.325a1.58 1.58 0 0 1 .475-.179c.116-.015.303-.078.415-.14s.438-.138.724-.166c.323-.032.66-.13.894-.257.206-.113.414-.206.462-.207s.17-.07.272-.157.23-.135.286-.112.167-.022.246-.1c.09-.1.364-.172.733-.22l.93-.155a4.68 4.68 0 0 1 .642-.093c.166-.008.383-.083.482-.166s.24-.15.312-.15.473-.186.9-.413.844-.413.948-.413.208-.03.23-.07.143-.063.27-.054.23-.017.23-.055.063-.027.14.026c.085.058.198.07.283.03l.18-.082a6.01 6.01 0 0 0 .227-.099c.104-.047.324-.112.488-.145s.386-.108.49-.167c.186-.104.68-.215 2.23-.5l1.057-.218.485-.127c.1-.026.3-.135.445-.242s.292-.194.33-.194.162-.076.277-.17.428-.223.695-.3.555-.155.638-.197.474-.136.868-.2l1.27-.255c.304-.067.576-.105.606-.085s.257-.02.505-.088c.6-.165 1.146-.252 1.924-.306.85-.06 1.35-.18 1.6-.39.117-.094.26-.15.32-.127s.126.008.15-.035c.06-.107 1.072-.1 1.133.007.033.06.084.055.158-.013.068-.062.488-.113 1.107-.136.99-.036 1.168-.083 1.715-.446a3.18 3.18 0 0 1 .321-.173c.114-.054.228-.168.253-.253.075-.26-.13-1.796-.277-2.072-.075-.14-.256-.72-.404-1.286l-.454-1.692c-.102-.363-.207-.87-.232-1.123-.042-.422.083-.423.16-.73l.206-.268.807.03c.514.02.85.07.925.137.065.06.163.098.218.087.194-.04.734.107.822.223.05.065.117.117.15.117s.15.1.26.2.454.302.767.427c.638.254.447-.008.626.1l.392.236.195.262c.093.125.06.01.138.15.02.038.03.06.06.125.086.2.01.054.132.423.078.235.24.52.358.634s.324.448.455.743c.23.52.237.564.2 1.445l-.084 1.486c-.055.575-.054.58.198.88.177.21.36.33.608.392.448.114 3.154.12 3.426.006.112-.047.78-.09 1.482-.1l1.315-.078c.02-.035.4-.064.845-.064s.927-.038 1.072-.085.672-.088 1.17-.092l1.284-.063c.21-.03.677-.01 1.054.05.372.06.73.083.793.053s.507-.05.985-.044 1.124-.025 1.437-.068c.36-.05.678-.05.868.002.165.044.69.08 1.17.083.69.003.994-.035 1.473-.186.447-.14.807-.192 1.395-.197.55-.004.908-.05 1.17-.152a2.37 2.37 0 0 1 .717-.143c.3.002.6-.08 1.133-.302.062-.026.555-.093 1.095-.148.718-.074 1.062-.147 1.28-.274.213-.123.437-.173.778-.173.264 0 .634-.042.823-.095.266-.073.49-.07.996.015.582.098.476.01.78.068.167.03.344-.05.396-.135.036-.06.34-.046.366-.017s.05-.038.27-.113c.895-.305 1.108-.47 1.726-.09.22.137.354.897.437 1.833.043.483.03.543-.187.887-.128.203-.26.37-.294.37-.118 0-.5.703-.47.887.01.102-.02.186-.07.186-.07 0-.07.027-.002.116.06.08.064.133.008.17-.044.03-.06.09-.035.135s-.006.2-.07.345c-.142.326-.9 1.304-1.12 1.428-.085.05-.347.334-.58.63-.484.615-1.22 1.37-1.562 1.6-.325.218-.954.747-1.43 1.2-.222.212-.517.442-.655.51-.478.24-1.5.208-1.66-.053-.026-.043-.434-.1-.906-.148s-1.045-.13-1.274-.205-.602-.168-.83-.208c-.4-.07-.686-.138-1.314-.313-.162-.045-.32-.127-.35-.182s-.142-.082-.255-.058-.217.01-.24-.03-.104-.07-.182-.07-.237-.043-.354-.095c-.29-.13-.34-.14-1.12-.202-.374-.03-.748-.095-.83-.144-.09-.054-.792-.097-1.775-.11l-2.04-.067c-.897-.1-5.89-.1-6.253.001a2.62 2.62 0 0 1-.77.063l-.642-.03c-.19.005-1.236-.082-2.454-.205-.64-.065-1.408-.232-1.707-.372-.217-.102-.607-.17-1.178-.204-1.134-.07-2.502-.28-2.568-.398-.04-.068-.112-.058-.264.04-.18.115-.418.128-1.68.093-1.13-.03-1.493-.068-1.575-.158-.093-.1-.13-.1-.285.01a.52.52 0 0 1-.68-.009c-.202-.145-1.22-.187-1.408-.058a.43.43 0 0 1-.171.07c-.042.003-.21.07-.372.148-.23.11-.58.153-1.548.182l-1.818.122c-.312.046-.668.076-.793.066a16.47 16.47 0 0 0-1.548.022c-.062.01-.15.048-.192.085s-.45.143-.906.235c-1.27.258-1.47.312-1.974.53-.257.11-.485.182-.508.157-.05-.055-.86.217-.91.306-.02.035-.125.045-.235.022s-.223.002-.255.06-.302.134-.6.175-.582.1-.627.13-.273.102-.505.16l-.838.234c-.748.235-1.746.467-1.813.42-.036-.024-.38.03-.765.122s-.794.167-.91.167c-.228 0-.68.167-1.154.425-.164.1-.606.232-.982.316l-1.287.286c-.332.074-.723.186-.868.25a2.89 2.89 0 0 1-.516.162c-.222.04-1.525.67-1.825.88-.062.044-.35.204-.642.356s-.648.39-.793.53-.48.377-.74.526-.534.328-.604.398-.184.114-.253.1-.147.012-.174.06c-.063.11-.47.114-.53.004z"/><path d="M140.338 48.44c-.02-.02-.16-.055-.3-.077l-1.46-.284c-.652-.134-1.27-.223-1.37-.198-.118.03-.265-.012-.4-.115-.124-.09-.276-.16-.337-.16s-.18-.05-.263-.11c-.106-.078-.278-.098-.57-.068-.328.034-.417.02-.417-.07 0-.08-.1-.117-.367-.13-.446-.02-.9-.173-.9-.305 0-.208-.584-.265-3.114-.304l-2.652-.073c-.03-.018-.433-.054-.896-.08-.994-.057-1.31-.112-1.552-.267-.098-.063-.178-.096-.178-.072s-.3-.06-.688-.19-.76-.233-.847-.233-.3-.097-.47-.216c-.254-.176-.413-.22-.87-.24-.308-.013-.704-.062-.88-.1-.27-.074-.825-.1-2.862-.143-.14-.003-.342-.09-.475-.203-.127-.11-.25-.198-.277-.198-.07 0-.278.257-.332.4-.04.117-.183.133-1.14.126-.774-.005-1.21.028-1.49.114-.43.13-1.737.123-2.414-.015-.22-.045-.75-.043-1.386.004l-1.522.11c-.272.017-.532.055-.58.084-.1.063-1.25.114-3.202.144-1.063.016-1.516.054-1.78.15-.26.093-.63.126-1.364.123-.685-.003-1.045.026-1.125.092-.064.053-.148.078-.185.055s-.208.005-.38.063-.668.125-1.104.15c-.99.055-1.858.205-2.03.35-.072.06-.242.114-.38.118s-.267.037-.3.074-.112.067-.197.067-.373.11-.637.243-.646.256-.85.27c-.53.04-.905.125-1.04.234-.065.053-.297.16-.515.24s-.432.17-.475.203-.384.135-.756.228c-1.128.28-1.543.1-1.907-.824-.05-.13-.087-.266-.08-.302s-.037-.178-.1-.317-.13-.342-.153-.45c-.146-.727-.32-1.384-.39-1.48-.038-.052-.042-.265-.01-.475a2.63 2.63 0 0 0 .047-.436c-.03-.12.444-.37.813-.424a4.95 4.95 0 0 0 .949-.295c.53-.225.9-.278 1.102-.156.048.03.106.06.128.062s.21.09.416.195c.356.18.402.184.862.09.267-.055.54-.156.61-.223.144-.144.642-.108 1.203.087.493.17.863.16 1.07-.035.13-.12.354-.18.905-.243.403-.045.827-.118.942-.162.26-.1.84-.215 1.515-.3a14.2 14.2 0 0 0 1.108-.199l1.108-.205.91-.16c.218-.05 1.02-.1 1.78-.112.914-.014 1.563-.064 1.908-.146 1.27-.302 2.4-.445 3.436-.43.975.013 1.054.002 1.504-.207.604-.28 1.07-.595 1.07-.72 0-.054.045-.135.1-.18.084-.07.116-.723.067-1.336-.004-.05-.1-.203-.213-.337-.17-.203-.262-.244-.546-.244a3.66 3.66 0 0 0-.855.159c-.388.12-.685.153-1.216.135-.656-.022-1.234.093-1.424.283-.03.03-.137.056-.236.056s-.2.032-.224.072-.222.096-.44.126-.396.088-.396.13-.062.095-.14.12l-2.176.83c-.285.145-1.23.08-1.72-.12l-.69-.243c-.382-.09-.585-.44-.633-1.1-.06-.79.06-1.192.432-1.444.356-.242.44-.244 1.062-.03.44.153.538.16.97.076l.94-.172c.254-.043.628-.162.83-.264l.7-.352c.712-.36 1.525-.537 1.795-.392.105.056.203.054.32-.007a1.74 1.74 0 0 1 .485-.124c.555-.063 1.26-.24 1.52-.38.14-.075.3-.138.356-.14s.192-.07.3-.157.28-.156.377-.157.24-.032.317-.07c.24-.118.944-.328 1.103-.328.144 0 .42-.46.42-.7 0-.05.07-.16.153-.246.157-.157.217-.797.075-.797-.038 0-.07-.052-.07-.115s-.127-.212-.283-.33c-.306-.234-.442-.246-1.3-.12-1.173.17-1.496.243-1.804.4-.23.118-.456.162-.784.153-.473-.012-.68.028-1.094.2-.2.084-.87.195-1.346.22-.044.002-.285-.09-.537-.206l-.523-.2c-.117 0-.564-.473-.564-.598 0-.067-.072-.262-.16-.435-.253-.497-.253-.776.003-1.143.233-.335.507-.596.625-.596.182 0 .214-.46.057-.82-.208-.476-.36-.964-.407-1.318-.127-.93-.13-1.037-.035-1.152.054-.065.078-.14.054-.164s.001-.175.057-.335.09-.39.078-.5.028-.344.09-.496.13-.587.15-.967.075-.888.123-1.127a4.2 4.2 0 0 0 .086-.646c-.003-.257.296-.595.59-.67.318-.08 1.286.304 2.093.83.303.198 1.762.168 2.517-.052.318-.092.688-.223.824-.3s.316-.123.4-.123.285-.07.443-.153c.35-.186 1.254-.45 1.79-.522a2.35 2.35 0 0 0 .594-.155c.11-.056.324-.127.476-.16a2.91 2.91 0 0 0 1.069-.486c.3-.223.6-.334 1.01-.387.18-.023.353-.082.384-.13.088-.142 1.586-.184 2.232-.062.534.1.812.242 1.76.892.81.556 2.166 1.86 2.388 2.296.22.43.203.82-.058 1.5-.08.202-.124.387-.1.4s-.037.25-.134.503c-.156.406-.18.63-.198 1.9l-.02 1.44-.297.54c-.42.766-.5.885-.9 1.354-.515.617-.615.65-1.83.622-.57-.014-1.207.007-1.414.046a7.96 7.96 0 0 1-.978.089c-.446.013-.637.053-.738.154-.075.075-.112.136-.08.136s-.036.12-.148.265c-.2.25-.195.28-.084.495.2.41.238.417 1.626.475 1.092.046 1.385.034 1.702-.07.21-.068.526-.15.7-.182a1.65 1.65 0 0 0 .494-.173c.123-.08.388-.114.866-.1.66.005.706.018 1.13.303.502.34 1.36 1.186 1.913 1.89.207.263.462.524.566.58s.284.306.41.58c.214.466.218.52.09 1.094-.092.408-.663.666-1.302.588-.244-.03-.538-.102-.653-.16-.495-.252-1.434-.33-4.58-.388l-1.465-.04c0-.007-.223-.022-.495-.034s-.495.008-.495.045-.083.067-.185.067-.32.116-.483.257c-.277.24-.3.295-.34.792-.03.37-.016.534.047.534.05 0 .1.082.1.182 0 .197.378.6.728.778.426.216 1.082.82 1.135 1.044.03.123.102.242.163.266s.088.083.06.133.026.012.12-.084.17-.21.17-.255c0-.054.068-.055.208-.001a.67.67 0 0 0 .37.028c.272-.086 1.417-.098 1.836-.02.565.107 3.87.176 7.878.166 1.67-.004 1.845-.02 2.336-.19.26-.092.724-.183 1.03-.2.462-.028.686-.098 1.346-.418 1.2-.582 1.544-.724 1.63-.67.043.027.122.014.174-.028.082-.066.523-.196.712-.21.034-.002.088-.042.12-.088s.235-.15.452-.23.45-.2.515-.244c.418-.348 1.435-.645 1.77-.517.12.046.34.083.486.083.444 0 1.328.235 1.633.435a1.82 1.82 0 0 1 .463.473c.33.536.222 1.86-.22 2.695-.07.13-.117.285-.105.342s-.02.153-.068.212c-.118.143-.124.775-.01 1.262.078.337.068.475-.072 1-.1.33-.214.676-.276.77-.086.132-.09.182-.015.213.066.027.04.09-.08.197-.098.086-.178.195-.178.243s-.03.086-.066.086-.116.098-.178.218-.176.288-.253.373-.123.2-.1.257.001.102-.046.102-.064.056-.037.124c.055.143-.313.667-.467.667-.055 0-.12.053-.146.12-.036.093-.197.12-.747.12-.386 0-.718-.017-.74-.037zM113.8 28.687l.63-.458c.24-.182.653-.302.87-.252.408.094.774.078.904-.04.078-.07.405-.132.87-.165.41-.03.8-.08.87-.116a11.29 11.29 0 0 1 .523-.225l.515-.2c.246-.1.45-.26.898-.7.457-.447.463-.458.435-.848-.015-.218-.002-.404.03-.415s.017-.172-.03-.36c-.1-.355-.412-.687-.596-.616-.058.022-.417.046-.797.052s-.776.044-.88.083-.46.086-.792.105c-.65.036-1.662.31-2.347.633l-.476.2c-.028 0-.11.066-.183.146-.133.148-.647.323-1.438.49l-.886.192c-.25.055-.48.07-.518.032s-.18-.025-.322.028c-.224.085-.254.13-.254.395 0 .194.056.355.158.458.087.087.158.176.158.2s.107.188.238.368c.176.244.238.416.238.67 0 .532.23.698 1.013.727l.62.023zm-18.986.19c-.012-.01-.132-.037-.268-.06s-.368-.093-.515-.16-.39-.146-.542-.177-.33-.084-.396-.12-.175-.084-.24-.11-.297-.152-.515-.282-.53-.294-.693-.365-.297-.156-.297-.19-.196-.264-.435-.513-.435-.483-.435-.52-.045-.114-.1-.172a3.05 3.05 0 0 1-.435-.843c-.102-.512-.15-1.01-.102-1.042.152-.105.208-.417.193-1.07a4.33 4.33 0 0 1 .142-1.306l.2-.792a.87.87 0 0 1 .11-.285c.038-.048.087-.28.11-.515a3.97 3.97 0 0 1 .128-.694c.057-.173.06-.284.01-.317-.136-.087-.49-.92-.53-1.243-.052-.422.09-.663.472-.794.4-.14.55-.138.845.015a1.94 1.94 0 0 0 .451.162c.114.02.43.105.704.19.387.12.762.154 1.707.163 1.17.01 1.226.004 1.633-.202.34-.172.477-.202.708-.154.386.08.507.062 1.197-.18.714-.25.918-.387 1.025-.684.09-.246.016-.46-.24-.705-.08-.076-.184-.284-.23-.46-.093-.345-.08-1.25.02-1.312.033-.02.06-.143.06-.273 0-.167.088-.325.304-.543.35-.354.755-.452 1.53-.37a5.1 5.1 0 0 0 1.04-.034l.93-.112c.2-.016.533-.12.744-.233s.43-.204.487-.204.22-.1.364-.22.363-.272.488-.336c.237-.12.936-.806.99-.972.017-.052.17-.238.337-.413.328-.342.776-1.197.718-1.372-.02-.058.098-.243.262-.41.39-.398.612-1.017.52-1.434-.065-.3-.025-.624.12-.98.073-.18.464-.594.56-.594.036 0 .318.125.627.278.892.44 1.255 1.003 1.38 2.137.078.704-.007 1.18-.28 1.584-.09.13-.227.504-.308.83s-.21.682-.29.792-.158.3-.178.444-.2.482-.403.77c-.27.384-.377.623-.404.885a1.42 1.42 0 0 1-.209.593c-.195.263-.225.64-.066.833.17.204.534.362 1.22.53.616.15.676.15 1.67.026l1.306-.16 1.01-.155c.185-.032.337-.093.337-.135s.12-.126.264-.186.3-.157.347-.214c.164-.205.35-1.048.38-1.722.017-.378.07-.846.12-1.04.246-.97.315-2.175.16-2.757-.05-.18-.06-.374-.027-.427s.067-.124.073-.157a.89.89 0 0 1 .033-.119c.048-.132.034-2.87-.015-2.87-.03 0 .017-.187.1-.416s.17-.603.2-.832c.047-.527.21-.923.448-1.08.162-.106.264-.11.818-.017.348.058.775.16.95.227l.748.255c.237.073.518.2.624.285s.243.152.305.152c.123 0 .658.488.66.602 0 .04.057.178.127.31.102.19.115.36.068.87l-.06.853c-.001.185-.027.212-.167.173-.11-.03-.133-.023-.065.024.056.04.12.246.142.46l.086.588c.08.352.085.745.014.99-.04.13-.067.755-.063 1.386.008 1.267.018 1.427.1 1.556.03.05.046.406.036.793-.017.647-.003.725.18.956.518.656 1.28.748 5.24.63l2.084.022c.052.083.184.096.854.085.208-.004.488.05.623.12.162.084.336.1.512.077.46-.086.316-.25-.385-.44-.36-.097-.723-.225-.81-.286s-.21-.1-.277-.1-.223-.054-.348-.12-.26-.118-.3-.118-.128-.044-.194-.1c-.277-.227-1.298-1.234-1.298-1.28 0-.09-.43-.713-.658-.957-.35-.376-.428-.582-.516-1.402-.07-.652-.064-.817.043-1.09.07-.176.152-.32.184-.32s.08-.085.106-.188.146-.252.266-.33c.235-.152.575-.513.575-.6 0-.033.034-.06.076-.06s.162-.087.268-.193c.418-.418 1.075-.333 2.23.29.568.307.91.62 1.188 1.09l.25.418c.185.307.746.813 1.094.985l.72.356c.2.098.423.235.497.304a8.69 8.69 0 0 0 .727.504l1.053.686c.254.17.496.307.538.307.14 0 .554.245 1.01.6l.45.35 1.66.04 2.312.025c.318-.013.462.037.93.322.493.3.59.332.887.287.22-.033.35-.098.378-.2.024-.077.117-.218.205-.312.235-.252.582-.222.974.084l.43.336c.315.245.534.558.9 1.284l.406.808-.096.498c-.053.274-.147.576-.208.672s-.092.226-.068.29.006.138-.04.167-.085.3-.085.647c0 .644-.032.735-.456 1.287-.454.592-.558.91-.57 1.743l-.042.797c-.018.03-.05.336-.074.68-.097 1.47-.15 1.848-.337 2.423l-.218.792a1.18 1.18 0 0 1-.113.358 1.11 1.11 0 0 0-.093.435c-.001.357-.138.825-.285.972-.067.067-.224.12-.35.12s-.25.036-.276.08-.144.056-.26.026a1.71 1.71 0 0 0-.332-.052c-.066.001-.144-.035-.172-.08s-.12-.085-.203-.09c-.253-.02-.974-.508-1.116-.757-.073-.13-.17-.235-.213-.236-.16-.003-.303-.148-.323-.33-.01-.102-.026-.185-.033-.185a.54.54 0 0 1-.042-.155c-.016-.085-.063-.228-.105-.317-.315-.672-.37-.823-.376-1.033-.02-.613-.137-1.465-.2-1.465-.08 0-.026-1.76.074-2.454.072-.496.065-.85-.018-1.043-.032-.073-.067-.18-.08-.238s-.05-.17-.084-.25a1.12 1.12 0 0 1-.075-.277c-.007-.072-.077-.26-.156-.417-.167-.332-.4-.375-.942-.178-.363.132-.606.156-2.18.22-.7.028-1.112.013-1.218-.044s-.178-.06-.2-.008c-.077.122-1.7.287-2.623.265-.46-.01-1.08-.08-1.386-.158-.48-.12-.923-.137-3.286-.127l-3.88.108-2.93.175c-.283.01-.55.045-.594.077s-.507.05-1.03.04c-.763-.015-1.012.01-1.267.12-.174.077-.495.157-.713.178-1.22.12-1.802.207-1.9.29-.146.12-.94.176-2.77.2l-1.702.063c-.568.147-1.447.235-2.54.253-1.127.02-2.608.2-3.714.454-.196.045-.695.13-1.108.187-.88.123-1.188.196-1.94.464-1.128.402-1.988.784-2.296 1.02s-.317.262-.317.7c0 .385-.036.492-.257.772-.142.18-.257.364-.257.412s-.03.088-.066.088c-.085 0-.09.043-.14 1.01-.028.556-.013.812.046.812s.07.25.037.812l-.048.93c.004.427-.11.747-.39 1.084-.17.204-.363.403-.43.44-.123.07-.9.212-.93.173z"/><path d="M228.387 50.378a7 7 0 0 1-.56-.226c-.243-.107-.457-.18-.477-.16s-.172.004-.34-.033a9.11 9.11 0 0 0-.88-.119c-.317-.03-.644-.087-.728-.13-.09-.045-.417-.055-.787-.023-.637.054-.89-.005-1.597-.37-.176-.09-.29-.12-1.08-.262a9.33 9.33 0 0 1-1.084-.275c-.46-.155-.882-.227-2.123-.364a10.2 10.2 0 0 1-1.838-.39c-.197-.07-.43-.104-.518-.077a.33.33 0 0 1-.271-.041c-.11-.087-.604-.13-2.182-.195l-.987-.067c-.66-.114-1.218-.247-1.398-.334-.113-.054-.354-.087-.534-.073-.84.066-1.11.06-1.685-.034l-1.932-.4c-.045-.03-.306-.08-.58-.105s-.624-.1-.78-.16c-.328-.13-1.022-.203-2.434-.25-.55-.02-1.168-.07-1.375-.115-.312-.067-.443-.056-.77.07-.346.13-.564.146-1.732.12-.735-.017-1.503.005-1.706.05s-.6.076-.88.072l-1.004-.017c-.27-.005-.882-.005-1.357 0l-1.274.008c-.4-.001-1.48.125-1.75.206-.078.023-.29.064-.47.1l-.637.112c-.173.036-.46.032-.654-.01-.41-.09-.983.02-1.56.293-.314.15-.483.177-.9.15-.288-.018-.642 0-.786.04-.194.054-.37.036-.68-.07-.462-.157-.73-.456-.732-.814 0-.147-.08-.27-.247-.39-.33-.234-.598-.775-.53-1.068.126-.55.4-1.018.806-1.376.457-.402 1.723-1.264 1.857-1.264.107 0 .252-.265.252-.46 0-.296.728-.885 1.094-.885.132 0 .3-.12.517-.368.396-.453.426-.546.436-1.322.007-.554.04-.677.296-1.126.158-.277.288-.597.288-.7s.094-.36.208-.548c.425-.698.6-2.272.29-2.573a3.06 3.06 0 0 0-1.113-.554c-.156-.03-.257-.106-.275-.205-.016-.085-.15-.28-.3-.432-.646-.66-.87-1.768-.513-2.542l.17-.407c.026-.076.22-.244.43-.373a5.85 5.85 0 0 0 .698-.514c.173-.154.335-.28.36-.28.075 0 .9-.56 1.134-.778s.718-1.085.718-1.3c0-.075-.074-.275-.164-.445-.49-.927-.565-2.062-.235-3.615l.17-.803-.3-.814c-.346-.937-.375-1.5-.106-2.013.292-.567.96-1 1.3-.823.072.035.363.1.646.144.927.144 1.485.504 2.045 1.317.147.214.438.514.647.667.496.364.664.592.787 1.07.082.32.138.4.294.42.365.05.61-.075 1.112-.567.52-.508.672-.62 1.343-.974.216-.114.498-.3.627-.416.245-.218.547-.718.547-.905 0-.06.074-.174.164-.253s.164-.174.164-.212.087-.2.193-.364c.328-.5.804-1.62.88-2.068.04-.235.13-.49.203-.566.194-.207.52-1.195.58-1.76.047-.44.033-.5-.125-.648-.166-.145-.194-.147-.44-.03-.145.07-.69.28-1.21.47l-.973.406c-.015.034-.098.06-.185.06s-.158.03-.158.07-.217.16-.482.27-.607.305-.76.43c-.444.367-.77.457-1.635.452-.664-.004-.85-.036-1.233-.21-.507-.23-.78-.447-1.08-.854-.536-.725-.646-1.585-.273-2.128.227-.33.926-.712 1.847-1.01a4.83 4.83 0 0 0 .872-.405c.23-.142.453-.257.493-.256s.444-.174.896-.39.99-.438 1.192-.492.462-.142.575-.196.428-.157.7-.23a8.67 8.67 0 0 0 .863-.282c.334-.137.832-.28 1.644-.474.455-.108 1.564-.48 2.02-.68.47-.204.94-.678.94-.95 0-.1.05-.2.11-.245s.178-.24.26-.46.177-.432.21-.475.085-.196.116-.34c.07-.314-.056-.492-.348-.492-.2 0-.773.285-.83.412-.015.035-.1.063-.186.063-.17 0-.835.584-.92.81-.064.168-.47.337-.972.402-.33.043-.403.025-.563-.14-.197-.202-.185-.497.04-.914a5.02 5.02 0 0 0 .209-.463c.056-.146.31-.47.562-.72s.52-.565.596-.7c.302-.542 1.625-1.26 2.37-1.288.922-.035 1.03-.013 1.35.28.168.152.335.277.37.277.17 0 .85.436.972.623l.436.605a3.76 3.76 0 0 1 .45.81c.13.355.137.48.06.87-.17.855-.33 1.445-.42 1.55-.164.19.112.45.48.45.175 0 .554.053.84.117.622.14 1.856.052 2.777-.196a21.14 21.14 0 0 1 2.673-.316c.212 0 .518.06.68.136.368.168 1.35 1.108 1.903 1.822l.703.848c.158.172.287.374.287.45s.037.16.082.188c.144.086.1.733-.09 1.064-.128.237-.283.37-.617.526-.4.188-.513.206-1.095.17-.436-.026-.753-.092-.966-.202-.88-.454-1.07-.518-1.55-.53l-1.315-.075c-.56-.043-.933-.035-1.17.028-.21.055-1.32.105-2.786.127l-2.625.153c-.255.16-.667.877-.778 1.353-.103.44-.605 1.497-.828 1.74-.155.168-.693 1.456-.825 1.97-.073.285-.273.626-.54.918-.302.332-.5.63-.686.986-.107.216-.31.52-.45.673-.368.406-.645.785-.87 1.19-.108.196-.25.42-.315.495-.148.174-.28.39-.532.872-.185.355-.494.69-.635.69-.035 0-.172.17-.305.376s-.7.83-1.262 1.382c-.944.93-1.053 1.014-1.47 1.117-.63.155-1.02.094-1.296-.207l-.64-.644c-.417-.403-.53-.655-.752-1.667-.066-.304-.082-.316-.377-.308-.733.022-1.294.53-1.78 1.614l-.443.93c-.137.273-.228.515-.203.54.126.122.58.038.88-.162a1.27 1.27 0 0 1 1.178-.128c.124.046.514.35.865.674.48.445.66.67.727.912.134.482-.014.918-.415 1.224l-.822.685a9.4 9.4 0 0 1-1.076.791l-.603.41c-.015.033-.073.06-.13.06s-.253.125-.438.277-.367.277-.405.278c-.13.002-.59.52-.645.725-.098.375.46.598.846.338.18-.12.722-1.097.706-1.27-.01-.12.533-.13.833-.017.416.158 1.158.674 1.465 1.02.555.625.882 1.497.694 1.856-.124.238-.574.673-.696.673-.06 0-.107.03-.107.064s-.132.114-.292.175c-.343.13-.73.562-.75.842-.024.3-.195.763-.34.922a.65.65 0 0 0-.149.269c-.01.07-.05.148-.088.174-.108.075-.27.473-.27.665 0 .096-.05.264-.107.372s-.158.376-.22.594-.18.513-.263.656-.15.322-.15.4-.073.277-.163.446-.2.42-.25.56c-.104.303-.865 1.048-1.215 1.2-.29.118-.486.372-.56.732-.08.39.06.49.698.49.3 0 .933.072 1.408.16s.956.143 1.07.122c.664-.12 1.48-.126 1.76-.012.27.11.34.107.77-.025.617-.19 1.68-.284 1.9-.17.256.132.573-.04.632-.345.035-.18-.022-.393-.214-.793-.21-.438-.27-.68-.302-1.225-.022-.374-.076-.745-.12-.826-.143-.258-.105-.805.073-1.05.29-.4.667-1.603.63-2.01a5.83 5.83 0 0 0-.146-.673c-.08-.302-.128-.827-.13-1.44-.001-.56-.036-.986-.084-1.014s-.063-.127-.04-.222c.163-.65.165-2.56.003-3.23-.06-.252-.09-.48-.062-.505s.058-.106.07-.18c.116-.763.93-1.36 1.715-1.26.384.05 1.302.396 1.616.612.275.19.44.188.942-.004.22-.084.71-.21 1.086-.28a6.71 6.71 0 0 0 1.142-.322c.252-.107.665-.215.92-.24a3.66 3.66 0 0 0 .749-.152 6.36 6.36 0 0 1 .74-.203c.25-.052.563-.15.7-.22s.284-.132.33-.142a11.64 11.64 0 0 1 1.592-.242c.333-.025.796-.116 1.028-.202.533-.197 2.75-.3 3.34-.14l.658.134c.617.086 1.717.72 2.397 1.385a2.91 2.91 0 0 0 .617.409c.51.25.878.622 1.102 1.113.15.328.164.43.088.673l-.303.958c-.2.63-.215.792-.237 2.534-.017 1.375.006 1.99.09 2.36.1.44.1.53-.01.744-.083.16-.14.574-.17 1.202l-.085 1.398c-.023.242-.017.464.013.493s.057.65.06 1.38c.003.82.038 1.36.09 1.4.14.133.663.256.97.23a1.85 1.85 0 0 0 .594-.191c.244-.132.5-.174 1.183-.2l3.403-.244c.337-.114.944-.13 1-.027.04.064.428.01.654-.1.436-.194 1.158-.367 1.245-.3.052.04.348.065.658.056.475-.014.628-.057.974-.27a4.12 4.12 0 0 0 .653-.5c.133-.136.3-.248.35-.248s.108-.03.108-.064.13-.113.288-.173.288-.132.288-.16c0-.105.973-.335 1.193-.282.47.113 1.13 1.086 1.135 1.67.003.332-.06.834-.155 1.253-.06.262-.5.713-1.303 1.365-.363.29-.544.513-.714.873a5.39 5.39 0 0 1-.534.868 7.79 7.79 0 0 0-.589.903l-.35.596c-.036.043-.092.222-.124.396-.132.718-.693 1.57-1.15 1.74-.243.09-.815.174-.95.138zm-17.8-7.023c.33-.067 1.026-.115 1.694-.116 1.204-.002 1.313-.02 1.678-.276.348-.244.462-.562.5-1.392l.092-.968c.082-.313-.117-.487-.427-.373-.275.1-1.36.073-1.438-.037-.035-.048-.098-.043-.17.014-.147.118-1.452.322-2.436.382-.423.026-.897.098-1.054.16s-.44.11-.628.103c-.595-.02-2.197.105-2.242.175-.024.037-.198.067-.388.068-.416.001-.98.142-1.063.266-.15.225-.01 1.06.22 1.3.14.146 1.154.413 1.773.467.294.026.877.043 1.295.038.624-.007.808.02 1.028.148.32.188.786.2 1.566.04zm-4.135-5.068l1.1-.235c.27-.065.64-.12.822-.12.282-.003.388-.06.74-.395.226-.216.453-.393.504-.395s.14-.057.196-.124c.12-.14.508-.317.86-.393a4.87 4.87 0 0 0 1.457-.687c.275-.2.312-.278.312-.58 0-.34-.002-.344-.358-.417-.39-.08-.857-.044-1.016.078-.055.042-.258.067-.452.054-.366-.023-1.01.12-1.09.24-.068.106-.7.163-2.226.202-1.45.037-1.622.07-2.52.467-.257.114-.506.207-.552.207-.16 0-.22.28-.217 1.03l.003.75.41.217c.487.257 1.054.286 2.014.103zm-1.357-5.58l.56-.113c.128-.022.35-.075.493-.117s.76-.093 1.37-.113l1.1-.036.912-.446.987-.446c.04 0 .186-.06.322-.132.2-.102.574-.144 1.685-.184l1.556.004c.203.1.578-.082.64-.31.104-.377.064-.837-.102-1.16-.25-.486-.613-.62-1.766-.643-.52-.01-1.112.012-1.315.05l-1.85.427c-.195.1-1.17.337-1.712.398-.197.022-.863.225-1.484.45-.22.08-.458.146-.527.146s-.24.08-.38.18a6.34 6.34 0 0 1-.624.368c-.203.104-.446.255-.54.336s-.207.147-.253.147-.158.08-.25.178c-.643.688.02 1.265 1.166 1.012zm-28.2 16.053c-.136-.046-.303-.13-.373-.188s-.328-.193-.575-.3c-.803-.35-1.06-.687-1.553-2.028-.11-.304-.338-1.135-.378-1.386-.235-1.48-.3-3.804-.12-4.236.01-.022.014-.062.01-.1s.03-.17.074-.317.118-.712.163-1.256l.12-1.346.24-2.02.084-.576c.05-.347.03-.48-.12-.792-.236-.484-.225-1.016.043-2.06.113-.44.205-.906.205-1.035s.034-.32.075-.425.1-.58.13-1.054c.098-1.576.203-2.49.306-2.668.056-.097.126-.4.155-.65s.116-.69.193-.95c.185-.632.18-1.282-.033-3.72l-.066-1.78c.006-.528-.034-1.06-.094-1.264-.13-.444-.19-1.874-.093-2.204.067-.223-.057-1.236-.207-1.695-.024-.075-.04-.324-.036-.554.015-.702.006-.772-.12-1.01-.07-.13-.432-.428-.843-.692-.776-.5-1.07-.868-1.083-1.357-.008-.33.208-.783.437-.917.095-.055.617-.162 1.16-.236 1.03-.14 1.506-.243 2.672-.573l3.635-1.2c.26-.1.565-.184.68-.184.23 0 1.015-.24 1.55-.473.732-.32 1.425-.42 2.537-.372 1.023.044 1.263.1 1.573.36.084.07.176.122.206.114.06-.016.495.16.927.378.164.083.364.15.442.15.148 0 .676.275.82.428.045.048.212.15.37.23.545.27 1.594 1.166 1.944 1.663.13.183.27.358.317.39s.083.084.085.12.102.27.223.52c.333.69.18 1.153-.54 1.63a4.13 4.13 0 0 0-.713.673c-.203.245-.41.445-.462.445-.165 0-.698.594-.93 1.036-.403.767-.51.944-.578.944-.036 0-.087.1-.112.22-.03.14-.132.26-.277.328l-.512.234a2.97 2.97 0 0 0-.635.464c-.195.185-.398.336-.45.336s-.296.148-.54.328c-.388.288-.493.328-.87.328-.236 0-.65-.06-.916-.136-.52-.146-.612-.14-1.774.125-.677.154-1.562.51-1.562.626 0 .1-.635.312-.892.312-.127 0-.495.09-.82.198s-.66.198-.745.198c-.285 0-.422.335-.422 1.03 0 .845.135 1.16.526 1.23.24.043.377.006.767-.207 1.504-.824 2.907-1.323 3.973-1.41.695-.058 1.626.055 1.994.24.12.06.445.356.722.656s.638.633.803.74c.532.343.77.602 1 1.105.292.61.314 1.35.077 2.57l-.195 1.093a3.03 3.03 0 0 1-.142.554l-.164.435a13.6 13.6 0 0 1-.255.587c-.108.236-.177.433-.155.437.06.012-.132.222-.786.862-.47.46-.656.587-.987.67-.4.105-1.055.45-1.434.77-.118.1-.433.216-.74.275l-.612.144c-.043.023-.524.03-1.07.015-1.4-.038-2-.02-2.136.06-.047.028-.14.056-.2.062-.406.036-.966.133-1.037.18-.318.2-.538.814-.567 1.558-.006.174-.062.656-.124 1.07-.085.573-.1.878-.024 1.267.048.282.07.958.05 1.502l-.037 1.108a7.88 7.88 0 0 1-.079.633c-.043.283-.095.89-.115 1.346l-.073 1.03a4.02 4.02 0 0 0-.042 1.522l.11.734c.028.262.145.627.238.74.048.06.092.397.098.752.015.9.12 1.715.26 1.98.185.35.204.91.042 1.177-.288.47-.978.658-1.62.44zm3.21-21.16c.314-.158.632-.358.708-.444.08-.092.3-.176.508-.205.43-.057.944-.486 1.222-1.02a4.57 4.57 0 0 1 .348-.554c.56-.726.78-1.082.83-1.334s.034-.287-.14-.327c-.106-.025-.36-.01-.563.033l-1.31.277c-1.067.225-1.6.386-1.773.536-.266.23-.368.3-.436.3-.04 0-.158.09-.264.198s-.162.198-.125.198.012.062-.056.14c-.306.34-.412 1.596-.182 2.15.197.474.376.48 1.23.05zm-.597-10.5c.256-.046.568-.134.693-.197s.27-.115.32-.115.23-.09.4-.202.627-.274 1.017-.364c.954-.218 1.103-.306 1.502-.88.468-.674.867-1.067 1.307-1.284.48-.238.63-.407.7-.793.03-.174.178-.53.325-.792.372-.66.49-1.16.418-1.8-.048-.432-.093-.547-.255-.65-.224-.14-.475-.16-.69-.048-.08.042-.29.082-.467.09-.29.012-2.022.4-2.745.63-.158.048-.584.107-.945.13-.488.03-.744.09-.994.23-.185.104-.385.19-.446.19-.223 0-1.162.498-1.288.683-.12.175-.118.232.015.684a3.51 3.51 0 0 1 .132.901c-.007.234.055.588.146.83.25.667.278.972.13 1.392a4.26 4.26 0 0 0-.178.741c-.038.3-.017.39.145.534.222.2.168.193.758.088zm24.352 9.362c-.355-.22-.833-.744-1.072-1.178-.167-.303-.2-.455-.17-.787.02-.226.073-.478.118-.56.107-.193.416-.46.536-.462.2-.005.962-.218 1.005-.285.025-.04.095-.07.156-.07.13 0 1.14-.578 1.466-.84.126-.1.46-.292.74-.423.73-.342.952-.557 1.637-1.578.12-.178.2-.813.157-1.256-.007-.073-.193-.1-.713-.068l-.745.07c-.087.083-.54-.207-.612-.393-.097-.244-.012-.784.142-.907.064-.05.272-.107.462-.125.26-.024.393-.09.533-.26a1.07 1.07 0 0 1 .452-.302l.636-.178a3.01 3.01 0 0 0 .452-.154c.17-.105 1.666-.62 2.18-.75l1.07-.287c.294-.083.904-.186 1.357-.228l1.4-.162c.534-.08.597-.073 1.063.122s.876.512.876.678c0 .07.12.213.494.6.112.112.135.193.08.277-.043.065-.078.212-.08.327-.003.502-.9.965-1.744.9-.248-.022-.617.008-.856.07-.29.076-.482.086-.617.033-.34-.132-2.214-.11-2.498.028-.24.118-.246.133-.22.633.03.593.203 1.175.423 1.42s.465.25 1.77.022c.18-.03.55-.05.822-.042 1.385.042 1.85.032 2.292-.047.467-.083.504-.077 1.07.183.948.436 1.745 1.233 2.224 2.223.4.83.396.803.222 1.18-.088.192-.236.388-.327.435-.233.12-.977.1-1.37-.035-.18-.063-.422-.115-.537-.115s-.294-.06-.4-.13c-.14-.094-.208-.104-.25-.037-.08.124-1.37.055-2.003-.107-.565-.145-.814-.154-.94-.034-.105.1-.35.24-.763.428l-.493.234c-.268.134-.994.28-1.39.28-.36 0-.817.14-1.527.467-1.034.476-1.038.477-1.83.465-.495-.008-.795.02-.86.082-.054.052-.167.094-.25.094s-.36.09-.61.202c-.627.276-1.22.415-2.02.472-.583.042-.71.027-.924-.104z"/><path d="M279.994 51.603c-1.185-.33-1.33-.39-1.723-.734-.223-.195-.43-.434-.46-.53a.98.98 0 0 0-.165-.303c-.06-.07-.182-.327-.267-.57l-.362-.902c-.187-.415-.21-.587-.26-1.805-.037-.952-.023-1.508.05-1.9.073-.404.08-.658.02-.938-.045-.214-.06-.758-.036-1.227.034-.626.018-.894-.06-1.04-.106-.197-.1-.198-1.272-.198-.64 0-1.166.027-1.166.06s-.057.06-.126.06-.22.05-.337.113c-.22.117-1.004.268-1.755.337-.24.022-.685.11-1 .198l-.832.194a5.18 5.18 0 0 0-.594.124c-.174.048-.976.094-1.783.102-1.17.01-1.553.043-1.9.157-.24.08-.47.168-.515.2-.128.092-.606.252-1 .33l-1.517.25c-.188.014-.396.11-.594.277-.44.368-.456.38-.71.512-.127.066-.284.2-.35.3-.234.354-.632.705-.81.714-.253.013-.31.026-.57.137-.214.09-.265.075-.664-.2-.653-.45-1.343-1.174-1.44-1.514-.047-.16-.106-.602-.133-.98-.046-.655-.036-.7.2-1.2.307-.635.598-.887 1.16-1.004.24-.05.457-.126.484-.17s.108-.054.18-.023c.29.125 1.543.242 1.902.176l.923-.135 1.07-.152 1.268-.174.91-.154.515-.2.515-.2c.203-.08 1.608-.315 1.876-.315.112 0 .248-.053.302-.12s.19-.12.305-.12.625-.143 1.136-.318c.695-.238 1.046-.317 1.388-.31.79.013.85.01 1.078-.047a.61.61 0 0 1 .419.048c.17.1.273.08.767-.075.314-.1.75-.21.967-.244a6.3 6.3 0 0 0 .785-.191c.214-.07.486-.127.604-.127.35 0 .452-.24.38-.902-.098-.897-.315-1.38-.726-1.61-.235-.132-1.128-.126-1.603.01-.215.062-.8.136-1.302.166s-1.013.103-1.14.164-.257.092-.294.07-.13-.005-.208.04a6.55 6.55 0 0 1-1.356.446c-.145.02-.395.094-.555.163s-.398.122-.53.116-.433.06-.672.148-.478.16-.53.16-.227.09-.387.197-.322.177-.36.154-.113-.017-.165.015-.188.06-.3.06a.72.72 0 0 1-.301-.059c-.052-.032-.13-.037-.174-.01-.125.077-1.012-.356-1.145-.56a2.77 2.77 0 0 1-.359-1.077c-.002-.333.276-.892.524-1.057.148-.098.394-.157.703-.168.26-.01.832-.072 1.268-.137l1.426-.173c.35-.03.83-.107 1.07-.172l.792-.175c.196-.03.53-.152.745-.268.227-.123.513-.21.69-.21.165 0 .32-.03.344-.07.04-.067.882-.213 1.024-.18.037.01.115-.023.172-.07.138-.115.603-.163 1.658-.17l.868-.007.2-.243.47-.522c.147-.153.318-.357.38-.452.142-.216.164-.93.034-1.087-.152-.183-.637-.223-1.118-.092-.24.065-.554.12-.697.12s-.6.095-1 .21l-.887.223c-.16.013-.535.158-.753.3-.065.04-.232.125-.37.188s-.274.152-.302.196-.154.08-.282.08-.42.07-.65.158-.508.158-.62.158-.236.03-.277.066c-.185.162-.86.346-1.132.308-.402-.057-1.5-.587-1.598-.773-.045-.084-.108-.145-.14-.135-.093.03-.368-.2-.546-.455-.244-.352-.3-.676-.15-1.077.067-.192.122-.41.123-.483s.128-.23.283-.35c.27-.206.335-.217 1.604-.28 1.92-.093 2.52-.174 2.828-.38.044-.03.204-.064.356-.077s.295-.05.317-.08c.04-.056.637-.216 1.05-.282.12-.02.218-.002.218.037s.14.023.3-.037.33-.088.356-.063.11-.01.185-.08c.19-.172.793-.39 1.13-.41.818-.048 1.416-.783 1.554-1.91.042-.347.02-.448-.157-.73-.113-.18-.275-.363-.36-.408-.203-.11-.926-.05-1.293.108-.162.07-.36.126-.44.126s-.375.072-.656.16l-.748.233c-.37.112-1.223.253-1.703.283-.372.023-.895.087-1.92.234-.278.04-.537.18-.537.29 0 .048-.073.067-.165.042-.21-.055-1.152.14-1.308.27-.065.054-.26.093-.43.086s-.313.014-.313.047-.156.047-.346.032-.574.033-.852.107l-.885.21c-.21.04-.53.177-.713.302-.462.316-.767.365-1.02.165-.213-.168-.438-.815-.3-.863.042-.014.076-.094.076-.176s.09-.21.202-.282.184-.18.16-.24c-.03-.076.033-.108.214-.11.408-.006.777-.174 1.344-.615.292-.226.57-.41.62-.41s.184-.052.3-.114c.353-.192.75-.346 1.042-.403.153-.03.325-.093.383-.14.127-.103.272-.128 1.043-.185.467-.035.65-.086.857-.242.145-.11.245-.244.223-.3-.063-.163.2-.343.586-.402.195-.03.456-.106.58-.17.167-.084.4-.103.9-.072.703.045.736.035 1.38-.385.42-.274 1.118-.612 1.165-.565.117.117 1.722-.446 1.956-.686.318-.326.444-1.437.19-1.69-.122-.122-.183-.12-.88.042-.413.095-.905.168-1.095.162-.43-.014-1.564.147-1.754.25-.078.042-.488.2-.91.35l-.928.343c-.087.037-.408.13-.713.203s-.588.168-.63.21-.128.073-.193.073-.322.16-.572.356-.503.356-.563.356-.15.04-.2.09c-.116.116-.62.113-.93-.005l-.32-.12c-.165-.057-1.146-.938-1.146-1.03 0-.052-.074-.248-.165-.436-.14-.292-.16-.44-.123-1.024.04-.644.057-.696.293-.91l.25-.225 1.183.053c.68.03 1.224.022 1.278-.02.265-.203 1.527-.535 2.63-.693.342-.05.958-.21 1.574-.4.214-.07.665-.127 1-.13s.624-.028.624-.058c0-.108 1.566-.485 1.855-.446.25.034.302.01.42-.2.075-.126.16-.23.188-.23.093 0 .474-.88.545-1.258.05-.263.04-.418-.038-.562-.226-.426-.367-1.015-.373-1.566-.003-.317.017-.6.045-.627s.05-.146.05-.26c0-.294.294-.54.708-.592.19-.024.393-.08.45-.128.12-.1.735-.022 1.128.142.147.06.284.095.305.074s.16.014.312.077.3.093.354.066c.082-.05.39.124.66.374.177.165.2.17.358.07.08-.05.1-.102.032-.177-.126-.162-.127-.923-.001-1.46.15-.636.45-1.137.953-1.58l.408-.36.594.02c.663.022 1.367-.07 1.304-.173-.042-.068.45-.232.696-.232.076 0 .14-.03.14-.07 0-.107.693-.345.854-.293.08.025.214-.006.3-.07.125-.094.35-.107 1.184-.07 1.12.05 1.676-.05 2.22-.396.232-.148.64-.753 1.123-1.658.05-.097.132-.746.18-1.442l.13-1.485.045-.218h1.1c1 0 1.114.014 1.147.142.02.078.114.176.208.218.296.132.4.658.287 1.62-.05.457-.125.876-.17.93s-.064.1-.044.1.012.162-.018.36c-.05.337-.04.368.163.473.536.277 1.89.278 3.308.002.66-.13 1.788.01 2.316.284.175.09.5.34.72.553s.425.387.454.387.135.122.235.27.268.29.372.317.35.257.547.513.463.554.59.66c.244.205.575.78.605 1.05l.028.34c.006.11.044.162.097.13s-.024.145-.158.387-.245.48-.245.527c0 .18-.346.544-.643.678-.17.076-.308.164-.308.194 0 .212-.698.647-1.27.79-.296.074-.4.07-.594-.033-.13-.068-.266-.123-.303-.124-.132-.001-.528-.33-.484-.402.025-.04.005-.073-.043-.073s-.066-.036-.04-.08-.003-.08-.066-.08-.135-.082-.16-.18-.2-.322-.367-.495-.445-.545-.596-.83-.424-.67-.606-.857c-.284-.292-.372-.338-.614-.32-.613.045-1.37-.114-2.045-.428-.098-.046-.202-.06-.23-.03s-.105.008-.17-.046c-.215-.18-.916-.365-1.03-.273-.32.258-.42 1.152-.345 3.138.01.237-.022.454-.068.482s-.075.085-.063.124c.048.163-.17.566-.458.85-.28.274-.338.3-.63.26-.368-.048-.586-.152-1.02-.485-.17-.13-.42-.273-.554-.317-.16-.052-.34-.222-.523-.496l-.28-.417.002-1.392c.002-1.288-.01-1.398-.15-1.473-.212-.113-.74-.038-1.16.165-1.1.532-1.26.646-1.414.995-.134.304-.175.338-.364.302-.22-.042-1.073.34-1.073.48 0 .04-.1.2-.22.36-.218.285-.5.95-.606 1.38-.028.124-.126.25-.225.3-.447.178-.488.19-.86.228-.176.02-.763.566-.91.85-.066.128-.14.403-.166.61-.037.31-.018.4.105.5.082.067.105.1.05.072s-.1-.016-.1.025c0 .126.564.15.89.037.187-.065.355-.08.43-.037s.28.036.5-.008c.202-.042.528-.085.724-.095a20.73 20.73 0 0 0 1.149-.119l1.11-.118c.435-.023.965-.12 1.26-.233.27-.103 2.324-.11 2.86-.008.31.06 1.23.474 1.307.592.022.033.155.12.297.19s.257.17.257.217c0 .14.948 1.355 1.277 1.64.224.193.34.378.432.695.078.267.195.477.306.55.13.086.17.172.143.314-.02.108-.007.196.03.196s.074.092.08.205.1.3.208.416a1.16 1.16 0 0 1 .247.427c.028.12.166.337.307.484s.47.6.73 1.01c.404.63.473.8.462 1.076-.02.543-.168.75-.738 1.04-.474.24-.556.258-1.026.214-.28-.026-.55-.075-.594-.11s-.23-.07-.41-.08c-.305-.018-.357.012-.79.46-.255.264-.51.48-.565.48s-.1.042-.1.093c0 .115-.54.618-.744.694-.273.1-1.016-.064-1.15-.256-.067-.096-.328-.378-.58-.627s-.458-.503-.458-.566a.19.19 0 0 0-.119-.159c-.065-.025-.12-.082-.12-.127 0-.135-.312-.404-.62-.537-.493-.212-3.507-.202-5.36.017-1.78.2-1.908.295-1.985 1.312-.05.636.016 1.05.19 1.22.376.365.528.448.724.4.1-.028.322-.062.47-.077s.292-.064.32-.11.23-.107.445-.134.606-.112.867-.2c.667-.2 1.377-.343 1.703-.345.368-.003.815.062.934.136.053.033.128.04.166.016s.114.01.168.075a.36.36 0 0 0 .241.118c.08 0 .166.07.194.158.04.128.08.143.202.077s.142-.058.105.04.053.076.388-.072c.848-.375 2.13-.133 2.866.54.172.157.34.286.376.286s.064.055.064.122.166.3.368.516c.314.336.373.45.4.778.04.49-.215.922-.857 1.45l-.453.373-.78-.117-1.017-.192c-.286-.09-1.337-.172-2.556-.197-.49-.01-.916-.042-.944-.07-.09-.09-.456-.05-.615.07-.11.082-.362.116-.863.116-.535 0-.79.037-1.035.153-.18.084-.54.2-.8.257-.452.1-.48.12-.577.416-.132.403-.2 1.162-.147 1.416.074.294.633.5 1.18.413a7.35 7.35 0 0 1 .709-.064c.172-.003.273-.038.245-.084s-.01-.054.038-.025.32-.043.61-.16c.456-.187.555-.203.78-.122a1.74 1.74 0 0 0 .549.082c.16-.006.348.035.415.09s.122.072.122.036.043-.022.095.03c.114.114.43.126.497.02.026-.042.095-.057.153-.035s.162-.015.23-.084.228-.136.355-.15.34-.082.476-.15c.213-.106.25-.107.27-.007.02.092.06.082.2-.048.096-.1.25-.163.34-.163s.298-.103.46-.23.37-.252.464-.28c.148-.044.165-.026.126.13-.045.18-.043.18.123.033.12-.105.233-.134.39-.1a5.88 5.88 0 0 0 .48.081c.18.022.42.175.775.494l.738.625c.185.134.21.194.154.348-.038.102-.057.197-.043.21s.18.13.368.255c.27.18.374.32.49.653.164.466.2.905.072 1.214-.09.238-.753.676-1.025.678-.105.001-.307.09-.45.2-.198.15-.355.198-.66.198-.22 0-.4-.036-.4-.08s-.05-.08-.114-.08-.163-.07-.222-.154-.295-.248-.524-.363c-.373-.187-.477-.204-.995-.164l-.688.08c-.258.083-1.92.117-2.684.056-.458-.037-1.017-.043-1.243-.013a2.14 2.14 0 0 1-.792-.049c-.21-.057-.734-.098-1.173-.092-.908.013-.993.06-1.124.622-.154.658-.127.98.117 1.395.21.356.255.39.617.443.794.118 1.414.1 1.73-.05.178-.084.536-.154.868-.17.31-.014.797-.062 1.08-.108.394-.063.55-.06.673.018.266.166 2.24.073 2.47-.117.088-.073.405-.115.97-.13 1.18-.03 1.173-.032 1.58.113.302.107.794.137 2.744.163l4.22-.066c.12-.046.432-.103.693-.126l.792-.098c0-.01.125-.026.277-.04.4-.033 1.11-.173 1.576-.312.265-.08.404-.09.404-.035s.037.054.11-.008c.064-.053.2-.07.317-.04.28.07.76-.028.76-.155 0-.115.797-.757 1.198-.964.23-.12.322-.124.75-.04.563.112 1.125.052 1.555-.164.162-.08.355-.148.43-.148.19 0 .82.314.82.41 0 .043.147.22.327.393.325.312.327.318.276.75-.03.252-.134.566-.248.747-.108.172-.197.343-.197.38s-.07.133-.158.212-.158.183-.158.23-.09.184-.198.3-.198.245-.198.284-.067.13-.15.205-.172.247-.2.383-.098.304-.157.372-.13.225-.16.347c-.047.197-.025.234.187.314.132.05.24.12.24.157s-.04.042-.087.013-.19.022-.314.114-.248.168-.273.168-.142.09-.26.198-.255.198-.305.198c-.108 0-.346.56-.346.813 0 .097.07.3.154.428l.153.252-.332-.03c-.296-.028-.36-.002-.585.243-.14.15-.32.275-.4.275a.4.4 0 0 0-.246.099c-.067.067-.4.1-1.026.106l-1.085.056c-.393.12-.63.114-1.09-.034-.27-.087-.547-.218-.612-.292-.183-.206-.875-.552-1.353-.676-.236-.06-.768-.138-1.182-.17s-.806-.087-.872-.12c-.13-.07-1.46-.185-1.896-.166-.302.013-.736-.064-1.747-.3-1.86-.453-2.615-.54-4.793-.545-1.012-.003-1.426.012-3.17.113l-1.505.04c-.355-.005-.77.038-.942.098-.21.074-.443.09-.738.05-.63-.086-1.136.036-1.282.308-.133.247-.084 2.31.067 2.828.072.247.068.5-.01.635-.06.104-.176 1-.152 1.17a.37.37 0 0 1-.069.249c-.048.058-.08.136-.07.173s-.03.22-.09.406c-.085.27-.088.414-.013.713l.122.562c.016.103.07.213.122.245s.086.1.076.13.024.172.075.295c.123.298.118.374-.06.863-.085.23-.154.603-.154.83-.001.58-.347 1.19-.62 1.095-.053-.02-.117 0-.143.04-.097.156-.323.207-.592.132zm3.393-32.167c.137-.068.28-.104.32-.08s.19-.005.338-.066a2.12 2.12 0 0 1 .669-.109c.478.001.904-.082.904-.177 0-.037.073-.09.163-.12.223-.07.186-.47-.044-.484-.087-.006-.3-.067-.475-.136-.374-.148-1.21-.22-1.4-.122-.073.038-.394.086-.713.106-.797.05-1.6.155-1.706.227-.165.103-.213.588-.078.793.092.14.2.187.458.198.185.007.355.03.377.053.092.092.96.03 1.188-.084zm-24.097-3.37c-.08-.046-.166-.063-.192-.037s-.103 0-.172-.058-.28-.154-.47-.214c-.2-.063-.415-.202-.5-.33-.1-.122-.21-.222-.268-.222s-.104-.027-.104-.06-.105-.182-.234-.333c-.17-.198-.25-.392-.288-.706-.064-.51.002-1.934.096-2.084a.41.41 0 0 0 .042-.245c-.013-.078.03-.31.092-.515s.16-.632.21-.948c.086-.52.13-.61.448-.927.438-.437.75-.51 1.367-.325l.617.22a.44.44 0 0 0 .317.024 1.22 1.22 0 0 1 .263-.076c.6-.075.97-.222 1.505-.594.11-.076.252-.14.317-.145.406-.024.792-.13.792-.215 0-.055.098-.123.218-.152.36-.086.918-.51 1.232-.935.325-.44.5-.958.57-1.682.082-.844.24-1.19.726-1.585.25-.205.518-.355.63-.355a1.29 1.29 0 0 1 .876.421c.088.112.246.225.35.25.196.05.948.672.817.676-.04.001-.01.04.066.083s.14.137.14.206.09.208.198.31.2.265.2.365.067.267.148.372c.143.186.173.2 1.523.21 1.536.02 2.075.117 2.262.403.067.103.156.166.196.14s.123-.005.184.045.157.08.214.07c.263-.054 1.194.7 1.676 1.358l.373.475c.125.09.393.723.393.927a4.62 4.62 0 0 1-.13.757c-.107.44-.182.58-.416.774l-.425.37c-.214.202-1.22.174-1.643-.046-.178-.093-.375-.168-.438-.168s-.214-.087-.334-.194l-1.566-1.295c-.184-.145-.294-.185-.608-.223-.182-.022-.394-.073-.47-.114s-.285-.075-.464-.075c-.346 0-.465.125-.356.376.08.185.054.372-.126.89-.118.34-.153.68-.162 1.544-.014 1.397-.068 1.702-.358 2.007-.2.2-.29.244-.705.262-.3.013-.55-.02-.673-.092-.11-.062-.3-.12-.426-.126s-.258-.062-.296-.122-.07-.072-.07-.03-.037.026-.08-.04c-.055-.085-.077-.09-.078-.016-.001.06-.158-.017-.37-.178-.202-.154-.416-.28-.475-.28s-.107-.032-.107-.07-.088-.093-.196-.12c-.253-.064-1.04-.867-1.248-1.275-.09-.174-.196-.34-.237-.365s-.07-.074-.06-.106-.06-.143-.15-.248c-.26-.298-.585-.255-.96.126-.17.174-.376.317-.456.317-.3 0-1.064.99-1.39 1.807-.094.235-.127.52-.113.984.018.603.004.668-.178.85-.374.376-.75.485-1.057.307z"/><g fill="#fff"><path d="M25.99 47.837c-.208-.056-.446-.14-.53-.187l-.415-.212c-1.065-.51-1.608-.855-1.76-1.115-.033-.057-.094-.104-.136-.104s-.31-.254-.6-.564c-.695-.748-1.018-1.48-.943-2.137.028-.243.1-.543.158-.666s.108-.28.108-.348c.001-.142.805-.578 1.064-.578.175 0 .613-.133.833-.252.068-.037.247-.092.4-.124.218-.045.384-.186.778-.662.276-.333.526-.588.557-.567s.067.01.08-.025c.03-.075.49-.434.556-.434.025 0 .17-.132.324-.292s.363-.35.467-.42a1.42 1.42 0 0 0 .34-.387c.083-.142.317-.354.52-.47a2.54 2.54 0 0 0 .619-.538l.444-.558c.106-.128.192-.267.192-.3s.026-.077.058-.077.09-.083.132-.185.168-.234.282-.293c.157-.082.208-.167.208-.35 0-.134.025-.244.057-.244s.114-.14.185-.3l.283-.675c.196-.464.195-.496-.037-.77-.162-.19-.253-.226-.585-.226a6.02 6.02 0 0 0-.884.091c-.813.15-2.73.126-3.512-.044l-.793-.193c-.062-.025-.18-.06-.258-.076a.61.61 0 0 1-.227-.1c-.045-.038-.198-.094-.34-.123-.33-.068-1.522-.796-1.574-.96-.022-.068-.128-.254-.236-.413-.18-.264-.196-.357-.197-1.085 0-.642.025-.827.132-.956.073-.088.132-.22.132-.29 0-.264.41-.514 1.173-.715.414-.11.888-.262 1.054-.34l.49-.203c.104-.034.274-.145.378-.247s.332-.27.506-.375c.183-.11.327-.26.34-.356s.155-.247.322-.35.426-.3.58-.44.304-.257.332-.257.168-.11.3-.248.306-.248.365-.248.134-.05.167-.11.17-.195.3-.3.278-.3.324-.412.192-.3.325-.376c.41-.265 1.185-1.124 1.617-1.795.227-.352.437-.64.467-.64.056 0 .537-.71.537-.795 0-.026.063-.145.14-.266.173-.272.32-.707.363-1.086a5.95 5.95 0 0 1 .116-.619c.045-.182.09-.633.1-1.004s.04-.714.07-.765.177-.16.33-.247c.26-.144.325-.148.91-.046.346.06.686.162.754.226.162.15.646.39.785.39.1 0 .36.25.36.362 0 .033.1.197.222.365.305.418.684 1.23.684 1.464 0 .26.116.32.32.166.25-.19.488-.158.863.12.185.136.358.248.384.248s.136.09.242.198c.23.236.748.545.913.545.065 0 .16.046.213.103.16.174 1.092.108 1.346-.095.307-.245.987-.417 1.27-.322.125.042.567.154.982.248.462.105.843.243.982.355a1.41 1.41 0 0 0 .429.236c.11.03.253.108.316.176s.167.124.232.124c.137 0 .877.778 1.033 1.086a14.12 14.12 0 0 0 .374.655c.296.49.6 1.247.6 1.492 0 .463-.523 1.357-.838 1.433-.243.058-.44.216-1.007.813-.21.22-.62.58-.91.795s-.61.5-.712.61-.21.216-.242.216c-.155 0-.76.54-1.173 1.047-.328.403-.602.642-.96.843-.276.154-.6.4-.718.548s-.284.292-.368.322c-.215.075-.267.358-.085.465.08.047.18.063.22.035s.15.008.242.08a.74.74 0 0 0 .385.129c.252 0 .73.228.73.348 0 .045.052.06.116.033s.134.003.157.07.138.14.257.17c.386.093.795.496 1.1 1.086l.348.71c.094.25.9 1.387 1.006 1.435.06.025.1.096.1.157s.045.14.1.177.214.252.354.48l.307.454c.03.023.18.3.338.62s.36.67.45.784c.426.528 1.162 1.954 1.28 2.48.026.115.167.375.314.578.297.4.858 1.635.858 1.874 0 .084.042.2.092.254.056.06.092.338.092.7 0 .678-.097.885-.696 1.49-.618.625-.95.813-1.514.857-.418.033-.577.007-.876-.142-.2-.1-.488-.203-.64-.23-.274-.048-1-.433-1.223-.648-.065-.063-.297-.152-.514-.197s-.47-.138-.56-.207c-.185-.142-.55-.167-.62-.042-.026.046-.1.083-.163.083s-.214.076-.334.17-.43.205-.69.25-.542.11-.625.15c-.693.322-.944.46-.944.52 0 .038-.1.068-.222.068s-.243.037-.27.083-.274.083-.552.083-.617.035-.754.078c-.192.06-1.88.183-2.658.194-.555.007-2.02-.137-2.096-.207-.054-.05-.12-.065-.146-.035s-.13-.005-.23-.077-.202-.11-.226-.084-.087.007-.14-.042-.26-.088-.46-.086-.583-.036-.853-.083l-.674-.1a1.93 1.93 0 0 0-.997.342c-.16.15-1.78.524-2.238.515a3.72 3.72 0 0 1-.736-.109zm6.483-4.878c.214-.068.508-.14.654-.16l.283-.046a10.28 10.28 0 0 1 1.521.034c.04.027.092.016.115-.025.044-.078.743.15.787.257.04.096.283.074.596-.054l.436-.175c.083-.032.355-.053.604-.045.306.01.502-.027.604-.112.083-.07.208-.127.277-.128s.34-.128.604-.28c1.095-.637 1.276-.778 1.373-1.07.028-.084.117-.17.198-.195a.32.32 0 0 0 .193-.199c.025-.086.077-.156.116-.156.1 0 .09-.942.001-1.32-.038-.16-.087-.523-.1-.808s-.062-.555-.087-.6-.046-.54-.048-1.102c-.002-1-.005-1.025-.227-1.32-.124-.164-.27-.298-.324-.298s-.205-.107-.333-.238-.276-.262-.33-.29a9.23 9.23 0 0 1-.398-.251c-.432-.285-.8-.458-.946-.458-.074 0-.22.11-.326.248s-.216.248-.248.248c-.098 0-.656.428-.934.715l-.603.573c-.187.165-.422.435-.524.6-.223.362-.37.505-1.27 1.23-1.002.808-2.477 2.257-3.466 3.404l-.868.92-.406.384.147.302c.1.226.183.292.29.26a.57.57 0 0 1 .313.029c.093.038.483.09.866.11s.718.063.742.1c.073.08.314.055.725-.075zm2.71-11.527c.073-.095.132-.28.132-.413s.046-.26.102-.284.105-.148.108-.277c.006-.22.317-.666.465-.666.035 0 .26-.27.502-.598l.5-.646c.034-.026.197-.335.362-.688s.368-.735.45-.85.152-.256.152-.31.068-.167.15-.25.15-.195.15-.25.086-.163.19-.238.174-.167.153-.204c-.043-.076.237-.374.418-.443.066-.025.197-.226.29-.446s.218-.442.28-.494c.073-.062.094-.166.062-.306-.043-.185-.242-.32-.638-.43-.333-.092-1.435-.696-1.435-.787 0-.052-.05-.073-.113-.047-.067.028-.113.001-.113-.068 0-.064-.104-.197-.232-.296s-.265-.26-.306-.356l-.218-.465c-.08-.16-.145-.387-.147-.506s-.046-.255-.098-.302c-.073-.066-.096.001-.102.3-.01.476-.302 1.205-.653 1.634-.144.176-.29.413-.32.526-.102.366-.394.943-.6 1.185-.1.13-.185.253-.166.274s-.005.12-.052.218c-.125.258-1.2 1.707-1.266 1.707-.03 0-.077.108-.104.24s-.114.304-.195.384-.147.177-.147.216c0 .08-.28.452-.69.915-.712.806-.82.968-.818 1.238.003.394.212.642.6.698.175.026.336.078.358.116.05.1.7.404.835.404.057 0 .104.035.104.077s.062.1.138.125.22.13.318.233c.38.39 1.343.47 1.602.133zM2.43 23.25c-.026-.046-.25-.083-.498-.083s-.573-.056-.722-.124a1.36 1.36 0 0 0-.415-.124c-.08 0-.164-.056-.188-.124s-.09-.124-.15-.124-.105-.037-.105-.083-.066-.155-.147-.243c-.263-.288-.274-.69-.034-1.223.118-.26.325-.613.462-.783s.248-.36.248-.424c0-.12.557-.71.668-.71.035 0 .196-.13.358-.288l.484-.474c.104-.102.4-.263.68-.358s.6-.24.755-.325a1.58 1.58 0 0 1 .475-.179c.116-.015.303-.078.415-.14s.438-.138.724-.166c.323-.032.66-.13.894-.257.206-.113.414-.206.462-.207s.17-.07.272-.157.23-.135.286-.112.167-.022.246-.1c.09-.1.364-.172.733-.22l.93-.155a4.68 4.68 0 0 1 .642-.093c.166-.008.383-.083.482-.166s.24-.15.312-.15.473-.186.9-.413.844-.413.948-.413.208-.03.23-.07.143-.063.27-.054.23-.017.23-.055.063-.027.14.026c.085.058.198.07.283.03l.18-.082a6.01 6.01 0 0 0 .227-.099c.104-.047.324-.112.488-.145s.386-.108.49-.167c.186-.104.68-.215 2.23-.5l1.057-.218.485-.127c.1-.026.3-.135.445-.242s.292-.194.33-.194.162-.076.277-.17.428-.223.695-.3.555-.155.638-.197.474-.136.868-.2l1.27-.255c.304-.067.576-.105.606-.085s.257-.02.505-.088c.6-.165 1.146-.252 1.924-.306.85-.06 1.35-.18 1.6-.39.117-.094.26-.15.32-.127s.126.008.15-.035c.06-.107 1.072-.1 1.133.007.033.06.084.055.158-.013.068-.062.488-.113 1.107-.136.99-.036 1.168-.083 1.715-.446a3.18 3.18 0 0 1 .321-.173c.114-.054.228-.168.253-.253.075-.26-.13-1.796-.277-2.072-.075-.14-.256-.72-.404-1.286l-.454-1.692c-.102-.363-.207-.87-.232-1.123-.042-.422.083-.423.16-.73l.206-.268.807.03c.514.02.85.07.925.137.065.06.163.098.218.087.194-.04.734.107.822.223.05.065.117.117.15.117s.15.1.26.2.454.302.767.427c.638.254.447-.008.626.1l.392.236.195.262c.093.125.06.01.138.15.02.038.03.06.06.125.086.2.01.054.132.423.078.235.24.52.358.634s.324.448.455.743c.23.52.237.564.2 1.445l-.084 1.486c-.055.575-.054.58.198.88.177.21.36.33.608.392.448.114 3.154.12 3.426.006.112-.047.78-.09 1.482-.1l1.315-.078c.02-.035.4-.064.845-.064s.927-.038 1.072-.085.672-.088 1.17-.092l1.284-.063c.21-.03.677-.01 1.054.05.372.06.73.083.793.053s.507-.05.985-.044 1.124-.025 1.437-.068c.36-.05.678-.05.868.002.165.044.69.08 1.17.083.69.003.994-.035 1.473-.186.447-.14.807-.192 1.395-.197.55-.004.908-.05 1.17-.152a2.37 2.37 0 0 1 .717-.143c.3.002.6-.08 1.133-.302.062-.026.555-.093 1.095-.148.718-.074 1.062-.147 1.28-.274.213-.123.437-.173.778-.173.264 0 .634-.042.823-.095.266-.073.49-.07.996.015.582.098.476.01.78.068.167.03.344-.05.396-.135.036-.06.34-.046.366-.017s.05-.038.27-.113c.895-.305 1.108-.47 1.726-.09.22.137.354.897.437 1.833.043.483.03.543-.187.887-.128.203-.26.37-.294.37-.118 0-.5.703-.47.887.01.102-.02.186-.07.186-.07 0-.07.027-.002.116.06.08.064.133.008.17-.044.03-.06.09-.035.135s-.006.2-.07.345c-.142.326-.9 1.304-1.12 1.428-.085.05-.347.334-.58.63-.484.615-1.22 1.37-1.562 1.6-.325.218-.954.747-1.43 1.2-.222.212-.517.442-.655.51-.478.24-1.5.208-1.66-.053-.026-.043-.434-.1-.906-.148s-1.045-.13-1.274-.205-.602-.168-.83-.208c-.4-.07-.686-.138-1.314-.313-.162-.045-.32-.127-.35-.182s-.142-.082-.255-.058-.217.01-.24-.03-.104-.07-.182-.07-.237-.043-.354-.095c-.29-.13-.34-.14-1.12-.202-.374-.03-.748-.095-.83-.144-.09-.054-.792-.097-1.775-.11l-2.04-.067c-.897-.1-5.89-.1-6.253.001a2.62 2.62 0 0 1-.77.063l-.642-.03c-.19.005-1.236-.082-2.454-.205-.64-.065-1.408-.232-1.707-.372-.217-.102-.607-.17-1.178-.204-1.134-.07-2.502-.28-2.568-.398-.04-.068-.112-.058-.264.04-.18.115-.418.128-1.68.093-1.13-.03-1.493-.068-1.575-.158-.093-.1-.13-.1-.285.01a.52.52 0 0 1-.68-.009c-.202-.145-1.22-.187-1.408-.058a.43.43 0 0 1-.171.07c-.042.003-.21.07-.372.148-.23.11-.58.153-1.548.182l-1.818.122c-.312.046-.668.076-.793.066a16.47 16.47 0 0 0-1.548.022c-.062.01-.15.048-.192.085s-.45.143-.906.235c-1.27.258-1.47.312-1.974.53-.257.11-.485.182-.508.157-.05-.055-.86.217-.91.306-.02.035-.125.045-.235.022s-.223.002-.255.06-.302.134-.6.175-.582.1-.627.13-.273.102-.505.16l-.838.234c-.748.235-1.746.467-1.813.42-.036-.024-.38.03-.765.122s-.794.167-.91.167c-.228 0-.68.167-1.154.425-.164.1-.606.232-.982.316l-1.287.286c-.332.074-.723.186-.868.25a2.89 2.89 0 0 1-.516.162c-.222.04-1.525.67-1.825.88-.062.044-.35.204-.642.356s-.648.39-.793.53-.48.377-.74.526-.534.328-.604.398-.184.114-.253.1-.147.012-.174.06c-.063.11-.47.114-.53.004z"/><path d="M139.28 46.853c-.02-.02-.16-.055-.3-.077l-1.46-.284c-.652-.134-1.27-.223-1.37-.198-.118.03-.265-.012-.4-.115-.124-.09-.276-.16-.337-.16s-.18-.05-.263-.11c-.106-.078-.278-.098-.57-.068-.328.034-.417.02-.417-.07 0-.08-.1-.117-.367-.13-.446-.02-.9-.173-.9-.305 0-.208-.584-.265-3.114-.304l-2.652-.073c-.03-.018-.433-.054-.896-.08-.994-.057-1.31-.112-1.552-.267-.098-.063-.178-.096-.178-.072s-.3-.06-.688-.19-.76-.233-.847-.233-.3-.097-.47-.216c-.254-.176-.413-.22-.87-.24-.308-.013-.704-.062-.88-.1-.27-.074-.825-.1-2.862-.143-.14-.003-.342-.09-.475-.203-.127-.11-.25-.198-.277-.198-.07 0-.278.257-.332.4-.04.117-.183.133-1.14.126-.774-.005-1.21.028-1.49.114-.43.13-1.737.123-2.414-.015-.22-.045-.75-.043-1.386.004l-1.522.11c-.272.017-.532.055-.58.084-.1.063-1.25.114-3.202.144-1.063.016-1.516.054-1.78.15-.26.093-.63.126-1.364.123-.685-.003-1.045.026-1.125.092-.064.053-.148.078-.185.055s-.208.005-.38.063-.668.125-1.104.15c-.99.055-1.858.205-2.03.35-.072.06-.242.114-.38.118s-.267.037-.3.074-.112.067-.197.067-.373.11-.637.243-.646.256-.85.27c-.53.04-.905.125-1.04.234-.065.053-.297.16-.515.24s-.432.17-.475.203-.384.135-.756.228c-1.128.28-1.543.1-1.907-.824-.05-.13-.087-.266-.08-.302s-.037-.178-.1-.317-.13-.342-.153-.45c-.146-.727-.32-1.384-.39-1.48-.038-.052-.042-.265-.01-.475a2.63 2.63 0 0 0 .047-.436c-.03-.12.444-.37.813-.424a4.95 4.95 0 0 0 .949-.295c.53-.225.9-.278 1.102-.156.048.03.106.06.128.062s.21.09.416.195c.356.18.402.184.862.09.267-.055.54-.156.61-.223.144-.144.642-.108 1.203.087.493.17.863.16 1.07-.035.13-.12.354-.18.905-.243.403-.045.827-.118.942-.162.26-.1.84-.215 1.515-.3a14.2 14.2 0 0 0 1.108-.199l1.108-.205.91-.16c.218-.05 1.02-.1 1.78-.112.914-.014 1.563-.064 1.908-.146 1.27-.302 2.4-.445 3.436-.43.975.013 1.054.002 1.504-.207.604-.28 1.07-.595 1.07-.72 0-.054.045-.135.1-.18.084-.07.116-.723.066-1.336-.004-.05-.1-.203-.213-.337-.17-.203-.262-.244-.546-.244a3.66 3.66 0 0 0-.855.159c-.388.12-.685.153-1.216.135-.656-.022-1.234.093-1.424.283-.03.03-.137.056-.236.056s-.2.032-.224.072-.222.096-.44.126-.396.088-.396.13-.062.095-.14.12l-2.176.83c-.285.145-1.23.08-1.72-.12l-.69-.243c-.382-.09-.585-.44-.633-1.1-.06-.79.06-1.192.432-1.444.356-.242.44-.244 1.062-.03.44.153.538.16.97.076l.94-.172c.254-.043.628-.162.83-.264l.7-.352c.712-.36 1.525-.537 1.795-.392.105.056.203.054.32-.007a1.74 1.74 0 0 1 .485-.124c.555-.063 1.26-.24 1.52-.38.14-.075.3-.138.356-.14s.192-.07.3-.157.28-.156.377-.157.24-.032.317-.07c.24-.118.944-.328 1.103-.328.144 0 .42-.46.42-.7 0-.05.07-.16.153-.246.157-.157.217-.797.075-.797-.038 0-.07-.052-.07-.115s-.127-.212-.283-.33c-.306-.234-.442-.246-1.3-.12-1.173.17-1.496.243-1.804.4-.23.118-.456.162-.784.153-.473-.012-.68.028-1.094.2-.2.084-.87.195-1.346.22-.044.002-.285-.09-.537-.206l-.523-.2c-.117 0-.564-.473-.564-.598 0-.067-.072-.262-.16-.435-.253-.497-.253-.776.003-1.143.233-.335.507-.596.625-.596.182 0 .214-.46.057-.82-.208-.476-.36-.964-.407-1.318-.127-.93-.13-1.037-.035-1.152.054-.065.078-.14.054-.164s.001-.175.057-.335.09-.39.078-.5.028-.344.09-.496.13-.587.15-.967.075-.888.123-1.127a4.2 4.2 0 0 0 .086-.646c-.003-.257.296-.595.59-.67.318-.08 1.286.304 2.093.83.303.198 1.762.168 2.517-.052.318-.092.688-.223.824-.3s.316-.123.4-.123.285-.07.443-.153c.35-.186 1.254-.45 1.79-.522a2.35 2.35 0 0 0 .594-.155c.11-.056.324-.127.476-.16a2.91 2.91 0 0 0 1.069-.486c.3-.223.6-.334 1.01-.387.18-.023.353-.082.384-.13.088-.142 1.586-.184 2.232-.062.534.1.812.242 1.76.892.81.556 2.166 1.86 2.388 2.296.22.43.203.82-.058 1.5-.08.202-.124.387-.1.4s-.037.25-.134.503c-.156.406-.18.63-.198 1.9l-.02 1.44-.297.54c-.42.766-.5.885-.9 1.354-.515.617-.615.65-1.83.622-.57-.014-1.207.007-1.414.046a7.96 7.96 0 0 1-.978.089c-.446.013-.637.053-.738.154-.075.075-.112.136-.08.136s-.036.12-.148.265c-.2.25-.195.28-.084.495.2.41.238.417 1.626.475 1.092.046 1.385.034 1.702-.07.21-.068.526-.15.7-.182a1.65 1.65 0 0 0 .494-.173c.123-.08.388-.114.866-.1.66.005.706.018 1.13.303.502.34 1.36 1.186 1.913 1.89.207.263.462.524.566.58s.284.306.41.58c.214.466.218.52.09 1.094-.092.408-.663.666-1.302.588-.244-.03-.538-.102-.653-.16-.495-.252-1.434-.33-4.58-.388l-1.465-.04c0-.007-.223-.022-.495-.034s-.495.008-.495.045-.083.067-.185.067-.32.116-.483.257c-.277.24-.3.295-.34.792-.03.37-.016.534.047.534.05 0 .1.082.1.182 0 .197.378.6.728.778.426.216 1.082.82 1.135 1.044.03.123.102.242.163.266s.088.083.06.133.026.012.12-.084.17-.21.17-.255c0-.054.068-.055.208-.001a.67.67 0 0 0 .37.028c.272-.086 1.417-.098 1.836-.02.565.107 3.87.176 7.878.166 1.67-.004 1.845-.02 2.336-.19.26-.092.724-.183 1.03-.2.462-.028.686-.098 1.346-.418 1.2-.582 1.544-.724 1.63-.67.043.027.122.014.174-.028.082-.066.523-.196.712-.21.034-.002.088-.042.12-.088s.235-.15.452-.23.45-.2.515-.244c.418-.348 1.435-.645 1.77-.517.12.046.34.083.486.083.444 0 1.328.235 1.633.435a1.82 1.82 0 0 1 .463.473c.33.536.222 1.86-.22 2.695-.07.13-.117.285-.105.342s-.02.153-.068.212c-.118.143-.124.775-.01 1.262.078.337.068.475-.072 1-.1.33-.214.676-.276.77-.086.132-.09.182-.015.213.066.027.04.09-.08.197-.098.086-.178.195-.178.243s-.03.086-.066.086-.116.098-.178.218-.176.288-.253.373-.123.2-.1.257.001.102-.046.102-.064.056-.037.124c.055.143-.313.667-.467.667-.055 0-.12.053-.146.12-.036.093-.197.12-.747.12-.386 0-.718-.017-.74-.037zM112.732 27.1l.63-.458c.24-.182.653-.302.87-.252.408.094.774.078.904-.04.078-.07.405-.132.87-.165.41-.03.8-.08.87-.116a11.29 11.29 0 0 1 .523-.225l.515-.2c.246-.1.45-.26.898-.7.457-.447.462-.458.435-.848-.015-.218-.002-.404.03-.415s.017-.172-.03-.36c-.09-.355-.412-.687-.596-.616-.058.022-.417.046-.797.052s-.776.044-.88.083-.46.086-.792.105c-.65.036-1.662.31-2.347.633l-.476.2c-.028 0-.11.066-.183.146-.133.148-.647.323-1.438.49l-.886.192c-.25.055-.48.07-.518.032s-.18-.025-.322.028c-.224.085-.254.13-.254.395 0 .194.056.355.158.458.087.087.158.176.158.2s.107.188.238.368c.176.244.238.416.238.67 0 .532.23.698 1.013.727l.62.023zm-18.986.19c-.012-.01-.132-.037-.268-.06s-.368-.093-.515-.16-.39-.146-.542-.177-.33-.084-.396-.12-.175-.084-.24-.11-.297-.152-.515-.282-.53-.294-.693-.365-.297-.156-.297-.19-.196-.264-.435-.513-.435-.483-.435-.52-.045-.114-.1-.172a3.05 3.05 0 0 1-.435-.843c-.102-.512-.15-1.01-.102-1.042.152-.105.208-.417.193-1.07a4.33 4.33 0 0 1 .142-1.306l.2-.792a.87.87 0 0 1 .11-.285c.038-.048.087-.28.11-.515a3.97 3.97 0 0 1 .128-.694c.057-.173.06-.284.01-.317-.136-.087-.49-.92-.53-1.243-.052-.422.09-.663.472-.794.4-.14.55-.138.845.015a1.94 1.94 0 0 0 .451.162c.114.02.43.105.704.19.387.12.762.154 1.707.163 1.17.01 1.226.004 1.633-.202.34-.172.477-.202.708-.154.386.08.507.062 1.197-.18.714-.25.918-.387 1.025-.684.09-.246.016-.46-.24-.705-.08-.076-.184-.284-.23-.46-.093-.345-.08-1.25.02-1.312.033-.02.06-.143.06-.273 0-.167.088-.325.304-.543.35-.354.755-.452 1.53-.37a5.1 5.1 0 0 0 1.04-.034l.93-.112c.2-.016.533-.12.744-.233s.43-.204.487-.204.22-.1.364-.22.363-.272.488-.336c.237-.12.936-.806.99-.972.017-.052.17-.238.337-.413.328-.342.776-1.197.718-1.372-.02-.058.098-.243.262-.41.39-.398.612-1.017.52-1.434-.065-.3-.025-.624.12-.98.073-.18.464-.594.56-.594.036 0 .318.125.627.278.892.44 1.255 1.003 1.38 2.137.078.704-.007 1.18-.28 1.584-.09.13-.227.504-.308.83s-.21.682-.29.792-.158.3-.178.444-.2.482-.403.77c-.27.384-.377.623-.404.885a1.42 1.42 0 0 1-.209.593c-.195.263-.225.64-.066.833.17.204.534.362 1.22.53.616.15.676.15 1.67.026l1.306-.16 1.01-.155c.185-.032.337-.093.337-.135s.12-.126.264-.186.3-.157.347-.214c.164-.205.35-1.048.38-1.722.017-.378.07-.846.12-1.04.246-.97.315-2.175.16-2.757-.05-.18-.06-.374-.027-.427s.067-.124.073-.157a.89.89 0 0 1 .033-.119c.048-.132.034-2.87-.015-2.87-.03 0 .016-.187.1-.416s.17-.603.2-.832c.047-.527.21-.923.448-1.08.162-.106.264-.11.818-.017.348.058.775.16.95.227l.748.255c.237.073.518.2.624.285s.243.152.305.152c.123 0 .658.488.66.602 0 .04.057.178.127.31.102.19.115.36.068.87l-.06.853c-.001.185-.027.212-.167.173-.11-.03-.133-.023-.065.024.056.04.12.246.142.46l.086.588c.08.352.085.745.014.99-.04.13-.067.755-.063 1.386.008 1.267.018 1.427.1 1.556.03.05.046.406.036.793-.017.647-.003.725.18.956.518.656 1.28.748 5.24.63l2.084.022c.052.083.184.096.854.085.208-.004.488.05.623.12.162.084.336.1.512.077.46-.086.316-.25-.385-.44-.36-.097-.723-.225-.81-.286s-.21-.1-.277-.1-.223-.054-.348-.12-.26-.118-.3-.118-.128-.044-.194-.1c-.277-.227-1.298-1.234-1.298-1.28 0-.09-.43-.713-.658-.957-.35-.376-.428-.582-.516-1.402-.07-.652-.064-.817.043-1.09.07-.176.152-.32.184-.32s.08-.085.106-.188.146-.252.266-.33c.235-.152.575-.513.575-.6 0-.033.034-.06.076-.06s.162-.087.268-.193c.418-.418 1.075-.333 2.23.29.568.307.91.62 1.188 1.09l.25.418c.185.307.746.813 1.094.985l.72.356c.2.098.423.235.497.304s.402.296.727.504l1.053.686c.254.17.496.307.538.307.14 0 .554.245 1.01.6l.45.35 1.66.04 2.312.025c.318-.013.462.037.93.322.493.3.59.332.887.287.22-.033.35-.098.378-.2.024-.077.117-.218.205-.312.235-.252.582-.222.974.084l.43.336c.315.245.534.558.9 1.284l.406.808-.096.498c-.053.274-.147.576-.208.672s-.092.226-.068.29.006.138-.04.167-.085.3-.085.647c0 .644-.032.735-.456 1.287-.454.592-.558.91-.57 1.743l-.042.797c-.018.03-.05.336-.074.68-.098 1.47-.15 1.848-.337 2.423l-.218.792c-.01.102-.062.263-.113.358a1.11 1.11 0 0 0-.093.435c-.001.357-.138.825-.285.972-.067.067-.224.12-.35.12s-.25.036-.276.08-.144.056-.26.026a1.71 1.71 0 0 0-.332-.052c-.066.001-.144-.035-.172-.08s-.12-.085-.203-.09c-.253-.02-.974-.508-1.116-.757-.073-.13-.17-.235-.213-.236-.16-.003-.303-.148-.323-.33-.01-.102-.026-.185-.033-.185s-.026-.07-.042-.155-.063-.228-.105-.317c-.315-.672-.37-.823-.376-1.033-.02-.613-.137-1.465-.2-1.465-.08 0-.026-1.76.074-2.454.07-.496.065-.85-.018-1.043-.032-.073-.067-.18-.08-.238s-.05-.17-.084-.25a1.12 1.12 0 0 1-.075-.277 1.7 1.7 0 0 0-.156-.417c-.167-.332-.4-.375-.942-.178-.363.132-.606.156-2.18.22-.7.028-1.112.013-1.218-.044s-.178-.06-.2-.008c-.077.122-1.7.287-2.623.265-.46-.01-1.08-.08-1.386-.158-.48-.12-.923-.137-3.286-.127l-3.88.108-2.93.175c-.283.01-.55.045-.594.077s-.507.05-1.03.04c-.763-.015-1.012.01-1.267.12-.174.077-.495.157-.713.178-1.22.12-1.802.207-1.9.29-.146.12-.94.176-2.77.2l-1.702.063c-.568.147-1.447.235-2.54.253-1.127.02-2.608.2-3.714.454-.196.045-.695.13-1.108.187-.88.123-1.188.196-1.94.464-1.128.402-1.988.784-2.296 1.02s-.317.262-.317.7c0 .385-.036.492-.257.772-.142.18-.257.364-.257.412s-.03.088-.066.088c-.085 0-.09.043-.14 1.01-.028.556-.013.812.046.812s.07.25.037.812l-.048.93c.004.427-.11.747-.39 1.084-.17.204-.363.403-.43.44-.123.07-.9.212-.93.173z"/><path d="M227.288 48.8a7 7 0 0 1-.56-.226c-.243-.107-.457-.18-.477-.16s-.172.004-.34-.033a9.11 9.11 0 0 0-.88-.119c-.317-.03-.644-.087-.728-.13-.09-.045-.417-.055-.787-.023-.637.054-.89-.005-1.597-.37-.176-.09-.29-.12-1.08-.262a9.33 9.33 0 0 1-1.084-.275c-.46-.155-.882-.227-2.123-.364a10.2 10.2 0 0 1-1.838-.39c-.197-.07-.43-.104-.518-.077a.33.33 0 0 1-.271-.041c-.11-.087-.604-.13-2.182-.195l-.987-.067c-.66-.114-1.218-.247-1.398-.334-.113-.054-.354-.087-.534-.073-.84.066-1.11.06-1.685-.034l-1.932-.4c-.045-.03-.306-.08-.58-.105s-.624-.1-.78-.16c-.328-.13-1.022-.203-2.434-.25-.55-.02-1.168-.07-1.375-.115-.312-.067-.443-.056-.77.07-.346.13-.564.146-1.732.12-.735-.017-1.503.005-1.706.05s-.6.076-.88.072l-1.004-.017c-.27-.005-.882-.005-1.357 0l-1.274.008c-.4-.001-1.48.125-1.75.206-.078.023-.29.064-.47.1l-.637.112c-.173.036-.46.032-.654-.01-.41-.09-.983.02-1.56.293-.314.15-.483.177-.9.15-.288-.018-.642 0-.786.04-.194.054-.37.036-.68-.07-.462-.157-.73-.456-.732-.814 0-.147-.08-.27-.247-.39-.33-.234-.598-.775-.53-1.068.126-.55.4-1.018.806-1.376.457-.402 1.723-1.264 1.857-1.264.107 0 .252-.265.252-.46 0-.296.728-.885 1.094-.885.132 0 .3-.12.517-.368.396-.453.426-.546.436-1.322.007-.554.04-.677.296-1.126.158-.277.288-.597.288-.7s.094-.36.208-.548c.425-.698.6-2.272.29-2.573a3.06 3.06 0 0 0-1.113-.554c-.156-.03-.257-.106-.275-.205-.016-.085-.15-.28-.3-.432-.646-.66-.87-1.768-.513-2.542l.17-.407c.026-.076.22-.244.43-.373a5.85 5.85 0 0 0 .698-.514c.173-.154.335-.28.36-.28.075 0 .9-.56 1.134-.778s.718-1.085.718-1.3c0-.075-.074-.275-.164-.445-.49-.927-.565-2.062-.235-3.615l.17-.803-.3-.814c-.346-.937-.375-1.5-.106-2.013.292-.567.96-1 1.3-.823.072.035.363.1.646.144.927.144 1.485.504 2.045 1.317.147.214.438.514.647.667.496.364.664.592.787 1.07.082.32.138.4.294.42.365.05.61-.075 1.112-.567.52-.508.672-.62 1.343-.974.216-.114.498-.3.627-.416.245-.218.547-.718.547-.905 0-.06.074-.174.164-.253s.164-.174.164-.212.087-.2.193-.364c.328-.5.804-1.62.88-2.068.04-.235.13-.49.203-.566.194-.207.52-1.195.58-1.76.047-.44.033-.5-.125-.648-.166-.145-.194-.147-.44-.03-.145.07-.69.28-1.21.47l-.973.406c-.015.034-.098.06-.185.06s-.158.03-.158.07-.217.16-.482.27-.607.305-.76.43c-.444.367-.77.457-1.635.452-.664-.004-.85-.036-1.233-.21-.507-.23-.78-.447-1.08-.854-.536-.725-.646-1.585-.273-2.128.227-.33.926-.712 1.847-1.01a4.83 4.83 0 0 0 .872-.405c.23-.142.453-.257.493-.256s.444-.174.896-.39.99-.438 1.192-.492.462-.142.575-.196.428-.157.7-.23a8.67 8.67 0 0 0 .863-.282c.334-.137.832-.28 1.644-.474.455-.108 1.564-.48 2.02-.68.47-.204.94-.678.94-.95 0-.1.05-.2.11-.245s.178-.24.26-.46.177-.432.21-.475.085-.196.116-.34c.07-.314-.056-.492-.348-.492-.2 0-.773.285-.83.412-.015.035-.1.063-.186.063-.17 0-.835.584-.92.81-.064.168-.47.337-.972.402-.33.043-.403.025-.563-.14-.197-.202-.185-.497.04-.914a5.02 5.02 0 0 0 .209-.463c.056-.146.31-.47.562-.72s.52-.565.596-.7c.302-.542 1.625-1.26 2.37-1.288.922-.035 1.03-.013 1.35.28.168.152.335.277.37.277.17 0 .85.436.972.623l.436.605a3.76 3.76 0 0 1 .45.81c.13.355.137.48.06.87-.17.855-.33 1.445-.42 1.55-.164.19.112.45.48.45.175 0 .554.053.84.117.622.14 1.856.052 2.777-.196a21.14 21.14 0 0 1 2.673-.316c.212 0 .518.06.68.136.368.168 1.35 1.108 1.903 1.822l.703.848c.158.172.287.374.287.45s.037.16.082.188c.144.086.1.733-.09 1.064-.128.237-.283.37-.617.526-.4.188-.513.206-1.095.17-.436-.026-.753-.092-.966-.202-.88-.454-1.07-.518-1.55-.53l-1.315-.075c-.56-.043-.933-.035-1.17.028-.21.055-1.32.105-2.786.127l-2.625.153c-.255.16-.667.877-.778 1.353-.103.44-.605 1.497-.828 1.74-.155.168-.693 1.456-.825 1.97-.073.285-.273.626-.54.918-.302.332-.5.63-.686.986-.107.216-.31.52-.45.673-.368.406-.645.785-.87 1.19-.108.196-.25.42-.315.495-.148.174-.28.39-.532.872-.185.355-.494.69-.635.69-.035 0-.172.17-.305.376s-.7.83-1.262 1.382c-.944.93-1.053 1.014-1.47 1.117-.63.155-1.02.094-1.296-.207l-.64-.644c-.417-.403-.53-.655-.752-1.667-.066-.304-.082-.316-.377-.308-.733.022-1.294.53-1.78 1.614l-.443.93c-.137.273-.228.515-.203.54.126.122.58.038.88-.162a1.27 1.27 0 0 1 1.178-.128c.124.046.514.35.865.674.48.445.66.67.727.912.134.482-.014.918-.415 1.224l-.822.685a9.4 9.4 0 0 1-1.076.791l-.603.41c-.015.033-.073.06-.13.06s-.253.125-.438.277-.367.277-.405.278c-.13.002-.59.52-.645.725-.098.375.46.598.846.338.18-.12.722-1.097.706-1.27-.01-.12.533-.13.833-.017.416.158 1.158.674 1.465 1.02.555.625.882 1.497.694 1.856-.124.238-.574.673-.696.673-.06 0-.107.03-.107.064s-.132.114-.292.175c-.343.13-.73.562-.75.842-.024.3-.195.763-.34.922a.65.65 0 0 0-.149.269c-.01.07-.05.148-.088.174-.108.075-.27.473-.27.665 0 .096-.05.264-.107.372s-.158.376-.22.594-.18.513-.263.656-.15.322-.15.4-.073.277-.163.446-.2.42-.25.56c-.104.303-.865 1.048-1.215 1.2-.29.118-.486.372-.56.732-.08.39.06.49.698.49.3 0 .933.072 1.408.16s.956.143 1.07.122c.664-.12 1.48-.126 1.76-.012.27.11.34.107.77-.025.617-.19 1.68-.284 1.9-.17.256.132.573-.04.632-.345.035-.18-.022-.393-.214-.793-.21-.438-.27-.68-.302-1.225-.022-.374-.076-.745-.12-.826-.143-.258-.105-.805.073-1.05.29-.4.667-1.603.63-2.01a5.83 5.83 0 0 0-.146-.673c-.08-.302-.128-.827-.13-1.44-.001-.56-.036-.986-.084-1.014s-.063-.127-.04-.222c.163-.65.165-2.56.003-3.23-.06-.252-.09-.48-.062-.505s.058-.106.07-.18c.116-.763.93-1.36 1.715-1.26.384.05 1.302.396 1.616.612.275.19.44.188.942-.004.22-.084.71-.21 1.086-.28a6.71 6.71 0 0 0 1.142-.322c.252-.107.665-.215.92-.24a3.66 3.66 0 0 0 .749-.152 6.36 6.36 0 0 1 .74-.203c.25-.052.563-.15.7-.22s.284-.132.33-.142a11.64 11.64 0 0 1 1.592-.242c.333-.025.796-.116 1.028-.202.533-.197 2.75-.3 3.34-.14l.658.134c.617.086 1.717.72 2.397 1.385a2.91 2.91 0 0 0 .617.409c.51.25.878.622 1.102 1.113.15.328.164.43.088.673l-.303.958c-.2.63-.215.792-.237 2.534-.017 1.375.006 1.99.09 2.36.1.44.1.53-.01.744-.083.16-.14.574-.17 1.202l-.085 1.398c-.023.242-.017.464.013.493s.057.65.06 1.38c.003.82.038 1.36.09 1.4.14.133.663.256.97.23a1.85 1.85 0 0 0 .594-.191c.244-.132.5-.174 1.183-.2l3.403-.244c.337-.114.944-.13 1-.027.04.064.428.01.654-.1.436-.194 1.158-.367 1.245-.3.052.04.348.065.658.056.475-.014.628-.057.974-.27a4.12 4.12 0 0 0 .653-.5c.133-.136.3-.248.35-.248s.108-.03.108-.064.13-.113.288-.173.288-.132.288-.16c0-.105.973-.335 1.193-.282.47.113 1.13 1.086 1.135 1.67.003.332-.06.834-.155 1.253-.06.262-.5.713-1.303 1.365-.363.29-.544.513-.714.873a5.39 5.39 0 0 1-.534.868 7.79 7.79 0 0 0-.589.903l-.35.596c-.036.043-.092.222-.124.396-.132.718-.693 1.57-1.15 1.74-.243.09-.815.174-.95.138zm-17.8-7.023c.33-.067 1.026-.115 1.694-.116 1.204-.002 1.313-.02 1.678-.276.348-.244.462-.562.5-1.392l.092-.968c.082-.313-.117-.487-.427-.373-.275.1-1.36.073-1.438-.037-.035-.048-.098-.043-.17.014-.147.118-1.452.322-2.436.382-.423.026-.897.098-1.054.16s-.44.11-.628.103c-.595-.02-2.197.105-2.242.175-.024.037-.198.067-.388.068-.416.001-.98.14-1.063.266-.15.225-.01 1.06.22 1.3.14.146 1.154.413 1.773.467.294.026.877.043 1.295.038.624-.007.808.02 1.028.148.32.188.786.2 1.566.04zm-4.135-5.068l1.1-.235c.27-.065.64-.12.822-.12.282-.003.388-.06.74-.395.226-.216.453-.393.504-.395s.14-.057.196-.124c.12-.14.508-.317.86-.393a4.87 4.87 0 0 0 1.457-.687c.275-.2.312-.278.312-.58 0-.34-.002-.344-.358-.417-.39-.08-.857-.044-1.016.078-.055.042-.258.067-.452.054-.366-.023-1.01.12-1.09.24-.068.106-.7.163-2.226.202-1.45.037-1.622.07-2.52.467-.257.114-.506.207-.552.207-.16 0-.22.28-.217 1.03l.003.75.41.217c.487.257 1.054.286 2.014.103zm-1.357-5.58l.56-.113c.128-.022.35-.075.493-.117s.76-.093 1.37-.113l1.1-.036.912-.446.987-.446c.04 0 .186-.06.322-.132.2-.102.574-.144 1.685-.184l1.556.004c.203.1.578-.082.64-.31.104-.377.064-.837-.102-1.16-.25-.486-.613-.62-1.766-.643-.52-.01-1.112.012-1.315.05l-1.85.427c-.195.1-1.17.337-1.712.398-.197.022-.863.225-1.484.45-.22.08-.458.146-.527.146s-.24.08-.38.18a6.34 6.34 0 0 1-.624.368c-.203.104-.446.255-.54.336s-.207.147-.253.147-.158.08-.25.178c-.643.688.02 1.265 1.166 1.012zm-28.2 16.053c-.136-.046-.303-.13-.373-.188s-.328-.193-.575-.3c-.803-.35-1.06-.687-1.553-2.028-.11-.304-.338-1.135-.378-1.386-.235-1.48-.3-3.804-.12-4.236.01-.022.014-.062.01-.1s.03-.17.074-.317.118-.712.163-1.256l.12-1.346.24-2.02.084-.576c.05-.347.03-.48-.12-.792-.236-.484-.225-1.016.043-2.06.113-.44.205-.906.205-1.035a1.39 1.39 0 0 1 .075-.425c.04-.104.1-.58.13-1.054.098-1.576.203-2.49.306-2.668.056-.097.126-.4.155-.65s.116-.69.193-.95c.185-.632.18-1.282-.033-3.72l-.066-1.78c.006-.528-.034-1.06-.094-1.264-.13-.444-.19-1.874-.093-2.204.067-.223-.057-1.236-.207-1.695-.024-.075-.04-.324-.036-.554.015-.702.006-.772-.12-1.01-.07-.13-.432-.428-.843-.692-.776-.5-1.07-.868-1.083-1.357-.008-.33.208-.783.437-.917.095-.055.617-.162 1.16-.236 1.03-.14 1.506-.243 2.672-.573l3.635-1.2c.26-.1.565-.184.68-.184.23 0 1.015-.24 1.55-.473.732-.32 1.425-.42 2.537-.372 1.023.044 1.263.1 1.573.36.084.07.176.122.206.114.06-.016.495.16.927.378.164.083.364.15.442.15.148 0 .676.275.82.428.045.048.212.15.37.23.545.27 1.594 1.166 1.944 1.663.13.183.27.358.317.39s.083.084.085.12.102.27.223.52c.333.69.18 1.153-.54 1.63a4.13 4.13 0 0 0-.713.673c-.203.245-.41.445-.462.445-.165 0-.698.594-.93 1.036-.403.767-.51.944-.578.944-.036 0-.087.1-.112.22-.03.14-.132.26-.277.328l-.512.234a2.97 2.97 0 0 0-.635.464c-.195.185-.398.336-.45.336s-.296.148-.54.328c-.388.288-.493.328-.87.328-.236 0-.65-.06-.916-.136-.52-.146-.612-.14-1.774.125-.677.154-1.562.51-1.562.626 0 .1-.635.312-.892.312-.127 0-.495.09-.82.198s-.66.198-.745.198c-.285 0-.422.335-.422 1.03 0 .845.135 1.16.526 1.23.24.043.377.006.767-.207 1.504-.824 2.907-1.323 3.973-1.41.695-.058 1.626.055 1.994.24.12.06.445.356.722.656s.638.633.803.74c.532.343.77.602 1 1.105.292.61.314 1.35.077 2.57l-.195 1.093a3.02 3.02 0 0 1-.142.554l-.164.435a13.6 13.6 0 0 1-.255.587c-.108.236-.177.433-.155.437.06.012-.132.222-.786.862-.47.46-.656.587-.987.67-.4.105-1.055.45-1.434.77-.118.1-.433.216-.74.275l-.612.144c-.043.023-.524.03-1.07.015-1.4-.038-2-.02-2.136.06-.047.028-.14.056-.2.062-.406.036-.966.133-1.037.18-.318.2-.538.814-.567 1.558-.006.174-.062.656-.124 1.07-.085.573-.1.878-.024 1.267.048.282.07.958.05 1.502l-.037 1.108a7.88 7.88 0 0 1-.079.633c-.043.283-.095.89-.115 1.346l-.073 1.03a4.02 4.02 0 0 0-.042 1.522l.11.734c.028.262.145.627.238.74.048.06.092.397.098.752.015.9.12 1.715.26 1.98.185.35.204.91.042 1.177-.288.47-.978.658-1.62.44zm3.21-21.16c.314-.158.632-.358.708-.444.08-.092.3-.176.508-.205.43-.057.944-.486 1.222-1.02a4.57 4.57 0 0 1 .348-.554c.56-.726.78-1.082.83-1.334s.034-.287-.14-.327c-.106-.025-.36-.01-.563.033l-1.31.277c-1.067.225-1.6.386-1.773.536-.266.23-.368.3-.436.3-.04 0-.158.09-.264.198s-.162.198-.125.198.012.062-.056.14c-.306.34-.412 1.596-.182 2.15.197.474.376.48 1.23.05zm-.597-10.5c.256-.046.568-.134.693-.197s.27-.115.32-.115.23-.09.4-.202.627-.274 1.017-.364c.954-.218 1.103-.306 1.502-.88.468-.674.867-1.067 1.307-1.284.48-.238.63-.407.7-.793.03-.174.178-.53.325-.792.372-.66.49-1.16.418-1.8-.048-.432-.093-.547-.255-.65-.224-.14-.475-.16-.69-.048-.08.042-.29.082-.467.09-.29.012-2.022.4-2.745.63-.158.048-.584.107-.945.13-.488.03-.744.09-.994.23-.185.104-.385.19-.446.19-.223 0-1.162.498-1.288.683-.12.175-.118.232.015.684a3.51 3.51 0 0 1 .132.901c-.007.234.055.588.146.83.25.667.278.972.13 1.392a4.26 4.26 0 0 0-.178.741c-.038.3-.017.39.145.534.222.2.168.193.758.088zm24.352 9.362c-.355-.22-.833-.744-1.072-1.178-.167-.303-.2-.455-.17-.787.02-.226.073-.478.118-.56.107-.193.416-.46.536-.462.2-.005.962-.218 1.005-.285.025-.04.095-.07.156-.07.13 0 1.14-.578 1.466-.84.126-.1.46-.292.74-.423.73-.342.952-.557 1.637-1.578.12-.178.2-.813.157-1.256-.007-.073-.193-.1-.713-.068l-.745.07c-.087.083-.54-.207-.612-.393-.097-.244-.012-.784.142-.907.064-.05.272-.107.462-.125.26-.024.393-.09.533-.26a1.07 1.07 0 0 1 .452-.302l.636-.178a3.01 3.01 0 0 0 .452-.154c.17-.105 1.666-.62 2.18-.75l1.07-.287c.294-.083.904-.186 1.357-.228l1.4-.162c.534-.08.597-.073 1.063.122s.876.512.876.678c0 .07.12.213.494.6.112.112.135.193.08.277-.043.065-.078.212-.08.327-.003.502-.9.965-1.744.9-.248-.022-.617.008-.856.07-.29.076-.482.086-.617.033-.34-.132-2.214-.11-2.498.028-.24.118-.246.133-.22.633.03.593.203 1.175.423 1.42s.465.25 1.77.022c.18-.03.55-.05.822-.042 1.385.042 1.85.032 2.292-.047.467-.083.504-.077 1.07.183.948.436 1.745 1.233 2.224 2.223.4.83.396.803.222 1.18-.088.192-.236.388-.327.435-.233.12-.977.1-1.37-.035-.18-.063-.422-.115-.537-.115s-.294-.06-.4-.13c-.14-.094-.208-.104-.25-.037-.08.124-1.37.055-2.003-.107-.565-.145-.814-.154-.94-.034-.105.1-.35.24-.763.428l-.493.234c-.268.134-.994.28-1.39.28-.36 0-.817.14-1.527.467-1.034.476-1.038.477-1.83.465-.495-.008-.795.02-.86.082-.054.052-.167.094-.25.094s-.36.09-.61.202c-.627.276-1.22.415-2.02.472-.583.042-.71.027-.924-.104z"/><path d="M278.935 50.016c-1.185-.33-1.33-.39-1.723-.734-.223-.195-.43-.434-.46-.53a.98.98 0 0 0-.165-.303c-.06-.07-.182-.327-.267-.57l-.362-.902c-.187-.415-.21-.587-.26-1.805-.037-.952-.023-1.508.05-1.9.073-.404.08-.658.02-.938-.045-.214-.06-.758-.036-1.227.034-.626.018-.894-.06-1.04-.106-.197-.1-.198-1.272-.198-.64 0-1.166.027-1.166.06s-.057.06-.126.06-.22.05-.337.113c-.22.117-1.004.268-1.755.337-.24.022-.685.11-1 .198l-.832.194a5.18 5.18 0 0 0-.594.124c-.174.048-.976.094-1.783.102-1.17.01-1.553.043-1.9.157-.24.08-.47.168-.515.2-.128.092-.606.252-1 .33l-1.517.25c-.188.014-.396.11-.594.277-.44.368-.456.38-.71.512-.127.066-.284.2-.35.3-.234.354-.632.705-.81.714-.253.013-.31.026-.57.137-.214.09-.265.075-.664-.2-.653-.45-1.343-1.174-1.44-1.514-.047-.16-.106-.602-.133-.98-.046-.655-.036-.7.2-1.2.307-.635.598-.887 1.16-1.004.24-.05.457-.126.484-.17s.108-.054.18-.023c.29.125 1.543.242 1.902.176l.923-.135 1.07-.152 1.268-.174.91-.154.515-.2.515-.2c.203-.08 1.608-.315 1.876-.315.112 0 .248-.053.302-.12s.19-.12.305-.12.625-.143 1.136-.318c.695-.238 1.046-.317 1.388-.31.79.013.85.01 1.078-.047a.61.61 0 0 1 .419.048c.17.1.273.08.767-.075.314-.1.75-.21.967-.244a6.3 6.3 0 0 0 .785-.191c.214-.07.486-.127.604-.127.35 0 .452-.24.38-.902-.098-.897-.315-1.38-.726-1.61-.235-.132-1.128-.126-1.603.01-.215.062-.8.136-1.302.166s-1.013.103-1.14.164-.257.092-.294.07-.13-.005-.208.04a6.55 6.55 0 0 1-1.356.446c-.145.02-.395.094-.555.163s-.398.122-.53.116-.433.06-.672.148-.478.16-.53.16-.227.09-.387.197-.322.177-.36.154-.113-.017-.165.015-.188.06-.3.06a.72.72 0 0 1-.301-.059c-.052-.032-.13-.037-.174-.01-.125.077-1.012-.356-1.145-.56a2.77 2.77 0 0 1-.359-1.077c-.002-.333.276-.892.524-1.057.148-.097.394-.157.703-.168.26-.01.832-.072 1.268-.137l1.426-.173c.35-.03.83-.107 1.07-.172l.792-.175c.196-.03.53-.152.745-.268.227-.123.513-.21.69-.21.165 0 .32-.03.344-.07.04-.067.882-.213 1.024-.18.037.01.115-.023.172-.07.138-.115.603-.163 1.658-.17l.868-.007.2-.243.47-.522c.147-.153.318-.357.38-.452.142-.216.164-.93.034-1.087-.152-.183-.637-.223-1.118-.092-.24.065-.554.12-.697.12s-.6.095-1 .21l-.887.223c-.16.013-.535.158-.753.3-.065.04-.232.125-.37.188s-.274.152-.302.196-.154.08-.282.08-.42.07-.65.158-.508.158-.62.158-.236.03-.277.066c-.185.162-.86.346-1.132.308-.402-.057-1.5-.587-1.598-.773-.045-.084-.108-.145-.14-.135-.093.03-.368-.2-.546-.455-.244-.352-.3-.676-.15-1.077.067-.192.122-.41.123-.483s.128-.23.283-.35c.27-.206.335-.217 1.604-.28 1.92-.093 2.52-.174 2.828-.38.044-.03.204-.064.357-.077s.295-.05.317-.08c.04-.056.637-.216 1.05-.282.12-.02.218-.002.218.037s.14.023.3-.037.33-.088.356-.063.11-.01.185-.08c.19-.172.793-.39 1.13-.41.818-.048 1.416-.783 1.554-1.91.042-.347.02-.448-.157-.73-.113-.18-.275-.363-.36-.408-.203-.11-.926-.05-1.293.108-.162.07-.36.126-.44.126s-.375.072-.656.16l-.748.233c-.37.112-1.223.253-1.703.283-.372.023-.895.087-1.92.234-.278.04-.537.18-.537.29 0 .048-.073.067-.165.042-.21-.055-1.152.14-1.308.27-.065.054-.26.093-.43.086s-.313.014-.313.047-.156.047-.346.032-.574.033-.852.107l-.885.21c-.21.04-.53.177-.713.302-.462.316-.767.365-1.02.165-.213-.168-.438-.815-.3-.863.042-.014.076-.094.076-.176s.09-.21.202-.282.184-.18.16-.24c-.03-.076.033-.108.214-.11.408-.006.777-.174 1.344-.615.292-.226.57-.41.62-.41s.184-.052.3-.114c.353-.192.75-.346 1.042-.403.153-.03.325-.093.383-.14.127-.103.272-.128 1.043-.185.467-.035.65-.086.857-.242.145-.11.245-.244.223-.3-.063-.163.2-.343.586-.402.195-.03.456-.106.58-.17.167-.084.4-.103.9-.072.703.045.736.035 1.38-.385.42-.274 1.118-.612 1.165-.565.117.117 1.722-.446 1.956-.686.318-.326.444-1.437.19-1.69-.122-.122-.183-.12-.88.042-.413.095-.905.168-1.095.162-.43-.014-1.564.147-1.754.25-.078.042-.488.2-.91.35l-.928.343c-.087.037-.408.13-.713.203s-.588.168-.63.21-.128.073-.193.073-.322.16-.572.356-.503.356-.563.356-.15.04-.2.09c-.116.116-.62.113-.93-.005l-.32-.12c-.165-.057-1.146-.938-1.146-1.03 0-.052-.074-.248-.165-.436-.14-.292-.16-.44-.123-1.024.04-.644.057-.696.293-.91l.25-.225 1.183.053c.68.03 1.224.022 1.278-.02.265-.203 1.527-.535 2.63-.693.342-.05.958-.21 1.574-.4.214-.07.665-.127 1-.13s.624-.028.624-.058c0-.108 1.566-.485 1.855-.446.25.034.302.01.42-.2.074-.126.16-.23.188-.23.093 0 .474-.88.545-1.258.05-.263.04-.418-.038-.562-.226-.426-.367-1.015-.373-1.566-.003-.317.017-.6.045-.627s.05-.146.05-.26c0-.294.294-.54.708-.592.19-.024.393-.08.45-.128.12-.1.736-.022 1.128.142.147.06.284.095.305.074s.16.014.312.077.3.093.354.066c.082-.05.39.124.66.374.177.165.2.17.358.07.08-.05.1-.102.032-.177-.126-.162-.127-.923-.001-1.46.15-.636.45-1.137.953-1.58l.408-.36.594.02c.663.022 1.367-.07 1.304-.173-.042-.068.45-.232.696-.232.076 0 .14-.03.14-.07 0-.107.693-.345.854-.293.08.025.214-.006.3-.07.125-.094.35-.107 1.184-.07 1.12.05 1.676-.05 2.22-.396.232-.148.64-.753 1.123-1.658.05-.097.132-.746.18-1.442l.13-1.485.045-.218h1.1c1 0 1.114.014 1.147.142.02.078.114.176.208.218.296.132.4.658.287 1.62-.05.457-.125.876-.17.93s-.064.1-.044.1.012.162-.018.36c-.05.337-.04.368.163.473.536.277 1.89.278 3.308.002.66-.13 1.788.01 2.316.284.175.09.5.34.72.553s.425.387.454.387.135.122.235.27.268.29.372.317.35.257.547.513.463.554.59.66c.244.205.575.78.605 1.05l.028.34c.006.11.044.162.097.13s-.024.145-.158.387-.245.48-.245.527c0 .18-.346.544-.643.678-.17.076-.308.164-.308.194 0 .212-.698.647-1.27.79-.296.074-.4.07-.594-.033-.13-.068-.266-.123-.303-.124-.132-.001-.528-.33-.484-.402.025-.04.005-.073-.043-.073s-.067-.036-.04-.08-.003-.08-.066-.08-.135-.082-.16-.18-.2-.322-.367-.495-.445-.545-.596-.83-.424-.67-.606-.857c-.284-.292-.372-.338-.614-.32-.613.045-1.37-.114-2.045-.428-.098-.046-.202-.06-.23-.03s-.105.008-.17-.046c-.215-.18-.916-.365-1.03-.273-.32.258-.42 1.152-.345 3.138.01.237-.022.454-.07.482s-.075.085-.063.124c.048.163-.17.566-.458.85-.28.274-.338.3-.63.26-.368-.048-.586-.152-1.02-.485-.17-.13-.42-.273-.554-.317-.16-.052-.34-.222-.523-.496l-.28-.417.002-1.392c.002-1.288-.01-1.398-.15-1.473-.212-.113-.74-.038-1.16.165-1.1.532-1.26.646-1.414.995-.134.304-.175.338-.364.302-.22-.042-1.073.34-1.073.48 0 .04-.1.2-.22.36-.218.285-.5.95-.606 1.38-.028.124-.126.25-.225.3-.447.178-.488.19-.86.228-.176.02-.763.566-.91.85a2.18 2.18 0 0 0-.166.611c-.037.31-.018.4.105.5.083.067.105.1.05.072s-.1-.016-.1.025c0 .126.564.15.89.037.187-.065.355-.08.43-.037s.28.036.5-.008c.202-.042.528-.085.724-.095s.713-.063 1.15-.12l1.11-.118c.435-.023.965-.12 1.26-.233.27-.103 2.324-.11 2.86-.008.31.06 1.23.474 1.307.592.022.033.155.12.297.19s.257.17.257.217c0 .14.948 1.355 1.277 1.64.224.193.34.378.432.695.078.267.195.477.306.55.13.086.17.172.143.314-.02.108-.007.196.03.196s.074.092.08.205.1.3.208.416a1.16 1.16 0 0 1 .247.427c.028.12.166.337.307.484s.47.6.73 1.01c.404.63.473.8.462 1.076-.02.543-.168.75-.738 1.04-.474.24-.556.258-1.026.214-.28-.026-.55-.075-.594-.11s-.23-.07-.41-.08c-.305-.018-.357.012-.79.46-.255.264-.51.48-.565.48s-.1.042-.1.093c0 .115-.54.618-.744.694-.273.1-1.016-.064-1.15-.256-.067-.096-.328-.378-.58-.627s-.458-.503-.458-.566a.19.19 0 0 0-.119-.159c-.065-.025-.12-.082-.12-.127 0-.135-.312-.404-.62-.537-.493-.212-3.507-.202-5.36.017-1.78.2-1.908.295-1.985 1.312-.05.636.016 1.05.19 1.22.376.365.528.448.724.4.1-.028.322-.062.47-.077s.292-.064.32-.11.23-.107.445-.134.606-.112.867-.2c.667-.2 1.377-.343 1.703-.345.368-.003.815.062.934.136.053.033.128.04.166.016s.114.01.168.075a.36.36 0 0 0 .241.118c.08 0 .166.07.194.158.04.128.08.143.202.077s.142-.058.105.04.053.076.388-.072c.848-.375 2.13-.133 2.866.54.172.157.34.286.376.286s.064.055.064.122.166.3.368.516c.314.336.373.45.4.778.04.49-.215.922-.857 1.45l-.453.373-.78-.117-1.017-.192c-.285-.09-1.337-.172-2.556-.197-.49-.01-.916-.042-.944-.07-.09-.09-.456-.05-.615.07-.11.082-.362.116-.863.116-.535 0-.79.037-1.035.153-.18.084-.54.2-.8.257-.452.1-.48.12-.577.416-.132.403-.2 1.162-.147 1.416.074.294.633.5 1.18.413a7.35 7.35 0 0 1 .709-.064c.172-.003.273-.038.245-.084s-.01-.054.038-.025.32-.043.61-.16c.456-.187.555-.203.78-.122a1.74 1.74 0 0 0 .549.082c.16-.006.348.035.415.09s.122.072.122.036.043-.022.095.03c.114.114.43.126.497.02.026-.042.094-.057.153-.035s.162-.015.23-.084.228-.136.355-.15.34-.082.476-.15c.213-.106.25-.107.27-.007.02.092.06.082.2-.048.096-.1.25-.163.34-.163s.298-.103.46-.23.37-.252.464-.28c.148-.044.165-.026.126.13-.045.18-.043.18.123.033.12-.105.233-.134.39-.1a5.88 5.88 0 0 0 .48.081c.18.022.42.175.775.494l.738.625c.185.134.21.194.154.348-.038.102-.057.197-.043.21s.18.13.368.255c.27.18.374.32.49.653.164.466.2.905.072 1.214-.09.238-.753.676-1.025.678-.105.001-.307.09-.45.2-.198.15-.355.198-.66.198-.22 0-.4-.036-.4-.08s-.05-.08-.114-.08-.163-.07-.222-.154-.295-.248-.524-.363c-.373-.187-.477-.204-.995-.164l-.688.08c-.258.083-1.92.117-2.684.056-.458-.037-1.017-.043-1.243-.013a2.14 2.14 0 0 1-.792-.049c-.21-.057-.734-.098-1.173-.092-.908.013-.993.06-1.124.622-.154.658-.127.98.117 1.395.21.356.255.39.617.443.794.118 1.414.1 1.73-.05.178-.084.536-.154.868-.17a11.63 11.63 0 0 0 1.08-.108c.394-.063.55-.06.673.018.266.166 2.24.073 2.47-.117.088-.073.405-.115.97-.13 1.18-.03 1.173-.032 1.58.113.302.107.794.137 2.744.163l4.22-.066c.12-.046.432-.103.693-.126l.792-.098c0-.01.125-.026.277-.04a9.51 9.51 0 0 0 1.576-.312c.265-.08.404-.09.404-.035s.037.054.11-.008c.064-.053.2-.07.317-.04.28.07.76-.028.76-.155 0-.115.797-.757 1.198-.964.23-.12.322-.124.75-.04.563.112 1.125.052 1.555-.164.162-.08.355-.148.43-.148.19 0 .82.314.82.41 0 .043.147.22.327.393.325.312.327.318.276.75-.03.252-.134.566-.248.747-.108.172-.197.343-.197.38s-.07.133-.158.212-.158.183-.158.23-.09.184-.198.3-.198.245-.198.284-.067.13-.15.205-.172.247-.2.383-.098.304-.157.372-.13.225-.16.347c-.047.197-.025.234.187.314.132.05.24.12.24.157s-.04.042-.087.013-.19.022-.314.114-.248.168-.273.168-.142.09-.26.198-.255.198-.305.198c-.108 0-.346.56-.346.813 0 .097.07.3.154.428l.154.252-.332-.03c-.296-.028-.36-.002-.585.243-.14.15-.32.275-.4.275a.4.4 0 0 0-.246.099c-.067.067-.4.1-1.026.106l-1.085.056c-.393.12-.63.114-1.09-.034-.27-.087-.547-.218-.612-.292-.183-.206-.875-.552-1.353-.676-.236-.06-.768-.138-1.182-.17s-.806-.087-.872-.12c-.13-.07-1.46-.185-1.896-.166-.302.013-.736-.064-1.747-.3-1.86-.453-2.615-.54-4.793-.545-1.012-.003-1.426.012-3.17.113l-1.505.04c-.355-.005-.77.038-.942.098-.21.074-.443.09-.738.05-.63-.086-1.136.036-1.282.308-.133.247-.084 2.31.067 2.828.072.247.068.5-.01.635-.06.104-.176 1-.152 1.17a.37.37 0 0 1-.069.249c-.048.058-.08.136-.07.173s-.03.22-.09.406c-.085.27-.088.414-.013.713l.122.562c.015.103.07.213.122.245s.086.1.076.13.024.172.075.295c.123.298.118.374-.062.863-.084.23-.154.603-.154.83-.001.58-.347 1.19-.62 1.095-.053-.02-.117 0-.143.04-.097.156-.323.207-.592.132zm3.393-32.167c.137-.068.28-.104.32-.08s.19-.005.338-.066a2.12 2.12 0 0 1 .669-.109c.478.001.904-.082.904-.177 0-.037.073-.09.163-.12.223-.07.186-.47-.044-.484-.087-.006-.3-.067-.475-.136-.374-.148-1.21-.22-1.4-.122-.073.038-.394.086-.713.106-.797.05-1.6.155-1.706.227-.165.103-.213.588-.078.793.092.14.2.187.458.198.185.007.355.03.377.053.092.092.96.03 1.188-.084zm-24.097-3.37c-.08-.046-.166-.063-.192-.037s-.103 0-.172-.058-.28-.154-.47-.214c-.2-.063-.415-.202-.5-.33-.1-.122-.21-.222-.268-.222s-.104-.027-.104-.06-.105-.182-.234-.333c-.17-.198-.25-.392-.288-.706-.064-.51.002-1.934.097-2.084a.41.41 0 0 0 .042-.245c-.013-.078.03-.31.093-.515s.16-.632.21-.948c.086-.52.13-.61.448-.927.438-.437.75-.51 1.367-.325l.617.22a.44.44 0 0 0 .317.024 1.22 1.22 0 0 1 .263-.076c.6-.075.97-.222 1.505-.594.11-.076.252-.14.317-.145.406-.024.792-.13.792-.215 0-.055.098-.123.218-.152.36-.086.918-.51 1.232-.935.325-.44.5-.958.57-1.682.082-.844.24-1.19.726-1.585.25-.205.518-.355.63-.355a1.29 1.29 0 0 1 .876.421c.088.112.246.225.35.25.196.05.948.672.817.676-.04.001-.01.04.066.083s.14.137.14.206.09.208.198.31.2.265.2.365.067.267.148.372c.143.186.173.2 1.523.21 1.536.02 2.075.117 2.262.403.067.103.156.166.196.14s.123-.005.184.045.157.08.214.07c.263-.054 1.194.7 1.676 1.358l.373.475c.125.09.393.723.393.927a4.62 4.62 0 0 1-.13.757c-.107.44-.182.58-.416.774l-.425.37c-.214.202-1.22.174-1.643-.046-.178-.093-.375-.168-.438-.168s-.214-.087-.334-.194l-1.566-1.295c-.184-.145-.294-.185-.608-.223-.182-.022-.394-.073-.47-.114s-.285-.075-.464-.075c-.346 0-.465.125-.356.376.08.185.054.372-.126.89-.118.34-.153.68-.162 1.544-.014 1.397-.068 1.702-.358 2.007-.2.2-.29.244-.705.262-.3.013-.55-.02-.673-.092-.11-.062-.3-.12-.426-.126s-.258-.062-.296-.122-.07-.072-.07-.03-.037.026-.08-.04c-.055-.085-.077-.09-.078-.016-.001.06-.158-.017-.37-.178-.202-.154-.416-.28-.475-.28s-.107-.032-.107-.07-.088-.093-.196-.12c-.253-.064-1.04-.867-1.248-1.275-.09-.174-.196-.34-.237-.365s-.07-.074-.06-.106-.06-.143-.15-.248c-.26-.298-.585-.255-.96.126-.17.174-.376.317-.456.317-.3 0-1.064.99-1.39 1.807-.094.235-.127.52-.113.984.018.603.004.668-.178.85-.374.376-.75.485-1.057.307z"/></g></svg>